<svg id="circle-process-33" xmlns="http://www.w3.org/2000/svg" width="180" height="161.19" viewBox="0 0 180 161.19">
  <path id="Path_13" data-name="Path 13" d="M35.5,160.4a89.035,89.035,0,1,1,110.2-1" fill="none" stroke="#ffbbb6" stroke-miterlimit="10" stroke-width="2" opacity="0.3"/>
  <g id="Group_7" data-name="Group 7">
    <path id="Path_14" data-name="Path 14" d="M5.8,64.1a3,3,0,1,1,0-6,3,3,0,0,1,0,6Z" fill="#ffb3ad"/>
    <path id="Path_15" data-name="Path 15" d="M5.8,59.2a2,2,0,1,1-2,2,2.006,2.006,0,0,1,2-2m0-2a4,4,0,1,0,4,4,3.949,3.949,0,0,0-4-4Z" fill="#ffb3ad"/>
  </g>
  <g id="Group_8" data-name="Group 8" opacity="0.3">
    <path id="Path_16" data-name="Path 16" d="M90.4,76A13.6,13.6,0,1,1,76.8,89.6,13.614,13.614,0,0,1,90.4,76m0-30A43.6,43.6,0,1,0,134,89.6,43.574,43.574,0,0,0,90.4,46Z" fill="#ff9c94"/>
  </g>
</svg>
