<svg id="circle-process-11" xmlns="http://www.w3.org/2000/svg" width="180" height="161.19" viewBox="0 0 180 161.19">
  <path id="Path_5" data-name="Path 5" d="M35.5,160.4a89.035,89.035,0,1,1,110.2-1" fill="none" stroke="#9cffee" stroke-miterlimit="10" stroke-width="2" opacity="0.32"/>
  <g id="Group_3" data-name="Group 3">
    <path id="Path_6" data-name="Path 6" d="M5.8,64.1a3,3,0,1,1,0-6,3,3,0,0,1,0,6Z" fill="#9effef"/>
    <path id="Path_7" data-name="Path 7" d="M5.8,59.2a2,2,0,1,1-2,2,2.006,2.006,0,0,1,2-2m0-2a4,4,0,1,0,4,4,3.949,3.949,0,0,0-4-4Z" fill="#9effef"/>
  </g>
  <g id="Group_4" data-name="Group 4" opacity="0.3">
    <path id="Path_8" data-name="Path 8" d="M90.4,76A13.6,13.6,0,1,1,76.8,89.6,13.614,13.614,0,0,1,90.4,76m0-30A43.6,43.6,0,1,0,134,89.6,43.574,43.574,0,0,0,90.4,46Z" fill="#a5fdef"/>
  </g>
</svg>
