<svg xmlns="http://www.w3.org/2000/svg" width="180" height="163.35" viewBox="0 0 180 163.35">
  <g id="circle-process-11-custom" transform="translate(-318.2 -517)">
    <path id="Path_5" data-name="Path 5" d="M35.5,160.4a89.035,89.035,0,1,1,110.2-1" transform="translate(318.2 517)" fill="none" stroke="#93ffac" stroke-miterlimit="10" stroke-width="2" opacity="0.32"/>
    <g id="Group_3" data-name="Group 3" transform="translate(321.2 484.8)">
      <path id="Path_6" data-name="Path 6" d="M13.55,79.6a10.75,10.75,0,1,1,0-21.5,10.75,10.75,0,1,1,0,21.5Z" transform="translate(0 0)" fill="#94ffac"/>
      <path id="Path_7" data-name="Path 7" d="M13.55,63.075A5.875,5.875,0,1,1,7.675,68.95a5.892,5.892,0,0,1,5.875-5.875m0-5.875A11.75,11.75,0,1,0,25.3,68.95,11.6,11.6,0,0,0,13.55,57.2Z" transform="translate(0 0)" fill="#94ffac"/>
    </g>
    <g id="Group_24" data-name="Group 24" transform="translate(350.2 466.8)">
      <path id="Path_6-2" data-name="Path 6" d="M9.8,72.1a7,7,0,1,1,0-14,7,7,0,1,1,0,14Z" transform="translate(0 0)" fill="#94ffac"/>
      <path id="Path_7-2" data-name="Path 7" d="M9.8,61.2a4,4,0,1,1-4,4,4.012,4.012,0,0,1,4-4m0-4a8,8,0,1,0,8,8,7.9,7.9,0,0,0-8-8Z" transform="translate(0 0)" fill="#94ffac"/>
    </g>
    <g id="Group_9" data-name="Group 9" transform="translate(288.4 484)" opacity="0.12">
      <path id="Path_12" data-name="Path 12" d="M119.475,46a72.675,72.675,0,1,0,72.675,72.675A72.632,72.632,0,0,0,119.475,46Z" transform="translate(0 5)"/>
    </g>
  </g>
</svg>
