<?xml version="1.0" encoding="utf-8"?>
<!-- Generator: Adobe Illustrator 23.0.3, SVG Export Plug-In . SVG Version: 6.00 Build 0)  -->
<svg version="1.1" id="Layer_1" xmlns="http://www.w3.org/2000/svg" xmlns:xlink="http://www.w3.org/1999/xlink" x="0px" y="0px"
	 viewBox="0 0 99.7 90.2" style="enable-background:new 0 0 99.7 90.2;" xml:space="preserve">
<style type="text/css">
	.st0{fill:#333333;}
	.st1{fill:#0ACF83;}
	.st2{fill:#A259FF;}
	.st3{fill:#F24E1E;}
	.st4{fill:#FF7262;}
	.st5{fill:#1ABCFE;}
</style>
<title>Figma.logo</title>
<desc>Created using Figma</desc>
<circle class="st0" cx="49.8" cy="45.1" r="45.1"/>
<path id="path0_fill" class="st1" d="M41.5,70c4.6,0,8.3-3.7,8.3-8.3v-8.3h-8.3c-4.6,0-8.3,3.7-8.3,8.3S37,70,41.5,70z"/>
<path id="path1_fill" class="st2" d="M33.3,45.1c0-4.6,3.7-8.3,8.3-8.3h8.3v16.6h-8.3C37,53.4,33.3,49.7,33.3,45.1z"/>
<path id="path1_fill_1_" class="st3" d="M33.3,28.5c0-4.6,3.7-8.3,8.3-8.3h8.3v16.6h-8.3C37,36.8,33.3,33.1,33.3,28.5z"/>
<path id="path2_fill" class="st4" d="M49.8,20.2h8.3c4.6,0,8.3,3.7,8.3,8.3s-3.7,8.3-8.3,8.3h-8.3V20.2z"/>
<path id="path3_fill" class="st5" d="M66.4,45.1c0,4.6-3.7,8.3-8.3,8.3s-8.3-3.7-8.3-8.3s3.7-8.3,8.3-8.3S66.4,40.5,66.4,45.1z"/>
</svg>
