<svg xmlns="http://www.w3.org/2000/svg" width="62.019" height="66.35" viewBox="0 0 62.019 66.35">
  <g id="brendiranje" transform="translate(0 0.01)">
    <path id="path-1" d="M68,4.264V48.426H78.054L81.273,36.24Z" transform="translate(-22.653 -1.424)" fill="#fcb814" fill-rule="evenodd"/>
    <path id="path-2" d="M71.085,48.335H51.633a1.332,1.332,0,0,1-1.289-.993L47.125,35.157a1.337,1.337,0,0,1,.034-.79L59.146.874A1.334,1.334,0,0,1,61.634.812l13.9,33.493a1.332,1.332,0,0,1,.057.852L72.375,47.342A1.334,1.334,0,0,1,71.085,48.335ZM52.66,45.668h17.4L72.9,34.911,60.493,5.024,49.81,34.876Z" transform="translate(-15.684 0)" fill="#003b72" fill-rule="evenodd"/>
    <path id="path-3" d="M76.009,78.485v12.67H46V78.485Z" transform="translate(-15.324 -26.149)" fill="#2577ff" fill-rule="evenodd"/>
    <path id="path-4" d="M75.343,91.822H45.334A1.334,1.334,0,0,1,44,90.489V77.819a1.334,1.334,0,0,1,1.334-1.334H75.343a1.334,1.334,0,0,1,1.334,1.334v12.67A1.334,1.334,0,0,1,75.343,91.822ZM46.667,89.155H74.009v-10H46.667Z" transform="translate(-14.658 -25.483)" fill-rule="evenodd"/>
    <path id="path-5" d="M70.337,52.929a4.509,4.509,0,1,1-4.509-4.509A4.509,4.509,0,0,1,70.337,52.929Z" transform="translate(-20.427 -16.133)" fill="#2577ff" fill-rule="evenodd"/>
    <path id="path-6" d="M65.161,58.106A5.842,5.842,0,1,1,71,52.263,5.85,5.85,0,0,1,65.161,58.106Zm0-9.018a3.175,3.175,0,1,0,3.176,3.176A3.179,3.179,0,0,0,65.161,49.088Z" transform="translate(-19.76 -15.468)" fill-rule="evenodd"/>
    <path id="path-7" d="M67.334,35.5A1.334,1.334,0,0,1,66,34.163V6.823a1.334,1.334,0,1,1,2.667,0v27.34A1.334,1.334,0,0,1,67.334,35.5Z" transform="translate(-21.986 -1.832)" fill-rule="evenodd"/>
    <path id="path-8" d="M22.244,61.005H4.047a1.334,1.334,0,0,1-.65-2.5c.614-.345,15.058-8.749,11.281-29.942a19.357,19.357,0,0,1,3.245-15.28C25.585,2.678,42.617.108,43.337,0a1.334,1.334,0,0,1,.382,2.64c-.166.024-16.647,2.521-23.638,12.208A16.785,16.785,0,0,0,17.3,28.1C20.246,44.6,12.652,54.172,8,58.338H22.244a1.334,1.334,0,0,1,0,2.667Z" transform="translate(-0.904 0)" fill="#003b72" fill-rule="evenodd"/>
    <path id="path-9" d="M24.335,42.822H19V37.488h5.335Z" transform="translate(-6.329 -12.492)" fill-rule="evenodd"/>
    <path id="path-10" d="M35.335,90.819H30V85.485h5.335Z" transform="translate(-9.994 -28.481)" fill-rule="evenodd"/>
    <path id="path-11" d="M5.335,90.819H0V85.485H5.335Z" transform="translate(0 -28.481)" fill-rule="evenodd"/>
  </g>
</svg>
