<svg xmlns="http://www.w3.org/2000/svg" width="111.859" height="75.847" viewBox="0 0 111.859 75.847">
  <g id="circle-icon-44" transform="translate(-1213.8 -568.935)">
    <g id="Group_23" data-name="Group 23" transform="translate(-566.945 -1588.52)">
      <g id="Group_21" data-name="Group 21" transform="translate(1785.481 2171.222)">
        <path id="Path_58" data-name="Path 58" d="M1834.763,2322.983c-.982-.186-1.963-.378-2.946-.556-2.944-.531-5.907-.934-8.886-1.186-2.789-.236-5.582-.444-8.378-.56-3.428-.142-6.86-.187-10.291-.251-1.545-.029-3.09,0-4.654,0v-1.265h.255c2.058.006,4.117-.006,6.175.024,4.294.063,8.587.181,12.873.479a116.717,116.717,0,0,1,15.095,1.917,58.036,58.036,0,0,1,11.7,3.505,2.933,2.933,0,0,0,2.024.152c2.623-.666,5.258-1.289,7.89-1.921a.591.591,0,0,1,.816.473c.079.37-.135.638-.563.739-2.459.58-4.912,1.187-7.377,1.738a7.687,7.687,0,0,0-3.729,2.144,13.54,13.54,0,0,0-3.693,6.874,16.643,16.643,0,0,0,.69,10.1c.134.334.29.661.454.982s.338.61.51.918h-1.425a15.954,15.954,0,0,1-1.842-6.306,18.3,18.3,0,0,1,1.149-8.418,13.581,13.581,0,0,1,4.508-6.088c.07-.052.132-.116.22-.194a.757.757,0,0,0-.154-.113c-1.606-.567-3.188-1.219-4.825-1.675a14.324,14.324,0,0,0-6.8-.056,22.745,22.745,0,0,0-9.717,4.759A34.16,34.16,0,0,0,1812.8,2344.7c-.3.839-.51,1.708-.771,2.6H1810.8a29.526,29.526,0,0,1,2.113-6.324,34.084,34.084,0,0,1,6.838-9.871,27.8,27.8,0,0,1,10.942-7.023c1.259-.421,2.579-.658,3.872-.98l.195-.044Z" transform="translate(-1799.608 -2292.326)" fill="#fff"/>
        <path id="Path_59" data-name="Path 59" d="M2032.324,2301.109a5.207,5.207,0,0,1,.78-2.766c.306-.5.3-.632-.083-1.089a3.666,3.666,0,0,1-.865-1.76,3.741,3.741,0,0,1,1.068-3.278,1.023,1.023,0,0,1,.15-.148,3.009,3.009,0,0,0,1.145-2.374,4.737,4.737,0,0,1,1.974-3.6,4.325,4.325,0,0,1,6.611,2.2,12.231,12.231,0,0,1,.43,2.114,2.39,2.39,0,0,0,.711,1.354,7.088,7.088,0,0,1,1.085,1.276,3.439,3.439,0,0,1-.335,4.142,1.022,1.022,0,0,0-.183,1.141c.137.322.294.636.441.955a4.133,4.133,0,0,1-.7,4.567,4.873,4.873,0,0,1-2.7,1.424.57.57,0,0,1-.719-.464.593.593,0,0,1,.47-.75,7.862,7.862,0,0,0,.8-.247,2.986,2.986,0,0,0,1.65-4.255c-.134-.28-.279-.556-.436-.824a1.627,1.627,0,0,1,.154-2.008c.076-.094.149-.189.225-.282a2.323,2.323,0,0,0-.031-3.2,4.252,4.252,0,0,0-.554-.552,3.288,3.288,0,0,1-1.149-2.333,6.705,6.705,0,0,0-.434-1.86,3.048,3.048,0,0,0-4.666-1.32,3.849,3.849,0,0,0-1.452,2.864c-.027.259-.064.518-.1.776a2.915,2.915,0,0,1-1.014,1.824,5.228,5.228,0,0,0-.889,1.01,2.221,2.221,0,0,0,.2,2.735c.133.163.269.325.388.5a1.523,1.523,0,0,1,.008,1.9,3.876,3.876,0,0,0-.735,2.1,2.956,2.956,0,0,0,2.285,3.041c.181.058.37.092.552.147a.593.593,0,0,1,.421.728.569.569,0,0,1-.688.477,4.386,4.386,0,0,1-3.772-3.615C2032.342,2301.446,2032.335,2301.234,2032.324,2301.109Z" transform="translate(-1973.726 -2266.959)" fill="#fff"/>
        <path id="Path_60" data-name="Path 60" d="M1945.257,2216.993a3.7,3.7,0,0,1-2.417,3.517,5.183,5.183,0,0,0-2.461,1.693,3.327,3.327,0,0,1-4.419.411c-.232-.192-.469-.377-.705-.564a1.417,1.417,0,0,0-1.355-.249,4.047,4.047,0,0,1-3.883-.738,3.748,3.748,0,0,1-.833-4.536,3.046,3.046,0,0,1,2.579-1.857,2.874,2.874,0,0,0,1.855-1.023,3.811,3.811,0,0,1,5.009-.73,5.34,5.34,0,0,0,3.172.675A3.213,3.213,0,0,1,1945.257,2216.993Zm-8.831-3.415a2.207,2.207,0,0,0-1.843.849,4.118,4.118,0,0,1-2.9,1.52,1.466,1.466,0,0,0-.736.3,2.55,2.55,0,0,0,.393,4.206,2.942,2.942,0,0,0,2.283.136,2.191,2.191,0,0,1,2.5.585,3,3,0,0,0,.336.3,2.262,2.262,0,0,0,3.065-.116c.224-.215.432-.449.635-.684a3.513,3.513,0,0,1,1.386-.983c.27-.107.542-.21.813-.315a2.516,2.516,0,0,0,1.532-1.6,2.178,2.178,0,0,0-1.654-2.975,3.951,3.951,0,0,0-.932-.015,4.611,4.611,0,0,1-3.121-.754A2.991,2.991,0,0,0,1936.426,2213.578Z" transform="translate(-1896.339 -2212.289)" fill="#fff"/>
        <path id="Path_61" data-name="Path 61" d="M2130.188,2268.529a4.36,4.36,0,0,1-4.129,4.48.6.6,0,0,1-.63-.315.568.568,0,0,1,.073-.7,1.049,1.049,0,0,1,.587-.223,3.088,3.088,0,0,0,2.772-3.777,2.09,2.09,0,0,0-.705-1.128,7.345,7.345,0,0,0-.6-.458,3.306,3.306,0,0,1-1.424-2.373,2.963,2.963,0,0,0-2.129-2.59,2.806,2.806,0,0,0-3.4,1.768,5.274,5.274,0,0,0-.247.74,3.56,3.56,0,0,1-1.294,1.976c-.191.147-.374.305-.573.44a3.025,3.025,0,0,0,1.774,5.4c.38.013.567.147.642.431a.609.609,0,0,1-.675.809,4.152,4.152,0,0,1-3.775-2.552,4.431,4.431,0,0,1-.116-3.291,3.284,3.284,0,0,1,1.175-1.565c.321-.257.64-.516.946-.791a2.386,2.386,0,0,0,.7-1.206,4.57,4.57,0,0,1,2.141-3,4.1,4.1,0,0,1,5.921,2.573,5.118,5.118,0,0,1,.158.734,2.233,2.233,0,0,0,.829,1.454c.162.135.321.275.494.394A3.182,3.182,0,0,1,2130.188,2268.529Z" transform="translate(-2036.62 -2248.084)" fill="#fff"/>
        <path id="Path_62" data-name="Path 62" d="M1832.409,2224.442a5.042,5.042,0,1,1,5.023-5.052A5.049,5.049,0,0,1,1832.409,2224.442Zm-3.794-5.05a3.786,3.786,0,1,0,3.821-3.778A3.788,3.788,0,0,0,1828.615,2219.392Z" transform="translate(-1820.392 -2213.839)" fill="#fff"/>
        <path id="Path_63" data-name="Path 63" d="M1993.08,2224.515a3.824,3.824,0,0,1-3.75,3.869,5.712,5.712,0,0,1-1.124-.176c-.2-.035-.391-.085-.588-.125a.989.989,0,0,0-.934.285,4.167,4.167,0,0,1-2.3,1.211,2.812,2.812,0,0,1-.479.028.557.557,0,0,1-.583-.56c-.021-.385.166-.651.534-.664a2.849,2.849,0,0,0,1.988-.937,1.962,1.962,0,0,1,2.3-.511,2.611,2.611,0,0,0,2.95-.565,2.562,2.562,0,0,0,.076-3.519,1.9,1.9,0,0,0-1.22-.586,4.363,4.363,0,0,1-2.72-1.526.622.622,0,0,1-.1-.865.593.593,0,0,1,.943-.058,4,4,0,0,0,2.484,1.333,3.1,3.1,0,0,1,2.406,2.56A5.035,5.035,0,0,1,1993.08,2224.515Z" transform="translate(-1937.191 -2217.772)" fill="#fff"/>
        <path id="Path_64" data-name="Path 64" d="M2058.392,2304.921q0,4.486,0,8.973a.67.67,0,0,1-.118.411.363.363,0,0,1-.609-.187,1.173,1.173,0,0,1-.021-.269q0-8.943,0-17.886c0-.427.088-.556.373-.561a.331.331,0,0,1,.379.335c.007.079,0,.161,0,.241Z" transform="translate(-1992.852 -2274.534)" fill="#fff"/>
        <path id="Path_65" data-name="Path 65" d="M2102.114,2320.783a1.48,1.48,0,0,1,.444.118.583.583,0,0,1,.247.686.54.54,0,0,1-.535.444c-1.18.095-2.361.177-3.54.286-1.948.181-3.895.38-5.842.57-.139.014-.279.034-.419.037a.613.613,0,0,1-.108-1.22c1.216-.137,2.432-.275,3.651-.387C2098.02,2321.131,2100.03,2320.965,2102.114,2320.783Z" transform="translate(-2018.459 -2293.542)" fill="#fff"/>
        <path id="Path_66" data-name="Path 66" d="M2163.482,2318.084v1.248c-1.109.029-2.207.048-3.3.089q-3.036.115-6.071.252c-.469.021-.755-.186-.778-.594-.021-.383.242-.635.7-.651q4.57-.16,9.14-.316C2163.271,2318.108,2163.375,2318.094,2163.482,2318.084Z" transform="translate(-2064.515 -2291.521)" fill="#fff"/>
        <path id="Path_67" data-name="Path 67" d="M2142.836,2284.484q0-3.175,0-6.351c0-.371.1-.492.372-.493a.334.334,0,0,1,.367.318,1.645,1.645,0,0,1,0,.24q0,6.306,0,12.611a1.437,1.437,0,0,1-.005.241.34.34,0,0,1-.385.3.323.323,0,0,1-.347-.306,2.5,2.5,0,0,1-.006-.271Z" transform="translate(-2056.657 -2261.232)" fill="#fff"/>
        <path id="Path_68" data-name="Path 68" d="M2130.161,2292.587c-.012.362-.281.545-.531.409-.589-.322-1.169-.662-1.747-1a.372.372,0,0,1,.377-.639c.577.324,1.151.653,1.718,1C2130.075,2292.405,2130.126,2292.539,2130.161,2292.587Z" transform="translate(-2045.327 -2271.459)" fill="#fff"/>
        <path id="Path_69" data-name="Path 69" d="M2066.2,2346.831a.707.707,0,0,1,.176-.22c.565-.34,1.137-.668,1.711-.991a.339.339,0,0,1,.511.139.346.346,0,0,1-.146.512c-.559.33-1.12.658-1.688.971C2066.489,2347.394,2066.189,2347.2,2066.2,2346.831Z" transform="translate(-1999.262 -2312.096)" fill="#fff"/>
        <path id="Path_70" data-name="Path 70" d="M2045.013,2347.567a3.5,3.5,0,0,1-.332-.141q-.781-.446-1.556-.9c-.267-.157-.334-.354-.193-.564.157-.234.361-.208.575-.084.536.311,1.08.607,1.6.941a.514.514,0,0,1,.179.415C2045.273,2347.355,2045.109,2347.459,2045.013,2347.567Z" transform="translate(-1981.784 -2312.267)" fill="#fff"/>
        <path id="Path_71" data-name="Path 71" d="M2151.391,2292.549c-.07-.067-.224-.147-.256-.262a.447.447,0,0,1,.088-.4c.6-.375,1.221-.73,1.851-1.059a.424.424,0,0,1,.387.156c.06.117.042.391-.04.444-.6.382-1.222.727-1.839,1.081A.831.831,0,0,1,2151.391,2292.549Z" transform="translate(-2062.864 -2271.103)" fill="#fff"/>
        <path id="Path_72" data-name="Path 72" d="M1950.82,2348.742a.911.911,0,0,1-.223.236c-.411.228-.833.434-1.252.648a.378.378,0,1,1-.362-.663c.434-.227.867-.457,1.311-.662C1950.574,2348.171,1950.832,2348.36,1950.82,2348.742Z" transform="translate(-1911.315 -2314.12)" fill="#fff"/>
        <path id="Path_73" data-name="Path 73" d="M1906.71,2402.294c.336-.01.525.2.463.449-.12.485-.258.965-.392,1.447a.335.335,0,0,1-.441.252.331.331,0,0,1-.282-.423c.124-.5.258-1.006.416-1.5C1906.508,2402.411,1906.658,2402.341,1906.71,2402.294Z" transform="translate(-1879.321 -2354.587)" fill="#fff"/>
        <path id="Path_74" data-name="Path 74" d="M1926.541,2366.85c-.114-.085-.265-.143-.314-.249a.429.429,0,0,1,.023-.38c.336-.4.692-.775,1.061-1.141a.333.333,0,0,1,.509.026.339.339,0,0,1,.012.509c-.333.36-.668.717-1.009,1.067A1.384,1.384,0,0,1,1926.541,2366.85Z" transform="translate(-1894.411 -2326.638)" fill="#fff"/>
        <path id="Path_75" data-name="Path 75" d="M1911.031,2390.759c-.348,0-.535-.233-.43-.493.194-.48.419-.948.648-1.414a.33.33,0,0,1,.468-.134.32.32,0,0,1,.2.442q-.31.729-.664,1.44C1911.207,2390.687,1911.072,2390.73,1911.031,2390.759Z" transform="translate(-1882.711 -2344.387)" fill="#fff"/>
        <path id="Path_76" data-name="Path 76" d="M1904.722,2417.045c-.047.477-.092.954-.144,1.43a.343.343,0,0,1-.417.326.326.326,0,0,1-.324-.387c.041-.5.088-.995.152-1.49a.343.343,0,0,1,.431-.311C1904.671,2416.647,1904.744,2416.817,1904.722,2417.045Z" transform="translate(-1877.666 -2365.308)" fill="#fff"/>
        <path id="Path_77" data-name="Path 77" d="M1962.465,2344.678a1.185,1.185,0,0,1-.273-.3.3.3,0,0,1,.163-.427c.523-.165,1.052-.317,1.588-.433a.425.425,0,0,1,.34.244c.033.127-.044.391-.134.422C1963.623,2344.37,1963.079,2344.5,1962.465,2344.678Z" transform="translate(-1921.346 -2310.567)" fill="#fff"/>
        <path id="Path_78" data-name="Path 78" d="M1917.766,2378.089c-.352,0-.552-.291-.4-.543.269-.444.565-.872.869-1.293a.372.372,0,0,1,.6.427q-.414.642-.856,1.267A.614.614,0,0,1,1917.766,2378.089Z" transform="translate(-1887.761 -2334.977)" fill="#fff"/>
        <path id="Path_79" data-name="Path 79" d="M1938.639,2356.095a1.865,1.865,0,0,1-.252.319c-.352.282-.717.548-1.076.823a.366.366,0,0,1-.558-.026.376.376,0,0,1,.1-.574c.363-.284.727-.571,1.109-.827a.518.518,0,0,1,.415-.046C1938.478,2355.8,1938.54,2355.963,1938.639,2356.095Z" transform="translate(-1902.247 -2319.722)" fill="#fff"/>
        <path id="Path_80" data-name="Path 80" d="M2046.686,2320.61c.007.362-.312.563-.565.386-.377-.264-.733-.558-1.088-.85a.329.329,0,0,1-.037-.485.323.323,0,0,1,.474-.1c.38.275.747.573,1.111.87A.511.511,0,0,1,2046.686,2320.61Z" transform="translate(-1983.317 -2292.576)" fill="#fff"/>
        <path id="Path_81" data-name="Path 81" d="M2067.149,2321.427a.755.755,0,0,1-.192.229c-.354.207-.718.4-1.085.582a.35.35,0,0,1-.517-.137.357.357,0,0,1,.169-.531c.365-.189.721-.392,1.091-.57C2066.892,2320.866,2067.154,2321.046,2067.149,2321.427Z" transform="translate(-1998.589 -2293.671)" fill="#fff"/>
      </g>
      <g id="Group_22" data-name="Group 22" transform="translate(1780.745 2157.455)">
        <path id="Path_82" data-name="Path 82" d="M1834.966,2227.525h45.827a3.528,3.528,0,0,0,3.641-3.653q0-10.982,0-21.964c0-1.064.029-2.127.027-3.19q-.011-11.057-.028-22.113a2.564,2.564,0,0,1,.023-.42.614.614,0,0,1,1.217.045c.1,1.28.2,2.562.3,3.842q.259,3.423.516,6.844.254,3.363.509,6.724.258,3.407.517,6.814.226,2.987.448,5.974.221,2.927.444,5.853.229,3,.458,6c.134,1.761.242,3.525.406,5.283a4.75,4.75,0,0,1-4.021,5.309c-.978.152-1.98.152-2.971.215q-3.7.232-7.391.459-3.635.225-7.271.447t-7.241.451l-7.3.452-7.3.453-7.329.452-7.331.457-7.21.446-7.361.457-7.241.448-7.3.453-7.271.451c-.651.04-1.3.1-1.954.105a4.78,4.78,0,0,1-4.731-4.5c-.02-.391-.054-.781-.07-1.172a.365.365,0,0,0-.3-.38,4.658,4.658,0,0,1-3.4-4.068,12.586,12.586,0,0,1-.024-1.835c0-.212-.072-.291-.274-.345a4.183,4.183,0,0,1-3.208-3.778,22.865,22.865,0,0,1,.072-3.151c.132-2.083.295-4.164.458-6.245.184-2.341.383-4.681.576-7.021q.282-3.421.564-6.842c.2-2.4.4-4.8.579-7.2.175-2.3.347-4.6.489-6.906.162-2.625.313-5.25.425-7.876.1-2.326.141-4.654.2-6.981.022-.833.037-1.666.04-2.5a4.686,4.686,0,0,1,3.927-4.55,11.367,11.367,0,0,1,2.219.01c2.4.157,4.8.343,7.206.519q3.948.29,7.9.582,3.9.285,7.807.563,3.528.256,7.055.518,3.093.225,6.185.446,3.933.286,7.866.576l6.965.506q3.558.26,7.116.522,3.483.253,6.966.5,3.468.251,6.935.506,3.528.258,7.055.517,2.537.185,5.074.365a.624.624,0,0,1,.027,1.243,3.163,3.163,0,0,1-.391.01h-85.026a3.513,3.513,0,0,0-3.51,2.878,4.243,4.243,0,0,0-.063.809q0,13.8,0,27.6c0,1.114-.028,2.228-.027,3.342q.01,11.313.028,22.625a3.543,3.543,0,0,0,3.621,3.619h45.855ZM1856.7,2165.4v-.036a.746.746,0,0,0-.086-.016q-4.938-.362-9.876-.721-5.178-.375-10.357-.746-5.584-.407-11.166-.822t-11.168-.805q-5.974-.435-11.947-.879-6.439-.469-12.879-.928a3.447,3.447,0,0,0-3.755,2.981c-.159,1.231-.188,2.479-.273,3.719,0,.031.027.063.05.111a5.1,5.1,0,0,1,4.26-1.868q33.363.022,66.725.01Zm9.659,63.433v-.051h-76.37c-.191,0-.381-.012-.571-.018-.165,0-.234.065-.217.238.033.34.057.681.077,1.021a3.581,3.581,0,0,0,3.848,3.356c1.74-.135,3.485-.216,5.227-.325q4.161-.259,8.322-.522,4.1-.253,8.2-.5c2.754-.171,5.508-.349,8.261-.52,3.075-.19,6.149-.373,9.223-.563q5.078-.316,10.155-.639,5.123-.318,10.245-.625,5.814-.358,11.627-.722C1865.048,2228.92,1865.7,2228.875,1866.361,2228.832Zm-82.107-46.444-.048,0c-.03.49-.058.98-.089,1.47q-.26,3.995-.52,7.989-.285,4.43-.564,8.861-.256,3.98-.519,7.959-.268,4.115-.533,8.229a5.584,5.584,0,0,0,.157,2.146,3.1,3.1,0,0,0,1.766,1.977c.271.117.343.068.352-.222,0-.06,0-.121,0-.181v-38.227Zm99.644,45.26.089.1c.259-.017.518-.033.778-.052a3.53,3.53,0,0,0,3.271-3.815c-.131-1.62-.249-3.24-.371-4.861q-.282-3.721-.564-7.442c-.211-2.741-.429-5.48-.639-8.221s-.416-5.482-.625-8.223c-.025-.325-.066-.648-.1-.973l-.056,0v.358q0,14.7,0,29.4a4.763,4.763,0,0,1-1.55,3.593A1.075,1.075,0,0,1,1883.9,2227.647Z" transform="translate(-1780.745 -2158.773)" fill="#ffd092"/>
        <path id="Path_83" data-name="Path 83" d="M2145.56,2172.213a4.6,4.6,0,0,1,1.571-3.417c3.51-3.313,7.041-6.606,10.531-9.942a4.7,4.7,0,0,1,7.528,1.2,4.49,4.49,0,0,1-.878,5.657.6.6,0,0,1-.906.025.608.608,0,0,1,.045-.927,3.214,3.214,0,0,0,1.091-2.781,3.659,3.659,0,0,0-2.411-3.089,3.146,3.146,0,0,0-3.525.748q-4.393,4.12-8.764,8.261c-.643.606-1.289,1.208-1.925,1.821a3.5,3.5,0,0,0,1.11,5.762,3.3,3.3,0,0,0,3.909-.8q3.67-3.46,7.334-6.926a1.615,1.615,0,1,0-2.229-2.335q-3.068,2.89-6.138,5.779a.591.591,0,0,1-.735.154.56.56,0,0,1-.354-.633.884.884,0,0,1,.25-.424q2.829-2.684,5.671-5.353c.226-.214.447-.434.685-.633a2.731,2.731,0,0,1,3.844.281,2.7,2.7,0,0,1,.008,3.915c-1.959,1.887-3.949,3.741-5.926,5.609-.569.537-1.133,1.081-1.709,1.611a4.574,4.574,0,0,1-2.986,1.325,4.71,4.71,0,0,1-3.739-1.625A4.791,4.791,0,0,1,2145.56,2172.213Z" transform="translate(-2053.962 -2157.455)" fill="#ffd092"/>
      </g>
    </g>
  </g>
</svg>
