<svg xmlns="http://www.w3.org/2000/svg" width="79.874" height="91.391" viewBox="0 0 79.874 91.391">
  <g id="circle-icon-11" transform="translate(-366.648 -564)">
    <g id="Layer_1" data-name="Layer 1" transform="translate(359.2 564)">
      <g id="Group_11" data-name="Group 11" transform="translate(7.448 0)">
        <path id="Path_17" data-name="Path 17" d="M5403.357,5826.714a9.855,9.855,0,0,1,3.4,2.339,13.209,13.209,0,0,1,3.422,6.716,12.145,12.145,0,0,1,.207,2.189,9.163,9.163,0,0,1-1.078,4.465l54.3-19.247,0-.013a5.569,5.569,0,0,1,.863-.229l.031-.005,2.159-.763c.06-.023.184-.069.336-.125.342-.127.84-.311.881-.331a4.585,4.585,0,0,0,2.209-2.589,8.27,8.27,0,0,0,.3-4.348,10.57,10.57,0,0,0-2.721-5.424,6.367,6.367,0,0,0-4.436-2.172,4.175,4.175,0,0,0-.649.048c-.1.015-.189.033-.28.055l-58.944,19.434Zm53.092,39.982v-.011h0S5456.449,5866.706,5456.449,5866.7Zm0-.011v0h0Zm-11.457-1.76v.012h0s0-.023,0-.013Zm0,.012v0h0Zm-4.867,8.264v-.011h0s0,.023,0,.013Zm0-.011v0h0Zm-11.457-1.76v.011h0S5428.668,5871.419,5428.668,5871.429Zm0,.011v0h0Zm10.923-20.084v-.011l0,0s0,.023,0,.013Zm0-.011v0h0Zm-10.433-2.168v.011h0s0-.023,0-.013Zm0,.011v0h0Zm28.272-22.068a8.729,8.729,0,0,1,3.091,3.031,13.226,13.226,0,0,1,1.839,7.323l-.04,4.319,6.465-2.444h0l.35-.139c.352-.139.865-.341.885-.352a4.779,4.779,0,0,0,2.222-2.659,8.322,8.322,0,0,0,.3-4.36,10.243,10.243,0,0,0-2.715-5.345,6.18,6.18,0,0,0-4.423-2.058,4.16,4.16,0,0,0-.5.042l-7.478,2.643Zm4.875,16.381-.349,37.7-39.6,15.77c.091-12.816.258-25.659.308-38.48l-14.189,5.365a5.8,5.8,0,0,1-.545.207l-.208.079-.005-.015c-.171.048-.346.089-.523.122a6.165,6.165,0,0,1-.97.1,8.356,8.356,0,0,1-6.01-2.711,12.842,12.842,0,0,1-3.429-6.643,12.2,12.2,0,0,1-.2-1.905,9.172,9.172,0,0,1,1.351-5.235,6.108,6.108,0,0,1,3.422-2.61l.229-.082a9.786,9.786,0,0,1-3.535-2.39,13.207,13.207,0,0,1-3.422-6.716,12.1,12.1,0,0,1-.207-2.189,8.891,8.891,0,0,1,1.388-4.972,5.924,5.924,0,0,1,3.4-2.494h0l62.263-20.528,0-.009c.106-.035.213-.067.321-.1l.013,0h0a5.193,5.193,0,0,1,.528-.111,5.75,5.75,0,0,1,.9-.073,7.938,7.938,0,0,1,5.583,2.665,12.193,12.193,0,0,1,3.145,6.253,9.843,9.843,0,0,1-.383,5.184,6.162,6.162,0,0,1-3,3.462c-.062.03-.29.117-.543.212a8.942,8.942,0,0,1,2.933,2.018,11.866,11.866,0,0,1,3.151,6.187,9.893,9.893,0,0,1-.383,5.189,6.353,6.353,0,0,1-2.989,3.521c-.08.041-.336.145-.607.253l0,.012-.742.281h0l-7.092,2.682Zm-39.638,13.286q.008-2.7.009-5.4a12.821,12.821,0,0,0-1.663-7,5.979,5.979,0,0,0-4.4-2.839l-10.322,3.647c-.171.07-.348.132-.527.187l-.216.076v0l-.037.013a9.547,9.547,0,0,1,3.4,2.256,12.842,12.842,0,0,1,3.429,6.643,12.137,12.137,0,0,1,.2,1.905,9.413,9.413,0,0,1-1.062,4.751l11.19-4.231Zm-3.5-16.146a7.738,7.738,0,0,1,3.185,2.882,14.379,14.379,0,0,1,1.912,7.872l-.306,43.226,36.415-14.5.4-42.684a11.647,11.647,0,0,0-1.6-6.444,6.542,6.542,0,0,0-4.022-3.065l-35.977,12.713Zm-15.2,10.143a3.43,3.43,0,0,1,2.479,1.1,5.014,5.014,0,0,1,1.34,2.593,4.7,4.7,0,0,1,.078.747,3.716,3.716,0,0,1-.555,2.123,2.624,2.624,0,0,1-1.738,1.188,2.688,2.688,0,0,1-.42.042,3.428,3.428,0,0,1-2.479-1.1,5.014,5.014,0,0,1-1.34-2.593,4.757,4.757,0,0,1-.078-.747,3.718,3.718,0,0,1,.555-2.123,2.6,2.6,0,0,1,2.157-1.23Zm1.351,2.222a1.872,1.872,0,0,0-1.313-.631,1.022,1.022,0,0,0-.86.506,2.146,2.146,0,0,0-.3,1.219,3.137,3.137,0,0,0,.054.5,3.4,3.4,0,0,0,.9,1.757,1.872,1.872,0,0,0,1.313.631,1.022,1.022,0,0,0,.86-.506,2.141,2.141,0,0,0,.3-1.219,3.211,3.211,0,0,0-.053-.5,3.4,3.4,0,0,0-.9-1.757Zm2.071,9.559.479-.181a4.668,4.668,0,0,0,1.986-1.748,7.593,7.593,0,0,0,1.095-4.33,10.571,10.571,0,0,0-.176-1.656,11.223,11.223,0,0,0-2.992-5.807,6.794,6.794,0,0,0-4.844-2.243,4.585,4.585,0,0,0-.72.074,4.482,4.482,0,0,0-2.95,2.049,7.589,7.589,0,0,0-1.1,4.33,10.515,10.515,0,0,0,.176,1.656,11.223,11.223,0,0,0,2.992,5.807,6.8,6.8,0,0,0,4.844,2.243,4.644,4.644,0,0,0,.72-.075,4.177,4.177,0,0,0,.486-.12Zm-2.214-18.673.629-.223a4.484,4.484,0,0,0,1.875-1.622,7.317,7.317,0,0,0,1.114-4.086,10.506,10.506,0,0,0-.176-1.9,11.584,11.584,0,0,0-3-5.893,7,7,0,0,0-4.857-2.368,4.541,4.541,0,0,0-.818.07,4.317,4.317,0,0,0-2.814,1.915,7.313,7.313,0,0,0-1.114,4.086,10.51,10.51,0,0,0,.176,1.9,11.584,11.584,0,0,0,3,5.893,7,7,0,0,0,4.856,2.368,4.49,4.49,0,0,0,.818-.071c.105-.019.209-.042.312-.069Zm-3.345-11.89a3.5,3.5,0,0,1,2.467,1.156,5.139,5.139,0,0,1,1.333,2.614,4.716,4.716,0,0,1,.083.858,3.621,3.621,0,0,1-.575,2.025,2.563,2.563,0,0,1-1.682,1.128,2.644,2.644,0,0,1-.479.046,3.5,3.5,0,0,1-2.467-1.156,5.139,5.139,0,0,1-1.333-2.614,4.724,4.724,0,0,1-.083-.858,3.627,3.627,0,0,1,.574-2.025,2.566,2.566,0,0,1,1.682-1.127,2.636,2.636,0,0,1,.479-.046Zm1.325,2.266a1.938,1.938,0,0,0-1.325-.669,1.114,1.114,0,0,0-.192.015,1,1,0,0,0-.646.448,2.043,2.043,0,0,0-.3,1.14,3.167,3.167,0,0,0,.052.571,3.517,3.517,0,0,0,.909,1.791,1.94,1.94,0,0,0,1.326.669,1.114,1.114,0,0,0,.192-.015,1,1,0,0,0,.646-.448,2.047,2.047,0,0,0,.3-1.14,3.167,3.167,0,0,0-.051-.571,3.514,3.514,0,0,0-.91-1.791Z" transform="translate(-5394.419 -5805.581)" fill="#a5fdd7"/>
      </g>
    </g>
    <g id="Layer_2" data-name="Layer 2" transform="translate(396.92 589.317)">
      <g id="Group_12" data-name="Group 12" transform="translate(0 0)">
        <path id="Path_18" data-name="Path 18" d="M5639.2,6021.229a.5.5,0,1,1-.328-.939l29.065-10.523a.5.5,0,0,1,.328.939Z" transform="translate(-5638.538 -6009.738)" fill="#fff"/>
        <path id="Path_19" data-name="Path 19" d="M5651.307,6036.457a.5.5,0,1,1-.339-.936l29.175-10.588a.5.5,0,1,1,.339.936l-29.175,10.588Z" transform="translate(-5649.139 -6023.023)" fill="#fff"/>
        <path id="Path_20" data-name="Path 20" d="M5661.793,6053.445a.5.5,0,1,1-.351-.932l28.949-10.894a.5.5,0,0,1,.351.932Z" transform="translate(-5658.32 -6037.638)" fill="#fff"/>
        <path id="Path_21" data-name="Path 21" d="M5690.07,6386.74a.5.5,0,1,1,.367.924l-29.32,11.68a.5.5,0,0,1-.366-.924Z" transform="translate(-5657.721 -6339.958)" fill="#fff"/>
        <path id="Path_22" data-name="Path 22" d="M5690.512,6366.8a.5.5,0,1,1,.367.924l-29.32,11.679a.5.5,0,0,1-.367-.924Z" transform="translate(-5658.107 -6322.489)" fill="#fff"/>
        <path id="Path_23" data-name="Path 23" d="M5690.952,6346.856a.5.5,0,0,1,.367.924L5662,6359.459a.5.5,0,1,1-.367-.924Z" transform="translate(-5658.493 -6305.021)" fill="#fff"/>
        <path id="Path_24" data-name="Path 24" d="M5691.392,6326.914a.5.5,0,1,1,.366.924l-29.32,11.68a.5.5,0,1,1-.367-.924Z" transform="translate(-5658.878 -6287.552)" fill="#fff"/>
        <path id="Path_25" data-name="Path 25" d="M5807.7,6244.265a.676.676,0,0,0-.229-.3.658.658,0,0,0-.375-.124.708.708,0,0,0-.281.053l-12.071,4.81h0a.926.926,0,0,0-.423.354.994.994,0,0,0-.163.513l-.15,6.812a.774.774,0,0,0,.053.3.672.672,0,0,0,.229.3.652.652,0,0,0,.374.124.721.721,0,0,0,.282-.053l12.071-4.81a.93.93,0,0,0,.423-.354,1,1,0,0,0,.162-.513l.15-6.812A.778.778,0,0,0,5807.7,6244.265Zm-1.09,7.077-11.6,4.621.14-6.352,11.6-4.621h0Z" transform="translate(-5774.729 -6214.811)" fill="#fff"/>
        <path id="Path_26" data-name="Path 26" d="M5676.058,6296.717a.674.674,0,0,0-.23-.3.654.654,0,0,0-.374-.124.718.718,0,0,0-.282.053l-12.071,4.81a.926.926,0,0,0-.423.354,1,1,0,0,0-.163.513l-.15,6.812a.774.774,0,0,0,.053.3.676.676,0,0,0,.229.3.656.656,0,0,0,.374.124.712.712,0,0,0,.282-.053l12.071-4.81a.928.928,0,0,0,.423-.354,1,1,0,0,0,.163-.513l.15-6.812A.774.774,0,0,0,5676.058,6296.717Zm-1.091,7.077-11.6,4.621.14-6.352,11.6-4.621Z" transform="translate(-5659.411 -6260.759)" fill="#fff"/>
        <path id="Path_27" data-name="Path 27" d="M5664.884,6227.478a.5.5,0,0,1-.367-.924l28.859-11.5a.5.5,0,1,1,.366.924l-28.858,11.5Z" transform="translate(-5661.021 -6189.561)" fill="#fff"/>
        <path id="Path_28" data-name="Path 28" d="M5665.324,6207.535a.5.5,0,1,1-.367-.924l28.858-11.5a.5.5,0,1,1,.367.924l-28.858,11.5Z" transform="translate(-5661.406 -6172.092)" fill="#fff"/>
        <path id="Path_29" data-name="Path 29" d="M5665.764,6187.593a.5.5,0,1,1-.366-.924l28.858-11.5a.5.5,0,1,1,.367.924l-28.859,11.5Z" transform="translate(-5661.792 -6154.623)" fill="#fff"/>
        <path id="Path_30" data-name="Path 30" d="M5666.2,6167.651a.5.5,0,0,1-.366-.924l28.858-11.5a.5.5,0,0,1,.366.924Z" transform="translate(-5662.177 -6137.153)" fill="#fff"/>
        <path id="Path_31" data-name="Path 31" d="M5788.756,6130.244a.5.5,0,0,1-.367-.924l13.748-5.48a.5.5,0,1,1,.366.924l-13.747,5.48Z" transform="translate(-5769.533 -6109.66)" fill="#fff"/>
        <path id="Path_32" data-name="Path 32" d="M5789.2,6110.3a.5.5,0,1,1-.367-.924l13.748-5.48a.5.5,0,0,1,.366.924Z" transform="translate(-5769.917 -6092.191)" fill="#fff"/>
        <path id="Path_33" data-name="Path 33" d="M5789.637,6091.5a.5.5,0,1,1-.367-.924l13.343-5.32a.5.5,0,1,1,.367.924l-13.343,5.319Z" transform="translate(-5770.304 -6075.859)" fill="#fff"/>
        <path id="Path_34" data-name="Path 34" d="M5790.077,6072.332a.5.5,0,0,1-.366-.924l13.068-5.209a.5.5,0,1,1,.366.924l-13.068,5.209Z" transform="translate(-5770.689 -6059.167)" fill="#fff"/>
        <path id="Path_35" data-name="Path 35" d="M5678.993,6120.561a.675.675,0,0,0-.229-.3.648.648,0,0,0-.374-.124.712.712,0,0,0-.282.052l-11.046,4.4h0a.929.929,0,0,0-.423.354,1,1,0,0,0-.163.513l-.15,6.812a.772.772,0,0,0,.053.3.673.673,0,0,0,.229.3.652.652,0,0,0,.374.124.716.716,0,0,0,.281-.052l11.047-4.4a.929.929,0,0,0,.423-.354.993.993,0,0,0,.163-.513l.15-6.812A.774.774,0,0,0,5678.993,6120.561Zm-.95.725-.141,6.352-10.573,4.213.141-6.352,10.573-4.213Z" transform="translate(-5662.88 -6106.447)" fill="#fff"/>
      </g>
    </g>
  </g>
</svg>
