<svg xmlns="http://www.w3.org/2000/svg" width="132.812" height="67.59" viewBox="0 0 132.812 67.59">
  <g id="circle-icon-22" transform="translate(-628.389 -574.878)">
    <path id="Path_36" data-name="Path 36" d="M3647.531,3848.46c-.3.478-.461.546-1.021.422q-2.955-.652-5.908-1.31c-.681-.152-.783-.074-.788.629a48.578,48.578,0,0,1-3.087,16.058c-.122.341-.3.66-.444,1-.227.539-.133.753.443.889.97.23,1.947.433,2.921.643,1.445.311,2.891.617,4.335.929.491.106.713.421.613.852a.674.674,0,0,1-.912.523c-2.8-.6-5.6-1.194-8.391-1.82a8.023,8.023,0,0,1-1.647-.6c-.165-.078-.272-.366-.323-.578a6.157,6.157,0,0,1-.129-1.044c-.016-.266-.132-.351-.392-.375-1.659-.155-3.32-.3-4.974-.5a35.59,35.59,0,0,1-9.057-2.109,22.1,22.1,0,0,1-7.167-4.307,23.6,23.6,0,0,1-3.5-4.491,19.288,19.288,0,0,0-3.23-4.07c-.489-.437-1.028-.818-1.531-1.241a.892.892,0,0,0-.789-.172,3.481,3.481,0,0,0-2.246,1.463,14.124,14.124,0,0,0-1.088,1.8,2.011,2.011,0,0,0-.182.882,2.749,2.749,0,0,1-2.607,3.008,3.2,3.2,0,0,1-3.53-2.549c-.045-.254-.065-.511-.106-.841a3.038,3.038,0,0,1-3.248,1c-1.383-.345-1.868-1.371-1.913-2.748-.273.177-.5.309-.716.467a9.027,9.027,0,0,1-4.692,1.639,22.934,22.934,0,0,1-2.311.015c-.113,0-.223-.078-.338-.088a.763.763,0,0,0-.408.026.473.473,0,0,1-.686-.1.458.458,0,0,1,.1-.684.3.3,0,0,0,.113-.219,2.769,2.769,0,0,1,.374-1.826,10.813,10.813,0,0,1,2.982-3.571c1.15-.9,2.435-1.626,3.661-2.427.156-.1.316-.2.487-.3-.753-2.279.12-4.183,1.393-5.962a51.965,51.965,0,0,1,4.992-6.1,22.554,22.554,0,0,1,1.845-1.632,8.607,8.607,0,0,1,4.393-1.646,37.236,37.236,0,0,1,8.047-.164c1.136.078,2.27.184,3.405.264a.694.694,0,0,0,.386-.114c1.759-1.1,3.507-2.227,5.271-3.324,2.311-1.437,4.619-2.88,6.957-4.272a8.818,8.818,0,0,1,3.493-1.236,3.362,3.362,0,0,1,.772-.012,1.7,1.7,0,0,1,1.49,2.49,6.507,6.507,0,0,1-2.278,2.771c-1.221.912-2.5,1.745-3.771,2.593-1.1.737-2.229,1.437-3.331,2.174-.639.428-1.251.9-1.9,1.365.488.384.98.756,1.458,1.148a49.407,49.407,0,0,1,5.732,5.762,80.429,80.429,0,0,0,5.7,6.139,22.326,22.326,0,0,0,6.1,4.12c.138.062.279.119.409.174.036-.016.071-.02.076-.035a2.86,2.86,0,0,1,.893-1.31,1.543,1.543,0,0,1,1.045-.181c2.694.521,5.358,1.188,8.04,1.772a1.044,1.044,0,0,1,.709.456Zm-36.7-10.341a4.329,4.329,0,0,0,.623-.058q1.452-.342,2.9-.712a.684.684,0,0,1,.909.428.636.636,0,0,1-.448.886,27.885,27.885,0,0,1-2.991.76,17.287,17.287,0,0,1-5.227-.156,32.513,32.513,0,0,0-7.8-.071c-1.693.175-3.384.361-5.077.535a6.809,6.809,0,0,0-2.954.836,2.638,2.638,0,0,0-1.23,3.15,3.31,3.31,0,0,0,2.11,1.979,8.3,8.3,0,0,0,3.537.442c1.794-.071,3.587-.2,5.382-.217a8.566,8.566,0,0,1,6.249,2.394,37.985,37.985,0,0,1,2.665,3,11.49,11.49,0,0,0,5.006,3.7,16.765,16.765,0,0,0,4.485.828.675.675,0,0,1,.711.771.685.685,0,0,1-.825.616c-.6-.051-1.195-.09-1.787-.169a12.566,12.566,0,0,1-6.45-2.58,1.76,1.76,0,0,0-.239-.122,16.493,16.493,0,0,0,4.159,3.958,28.135,28.135,0,0,0,11.715,4.238c1.916.276,3.844.474,5.768.694,1.141.131,2.285.238,3.476.361a52.908,52.908,0,0,0,2.95-14.263c-.1-.04-.152-.066-.208-.083a21.13,21.13,0,0,1-7.352-3.9,46.876,46.876,0,0,1-5.917-5.923,71.219,71.219,0,0,0-5.72-6.121c-1.009-.909-2.083-1.745-3.116-2.6l-10.576,7.088c.221.035.355.062.491.076q1.313.133,2.628.261c.536.052.718-.092.8-.623.014-.093.021-.187.038-.279a.642.642,0,0,1,.762-.557.608.608,0,0,1,.608.64C3610.887,3837.572,3610.852,3837.826,3610.831,3838.12Zm-14.623-.025c.807-.089,1.5-.2,2.2-.238,1.545-.093,3.093-.148,4.639-.23a.934.934,0,0,0,.449-.146q10.6-7.087,21.174-14.2a16.733,16.733,0,0,0,2.186-1.925,2.762,2.762,0,0,0,.537-.932c.107-.257-.03-.462-.318-.511a1.5,1.5,0,0,0-.453-.013,9.26,9.26,0,0,0-3.611,1.411q-13.157,8.21-26.3,16.448C3596.574,3837.849,3596.435,3837.945,3596.208,3838.094Zm2.977-3.534,9.211-5.766a10.639,10.639,0,0,0-1.439-.17,42.546,42.546,0,0,0-7.625.091,8.7,8.7,0,0,0-5.5,2.671,61.751,61.751,0,0,0-5.264,6.421,6.447,6.447,0,0,0-1.122,2.369,3.312,3.312,0,0,0,.012,1.771,2.127,2.127,0,0,0,1.074-.953,3.877,3.877,0,0,1,.83-1.078,5.845,5.845,0,0,1,3.214-1.466,1.4,1.4,0,0,0,1.32-1.474,1.867,1.867,0,0,1,.046-.382.614.614,0,0,1,.595-.465.641.641,0,0,1,.68.34,2.413,2.413,0,0,1,.125.494c.438-.272.863-.563,1.312-.81a1.874,1.874,0,0,0,.9-1.081c.2-.588.37-1.186.561-1.777a.67.67,0,0,1,.881-.519.689.689,0,0,1,.447.957C3599.366,3833.976,3599.29,3834.218,3599.185,3834.56Zm1.027,12.686c-.877.049-1.714.113-2.551.137a3.032,3.032,0,0,0-2.162,1.034,4.735,4.735,0,0,0-1.165,2.1,3,3,0,0,0,.053,1.969,1.892,1.892,0,0,0,2.076,1.037c.782-.134,1.145-.59,1.169-1.541.018-.679-.011-1.36-.018-2.04-.006-.624.327-.906.935-.8.031.006.067-.008.015,0Zm-12.188-3.964c-.147.083-.26.142-.367.207-1.18.72-2.354,1.45-3.543,2.155a.526.526,0,0,0-.276.7,6.615,6.615,0,0,0,1.708,2.706.426.426,0,0,0,.617.044c1.193-.808,2.4-1.6,3.6-2.394.094-.062.181-.134.3-.222A4.449,4.449,0,0,1,3588.024,3843.282Zm6.3,4.291c-.488-.035-.921-.045-1.348-.1s-.848-.176-1.275-.249a.446.446,0,0,0-.286.075q-1.019.661-2.025,1.34a.49.49,0,0,0-.206.266,4.591,4.591,0,0,0-.138,1.006,1.269,1.269,0,0,0,1.346,1.386,1.873,1.873,0,0,0,1.734-1.732,5.992,5.992,0,0,1,.13-.832c.2-.813.686-.979,1.412-.443Zm-11.7-.841c-.58.69-1.124,1.3-1.625,1.943a11.178,11.178,0,0,0-.885,1.348c-.214.377-.112.552.316.574a8.964,8.964,0,0,0,1.225-.028,10.493,10.493,0,0,0,3.007-.649A7.516,7.516,0,0,1,3582.622,3846.732Z" transform="translate(-2886.33 -3241.369)" fill="#fff"/>
    <g id="Group_14" data-name="Group 14" transform="translate(628.389 574.878)">
      <path id="Path_37" data-name="Path 37" d="M3454.693,3810.8a6.1,6.1,0,0,1,2.7,1.938q2.8,2.733,5.586,5.475c.05.049.1.1.175.184l-1.191.781c-.589-.573-1.17-1.135-1.748-1.7-1.527-1.5-3.063-2.983-4.571-4.5a2.657,2.657,0,0,0-2.467-.771c-1.775.27-3.559.478-5.341.7-2.387.3-4.776.586-7.164.88l-7.164.885q-4.158.513-8.317,1.026-3.879.478-7.758.951-3.565.44-7.128.884-3.547.438-7.094.874l-8.317,1.023q-4.159.512-8.317,1.023-3.879.479-7.757.962-4.141.51-8.283,1.014-2.359.289-4.718.579c-.092.011-.181.038-.309.066.082.112.146.205.216.294q13.958,17.507,27.917,35.012,4.646,5.825,9.322,11.627a9.556,9.556,0,0,0,1.184,1.2,2.977,2.977,0,0,0,2.592.586c1.813-.323,3.62-.68,5.423-1.056q8.456-1.766,16.907-3.558,8.42-1.775,16.838-3.552l16.525-3.487c2.87-.605,5.736-1.223,8.611-1.8a4.062,4.062,0,0,1,1.281.038c.977.122,1.949.279,2.928.477l-3.073.65-17.18,3.63-16.528,3.487q-8.951,1.89-17.9,3.781c-4.246.894-8.493,1.791-12.745,2.655a11.543,11.543,0,0,1-2.307.21,4.072,4.072,0,0,1-3.159-1.687c-1.058-1.272-2.057-2.594-3.089-3.887q-7.733-9.7-15.469-19.388l-19.446-24.373c-.109-.136-.22-.271-.4-.488a5.715,5.715,0,0,0-.6.989,4.335,4.335,0,0,0,.615,4.439q13.284,16.6,26.544,33.223,4.893,6.125,9.8,12.235a17.132,17.132,0,0,0,1.5,1.584,3.629,3.629,0,0,0,3.355.953c1.991-.384,3.973-.821,5.957-1.249q9.579-2.065,19.156-4.141,9.836-2.13,19.671-4.263,10.37-2.242,20.74-4.479,4.454-.962,8.907-1.929c.193-.042.39-.067.6-.1.228.81,1.066.652,1.607,1.054l-9.23,2a8.216,8.216,0,0,1-.1.969,2.337,2.337,0,0,1-1.4,1.663,13.305,13.305,0,0,1-2.363.774q-10.491,2.343-20.992,4.643-11.907,2.626-23.813,5.252a10.991,10.991,0,0,1-3.237.381,3.252,3.252,0,0,1-2.985-1.8l-3.137.676c-2.936.633-5.868,1.282-8.808,1.893a5.478,5.478,0,0,1-3.391-.182,5.828,5.828,0,0,1-2.129-1.646c-1.482-1.776-2.938-3.574-4.385-5.378q-4.179-5.207-8.331-10.435a.442.442,0,0,0-.5-.182c-1.648.316-3.293.646-4.949.915a6.075,6.075,0,0,1-4.553-.878,4.015,4.015,0,0,1-1.7-2.3,2.663,2.663,0,0,1,1.948-3.468c.9-.242,1.843-.341,2.767-.5.527-.09,1.056-.171,1.635-.263-.109-.144-.176-.237-.248-.327q-9.619-12.044-19.237-24.09a5.3,5.3,0,0,1-1.024-3.716,4.908,4.908,0,0,1,.992-2.88,3.018,3.018,0,0,1,2.105-1.146q5.086-.621,10.17-1.253,4.438-.546,8.878-1.086,4.14-.51,8.281-1.028,4.718-.582,9.437-1.156t9.435-1.17q4.718-.582,9.436-1.156,4.438-.547,8.876-1.1t8.877-1.087q4.369-.536,8.736-1.077,3.058-.376,6.115-.752a1.443,1.443,0,0,0,.227-.066Zm-35.551,64.525a1.921,1.921,0,0,0,1.194.679,5.941,5.941,0,0,0,2.41-.119q10.5-2.306,20.994-4.624,12.592-2.779,25.181-5.573a7.3,7.3,0,0,0,1.627-.628.922.922,0,0,0,.486-.963Zm-32.815-16.231c-1.045-1.307-2.044-2.563-3.055-3.809a.417.417,0,0,0-.329-.09c-.986.142-1.97.292-2.953.454a16.139,16.139,0,0,0-1.928.375,1.3,1.3,0,0,0-.97,1.449,2.241,2.241,0,0,0,.722,1.374,3.871,3.871,0,0,0,2.83,1.135,15.428,15.428,0,0,0,2.3-.268C3384.048,3859.535,3385.149,3859.313,3386.327,3859.095Z" transform="translate(-3361.637 -3810.8)" fill="#94d8ff"/>
      <path id="Path_38" data-name="Path 38" d="M3736.522,3868.268c-.354.209-.719.441-1.1.637a.4.4,0,0,1-.341-.1c-1.156-1.117-2.3-2.244-3.451-3.37l-11.941-11.711q-1.157-1.134-2.317-2.263c-.09-.087-.189-.166-.306-.269l1.261-.759Z" transform="translate(-3612.674 -3838.793)" fill="#94d8ff"/>
    </g>
    <path id="Path_39" data-name="Path 39" d="M3491.8,3884.359a3.026,3.026,0,0,1-3.355-3.122,11.586,11.586,0,0,1,.458-3.4,6.979,6.979,0,0,0,.273-2.818,1.241,1.241,0,0,0-1.46-1.183,7.2,7.2,0,0,0-2.907.893c-1.762.906-3.5,1.863-5.241,2.806-.97.524-1.925,1.077-2.9,1.585a3.871,3.871,0,0,1-1.925.485,1.052,1.052,0,0,1-1.157-1.065,5.522,5.522,0,0,1,.278-1.752,20.567,20.567,0,0,1,3.5-5.987,27.183,27.183,0,0,1,4.663-4.68,4.149,4.149,0,0,0,1.261-1.449c.373-.777.035-1.354-.827-1.423a8.029,8.029,0,0,0-2.9.47,26.2,26.2,0,0,0-8.77,4.667,31.967,31.967,0,0,0-8.074,9.077c-.349.6-.653,1.219-.966,1.836-.216.425-.395.554-.667.437s-.313-.359-.1-.818a27.351,27.351,0,0,1,3.719-5.792,33.358,33.358,0,0,1,10.765-8.706,19.482,19.482,0,0,1,5.88-1.969,4.731,4.731,0,0,1,1.5.031,1.6,1.6,0,0,1,1.28,2.347,4.726,4.726,0,0,1-1.595,1.977,25.428,25.428,0,0,0-3.865,3.741,21.849,21.849,0,0,0-3.917,6.269,5.635,5.635,0,0,0-.3,1.189c-.08.568.23.865.769.687a12.872,12.872,0,0,0,2.033-.857c1.892-1.015,3.751-2.09,5.639-3.11a14.953,14.953,0,0,1,4.066-1.635,4.546,4.546,0,0,1,.873-.1,2.018,2.018,0,0,1,2.181,1.928,8.963,8.963,0,0,1-.34,3.341,9.572,9.572,0,0,0-.382,2.952,2.2,2.2,0,0,0,2.655,2.281,16.83,16.83,0,0,0,1.951-.427c.091-.02.178-.057.268-.084a.391.391,0,0,1,.543.246.4.4,0,0,1-.274.556A8.485,8.485,0,0,1,3491.8,3884.359Z" transform="translate(-2803.32 -3272.37)" fill="#fff"/>
  </g>
</svg>
