<svg xmlns="http://www.w3.org/2000/svg" width="115.115" height="64.336" viewBox="0 0 115.115 64.336">
  <g id="circle-icon-33" transform="translate(-925.584 -573.44)">
    <g id="Group_19" data-name="Group 19" transform="translate(-4815.05 -4249.439)">
      <g id="Group_17" data-name="Group 17" transform="translate(5755.403 4826.262)">
        <path id="Path_42" data-name="Path 42" d="M5839.754,4887.688q-20.495,0-40.99.013a1.737,1.737,0,0,1-1.8-1.808q.018-24.144.008-48.288a1.652,1.652,0,0,1,1.832-1.827h81.917a1.636,1.636,0,0,1,1.813,1.806q0,24.16.011,48.32a1.744,1.744,0,0,1-1.8,1.8Q5860.249,4887.671,5839.754,4887.688Zm0-.754h40.9c.848,0,1.133-.284,1.133-1.129v-48.132c0-.841-.289-1.128-1.134-1.128h-81.793c-.816,0-1.124.3-1.124,1.115q0,24.081,0,48.163c0,.81.305,1.111,1.125,1.111Z" transform="translate(-5796.968 -4835.779)" fill="#fff"/>
        <path id="Path_43" data-name="Path 43" d="M5966.41,4994.3H5955.5a2.08,2.08,0,0,1-.345-.013.3.3,0,0,1-.28-.38.762.762,0,0,1,.29-.348c.061-.046.183-.014.277-.014h21.982c.073,0,.147,0,.22,0a.342.342,0,0,1,.357.361.349.349,0,0,1-.362.389c-.1.005-.209,0-.314,0Z" transform="translate(-5913.467 -4952.178)" fill="#fff"/>
        <path id="Path_44" data-name="Path 44" d="M5871.214,4993.543h10.16a.349.349,0,0,1,.391.361.355.355,0,0,1-.391.393c-.083,0-.167,0-.251,0h-19.88a2.71,2.71,0,0,1-.345-.011c-.211-.026-.346-.176-.3-.364a.765.765,0,0,1,.308-.366c.069-.05.2-.015.308-.015Z" transform="translate(-5843.908 -4952.173)" fill="#fff"/>
        <path id="Path_45" data-name="Path 45" d="M5953.925,4906.063q-4.718,0-9.438,0c-.122,0-.286.011-.358-.059a.54.54,0,0,1-.162-.4c.014-.108.165-.215.279-.284.069-.042.184-.015.278-.015h18.813c.094,0,.215-.032.277.013.122.088.3.222.293.333a.675.675,0,0,1-.269.392c-.061.053-.2.017-.306.017Z" transform="translate(-5905.426 -4887.071)" fill="#fff"/>
        <path id="Path_46" data-name="Path 46" d="M5831.185,4954.85h-8.84c-.115,0-.257.034-.339-.021-.123-.08-.276-.223-.281-.344s.138-.272.249-.375c.053-.05.18-.025.274-.025q8.935,0,17.868,0c.255,0,.5.011.541.338a.341.341,0,0,1-.318.421,2.591,2.591,0,0,1-.314.008Z" transform="translate(-5815.234 -4923.064)" fill="#fff"/>
        <path id="Path_47" data-name="Path 47" d="M5871.4,4905.3h8.526c.1,0,.234-.035.309.013.125.081.3.218.3.328,0,.136-.147.291-.267.4-.061.053-.2.018-.306.018h-17.114a1.6,1.6,0,0,1-.282-.007.345.345,0,0,1-.312-.4.333.333,0,0,1,.338-.343c.094-.005.188,0,.283,0Z" transform="translate(-5845.135 -4887.068)" fill="#fff"/>
        <path id="Path_48" data-name="Path 48" d="M5854.094,4916.936q4.149,0,8.3,0c.233,0,.45.016.5.3a.353.353,0,0,1-.347.451c-.083.006-.167,0-.251,0h-16.41c-.073,0-.146,0-.22,0a.343.343,0,0,1-.391-.357.355.355,0,0,1,.389-.4c.534,0,1.068,0,1.6,0Z" transform="translate(-5832.614 -4895.659)" fill="#fff"/>
        <path id="Path_49" data-name="Path 49" d="M5852.64,5005.21h6.889c.328,0,.537.149.475.385a.805.805,0,0,1-.324.358c-.062.045-.184.012-.277.012h-13.527c-.063,0-.126,0-.189,0-.275-.013-.449-.167-.423-.4a.369.369,0,0,1,.424-.36c.807.008,1.615,0,2.422,0Z" transform="translate(-5832.6 -4960.789)" fill="#fff"/>
        <path id="Path_50" data-name="Path 50" d="M5827.613,4865.865h5.348c.094,0,.215-.033.277.013a.753.753,0,0,1,.3.338.306.306,0,0,1-.272.388,1.759,1.759,0,0,1-.345.017h-10.633c-.476,0-.63-.09-.637-.369s.152-.387.646-.387Z" transform="translate(-5815.18 -4857.97)" fill="#fff"/>
        <path id="Path_51" data-name="Path 51" d="M5852.5,4893.618h5.785c.374,0,.541.113.543.368s-.165.388-.529.388h-11.664c-.052,0-.1,0-.157,0a.342.342,0,0,1-.356-.388.328.328,0,0,1,.372-.364q.786,0,1.572,0Z" transform="translate(-5833.236 -4878.455)" fill="#fff"/>
        <path id="Path_52" data-name="Path 52" d="M5913.455,4893.586h5.784c.084,0,.193-.031.247.009.119.092.285.215.294.335s-.135.271-.234.387c-.034.04-.14.023-.212.023h-11.821c-.264,0-.424-.121-.416-.4.008-.259.166-.361.416-.359.66,0,1.32,0,1.98,0Z" transform="translate(-5878.224 -4878.422)" fill="#fff"/>
        <path id="Path_53" data-name="Path 53" d="M5851.249,4981.8h4.715a.718.718,0,0,1,.339.027c.118.071.272.2.275.313a.583.583,0,0,1-.223.388c-.081.066-.24.045-.364.045q-4.715,0-9.43,0c-.073,0-.146,0-.22,0-.24-.019-.4-.134-.4-.39a.36.36,0,0,1,.406-.38c.524-.005,1.048,0,1.572,0Z" transform="translate(-5833.101 -4943.515)" fill="#fff"/>
        <path id="Path_54" data-name="Path 54" d="M5904.718,4982.594h-4.809c-.258,0-.5-.033-.521-.36a.333.333,0,0,1,.3-.4,2.236,2.236,0,0,1,.313-.014h9.4c.472,0,.629.092.638.371s-.165.405-.639.405Z" transform="translate(-5872.535 -4943.531)" fill="#fff"/>
        <path id="Path_55" data-name="Path 55" d="M5826.469,4944.695h4.277c.357,0,.5.108.492.375s-.155.379-.5.379q-4.292,0-8.585,0c-.032,0-.063,0-.094,0-.247-.012-.4-.129-.4-.387s.151-.369.406-.369Q5824.268,4944.7,5826.469,4944.695Z" transform="translate(-5815.187 -4916.14)" fill="#fff"/>
        <path id="Path_56" data-name="Path 56" d="M5824.736,4857.173c-.869,0-1.738,0-2.606,0-.266,0-.458-.07-.477-.368-.015-.26.148-.39.485-.39q2.591,0,5.181,0c.336,0,.5.128.495.384s-.154.37-.5.37Z" transform="translate(-5815.181 -4851.007)" fill="#fff"/>
      </g>
      <g id="Group_18" data-name="Group 18" transform="translate(5740.634 4822.88)">
        <path id="Path_57" data-name="Path 57" d="M5751.719,4880.337v-.516q0-26.535,0-53.07a3.776,3.776,0,0,1,3.279-3.842,3.186,3.186,0,0,1,.5-.028h85.378a3.779,3.779,0,0,1,3.8,3.795q0,26.6,0,53.2v.465h.4q4.578,0,9.155,0a1.362,1.362,0,0,1,1.516,1.543,6.077,6.077,0,0,1-.3,1.628,5.47,5.47,0,0,1-5.356,3.707H5746.312a5.459,5.459,0,0,1-5.276-3.459,6.681,6.681,0,0,1-.4-1.861,1.363,1.363,0,0,1,1.505-1.558q3.729,0,7.456,0Zm91.683-.014c0-.118.013-.209.013-.3q0-26.691-.013-53.382a2.617,2.617,0,0,0-.321-1.193,2.555,2.555,0,0,0-2.459-1.322q-42.436.009-84.872.005c-.094,0-.188,0-.282,0a2.528,2.528,0,0,0-2.489,2.589q0,26.612,0,53.225v.376Zm-30.961,1.272c-.035.131-.06.232-.087.332a2.3,2.3,0,0,1-2.245,1.723q-11.152,0-22.3,0a2.249,2.249,0,0,1-2.205-1.679c-.086-.333-.228-.381-.53-.381q-21.03.011-42.06.006c-.241,0-.482-.015-.723-.006-.4.014-.5.14-.431.537a4.407,4.407,0,0,0,4.487,3.842q15.163-.034,30.326-.01h73.456a4.259,4.259,0,0,0,4.35-3.7c.1-.636.079-.667-.547-.663h-41.487Zm-.861.132h-25.3a4.566,4.566,0,0,0,.326.571,1.621,1.621,0,0,0,1.354.6q11.009-.006,22.018,0c.074,0,.147,0,.22,0A1.484,1.484,0,0,0,5811.58,4881.728Z" transform="translate(-5740.634 -4822.88)" fill="#ff968e"/>
      </g>
    </g>
  </g>
</svg>
