<svg xmlns="http://www.w3.org/2000/svg" xmlns:xlink="http://www.w3.org/1999/xlink" width="131" height="131" viewBox="0 0 131 131">
  <defs>
    <radialGradient id="radial-gradient" cx="0.5" cy="0.5" r="0.421" gradientUnits="objectBoundingBox">
      <stop offset="0" stop-color="#fff"/>
      <stop offset="0.533" stop-color="#fff"/>
      <stop offset="0.552" stop-color="#b2c4d4"/>
      <stop offset="1" stop-color="#003b72"/>
    </radialGradient>
  </defs>
  <g id="fotografija-icon" transform="translate(-3 -3.25)">
    <g id="Ellipse_15" data-name="Ellipse 15" transform="translate(9.472 9.722)" stroke="#707070" stroke-width="1" opacity="0.45" fill="url(#radial-gradient)">
      <circle cx="59.028" cy="59.028" r="59.028" stroke="none"/>
      <circle cx="59.028" cy="59.028" r="58.528" fill="none"/>
    </g>
    <g id="Group_58" data-name="Group 58" transform="translate(5 5.25)">
      <g id="Group_57" data-name="Group 57">
        <g id="Path_113" data-name="Path 113" transform="translate(-5 -5.25)" fill="#2d83bf">
          <path d="M 68.5 133.25 C 59.79293441772461 133.25 51.34580230712891 131.5444946289063 43.39326858520508 128.1808929443359 C 39.5711669921875 126.5643005371094 35.88481903076172 124.5634307861328 32.43661880493164 122.23388671875 C 29.02145195007324 119.9266510009766 25.81001853942871 117.276985168457 22.89151763916016 114.3584823608398 C 19.97301864624023 111.4399795532227 17.32335090637207 108.2285308837891 15.0161018371582 104.8133697509766 C 12.68656826019287 101.3651809692383 10.68570137023926 97.6788330078125 9.069101333618164 93.85671997070313 C 5.705501556396484 85.90418243408203 4.000001430511475 77.45706939697266 4.000001430511475 68.75 C 4.000001430511475 60.04293441772461 5.705501556396484 51.59579849243164 9.069101333618164 43.64326477050781 C 10.68570137023926 39.8211669921875 12.68656826019287 36.13481521606445 15.0161018371582 32.68661499023438 C 17.32335090637207 29.27145004272461 19.97301864624023 26.06001663208008 22.89151763916016 23.14151573181152 C 25.81001853942871 20.2230167388916 29.02145195007324 17.57335090637207 32.43661880493164 15.26609992980957 C 35.88481903076172 12.93656635284424 39.5711669921875 10.93570041656494 43.39326858520508 9.319100379943848 C 51.34580230712891 5.95550012588501 59.79293441772461 4.25 68.5 4.25 C 77.20706939697266 4.25 85.65418243408203 5.95550012588501 93.60671997070313 9.319100379943848 C 97.4288330078125 10.93570041656494 101.1151657104492 12.93656635284424 104.5633697509766 15.26611709594727 C 107.9785385131836 17.57335090637207 111.1899642944336 20.2230167388916 114.1084671020508 23.14151573181152 C 117.026969909668 26.06001663208008 119.6766357421875 29.2714672088623 121.9838714599609 32.6866340637207 C 124.3134002685547 36.13481521606445 126.3142700195313 39.8211669921875 127.9308700561523 43.64328384399414 C 131.2944793701172 51.59581756591797 132.9999694824219 60.04293441772461 132.9999694824219 68.75 C 132.9999694824219 77.45706939697266 131.2944793701172 85.90418243408203 127.9308700561523 93.85671997070313 C 126.3142700195313 97.6788330078125 124.3134002685547 101.3651809692383 121.9838714599609 104.8133697509766 C 119.6766357421875 108.2285308837891 117.026969909668 111.4399795532227 114.1084671020508 114.3584823608398 C 111.1899642944336 117.276985168457 107.9785385131836 119.9266510009766 104.5633697509766 122.23388671875 C 101.1151657104492 124.5634307861328 97.4288330078125 126.5643005371094 93.60671997070313 128.1808929443359 C 85.65418243408203 131.5444946289063 77.20706939697266 133.25 68.5 133.25 Z M 68.5 15.5421667098999 C 39.16110229492188 15.5421667098999 15.29216766357422 39.41109848022461 15.29216766357422 68.75 C 15.29216766357422 98.08889770507813 39.16110229492188 121.9578323364258 68.5 121.9578323364258 C 97.83889770507813 121.9578323364258 121.7078323364258 98.08889770507813 121.7078323364258 68.75 C 121.7078323364258 39.41109848022461 97.83889770507813 15.5421667098999 68.5 15.5421667098999 Z" stroke="none"/>
          <path d="M 68.5 5.25 C 33.42965698242188 5.25 5 33.67965698242188 5 68.75 C 5 103.8203277587891 33.42965698242188 132.25 68.5 132.25 C 103.5703277587891 132.25 131.9999694824219 103.8203277587891 131.9999694824219 68.75 C 131.9999694824219 33.67965698242188 103.5703277587891 5.25 68.5 5.25 M 68.5 122.9578170776367 C 38.56187438964844 122.9578170776367 14.29216766357422 98.68812561035156 14.29216766357422 68.75 C 14.29216766357422 38.81185150146484 38.56187438964844 14.54216003417969 68.5 14.54216003417969 C 98.43812561035156 14.54216003417969 122.7078247070313 38.81187438964844 122.7078247070313 68.75 C 122.7078247070313 98.68812561035156 98.43812561035156 122.9578170776367 68.5 122.9578170776367 M 68.5 3.25 C 77.34162139892578 3.25 85.9197998046875 4.982070922851563 93.99626159667969 8.398086547851563 C 97.87783813476563 10.03985595703125 101.6214752197266 12.07180023193359 105.1231689453125 14.43749237060547 C 108.5910797119141 16.78034210205078 111.8520736694336 19.47090911865234 114.8155670166016 22.43440246582031 C 117.7790756225586 25.39791107177734 120.4696197509766 28.65891265869141 122.8124923706055 32.12681579589844 C 125.1781692504883 35.62850952148438 127.2101135253906 39.37214660644531 128.8518676757813 43.25373077392578 C 132.2678985595703 51.33018493652344 133.9999694824219 59.90836334228516 133.9999694824219 68.75 C 133.9999694824219 77.59161376953125 132.2678985595703 86.16981506347656 128.8518676757813 94.24627685546875 C 127.2101135253906 98.12785339355469 125.1781692504883 101.8714752197266 122.8124923706055 105.3731689453125 C 120.4696197509766 108.8410720825195 117.7790756225586 112.1020736694336 114.8155670166016 115.0655822753906 C 111.8520736694336 118.0290908813477 108.5910797119141 120.7196350097656 105.1231689453125 123.0625076293945 C 101.6214752197266 125.4281997680664 97.87783813476563 127.4601440429688 93.99626159667969 129.1019134521484 C 85.9197998046875 132.5179290771484 77.34162139892578 134.25 68.5 134.25 C 59.65836334228516 134.25 51.08018493652344 132.5179290771484 43.00373077392578 129.1019134521484 C 39.12214660644531 127.4601440429688 35.37850952148438 125.4281997680664 31.87682342529297 123.0625076293945 C 28.40891265869141 120.7196502685547 25.14791107177734 118.0290908813477 22.18440246582031 115.0655822753906 C 19.22090911865234 112.1020736694336 16.53034973144531 108.8410949707031 14.18749237060547 105.3731689453125 C 11.82180023193359 101.8714752197266 9.78985595703125 98.12785339355469 8.148086547851563 94.24627685546875 C 4.732070922851563 86.16981506347656 3 77.59161376953125 3 68.75 C 3 59.90836334228516 4.732070922851563 51.33018493652344 8.148086547851563 43.25373077392578 C 9.78985595703125 39.37214660644531 11.82180023193359 35.62850952148438 14.18749237060547 32.12681579589844 C 16.53034973144531 28.65891265869141 19.22090911865234 25.39791107177734 22.18440246582031 22.43440246582031 C 25.14791107177734 19.47090911865234 28.40891265869141 16.78034210205078 31.87682342529297 14.43749237060547 C 35.37850952148438 12.07180023193359 39.12214660644531 10.03985595703125 43.00373077392578 8.398086547851563 C 51.08018493652344 4.982070922851563 59.65836334228516 3.25 68.5 3.25 Z M 68.5 120.9578170776367 C 97.28749084472656 120.9578170776367 120.7078247070313 97.53749084472656 120.7078247070313 68.75 C 120.7078247070313 39.96250915527344 97.28749084472656 16.54216003417969 68.5 16.54216003417969 C 39.71250915527344 16.54216003417969 16.29216766357422 39.96250915527344 16.29216766357422 68.75 C 16.29216766357422 97.53749084472656 39.71250915527344 120.9578170776367 68.5 120.9578170776367 Z" stroke="none" fill="#003b72"/>
        </g>
      </g>
    </g>
    <g id="Group_62" data-name="Group 62" transform="translate(34.659 34.91)">
      <g id="Group_61" data-name="Group 61">
        <path id="Path_115" data-name="Path 115" d="M59.859,26.269A33.84,33.84,0,1,0,93.7,60.109,33.84,33.84,0,0,0,59.859,26.269ZM43.836,58.688l-11.39-1.01a27.34,27.34,0,0,1,2.715-9.708l9.968,5.674A15.994,15.994,0,0,0,43.836,58.688Zm2.945-7.943-9.969-5.674A27.512,27.512,0,0,1,57.431,32.694l1.009,11.39A16.067,16.067,0,0,0,46.781,50.745ZM74.662,74.911c-1.4,1.4-3.271,1.792-4.185.879s-.519-2.787.879-4.185,3.271-1.792,4.184-.879S76.06,73.513,74.662,74.911ZM61.289,29.128a32.4,32.4,0,0,0-23.616,54.6,32.4,32.4,0,1,1,45.8-45.8A32.288,32.288,0,0,0,61.289,29.128Z" transform="translate(-26.018 -26.269)" fill="#003b72"/>
      </g>
    </g>
  </g>
</svg>
