<svg xmlns="http://www.w3.org/2000/svg" width="199.793" height="101.677" viewBox="0 0 199.793 101.677">
  <g id="grafickiDizajn-icon" transform="translate(0 0)">
    <g id="circle-icon-22">
      <path id="Path_87" data-name="Path 87" d="M631.5,591.652l-2.507,5.2v3.134l7.741,9.622,45.538,57.666,7.114,7.741h4.8l18.585-3.573,4.2,3.2,11.063-3.2,36.355-7.083,27.172-6.268,2.068-2.946v-2.476l14.009-2.319,6.9-17.551-1.88-14.2L785.7,591.652l-18.4-16.3-32.782,4.576Z" transform="translate(-628.084 -574.637)" fill="#2d83bf"/>
      <path id="Path_88" data-name="Path 88" d="M775.256,647.722l3.61-2.407L781.7,633.1l1.384-9.838v-2.8H780.1l-4.844-1.625-6.8-4.6-8.635-9.026-7.01-7.612-4.423-3.219,11.433-8.214,5.837-4.814v-3.61h-3.641l-9.206,5.416-14.051,8.6H717.7l-7.04,7.431-6.619,8.424v6.619l-6.409,4.6-4.393,4.423v2.407h4.393l6.409-2.407,2.437-1.384v3.791l2.588,1.414,4.031-1.414,1.384,1.414v2.587h7.04v-6.408l5.205-4.423,6.83,4.423,5.205,6.408L744,636.891l11.012,5.626,15.254,2.8h4.994Z" transform="translate(-595.682 -573.434)" fill="#fff"/>
      <path id="Path_36" data-name="Path 36" d="M3682.409,3863.564c-.458.719-.693.821-1.535.635q-4.445-.981-8.888-1.97c-1.024-.229-1.179-.111-1.186.945a73.073,73.073,0,0,1-4.643,24.156c-.183.513-.456.993-.667,1.5-.341.811-.2,1.133.665,1.337,1.46.347,2.929.652,4.394.968,2.174.468,4.349.928,6.522,1.4.739.159,1.072.634.921,1.281a1.013,1.013,0,0,1-1.371.787c-4.209-.906-8.422-1.8-12.622-2.737a12.136,12.136,0,0,1-2.479-.908c-.247-.118-.409-.551-.485-.87a9.259,9.259,0,0,1-.194-1.57c-.024-.4-.2-.527-.589-.564-2.5-.233-4.995-.451-7.483-.752a53.534,53.534,0,0,1-13.625-3.173,33.256,33.256,0,0,1-10.78-6.479,35.534,35.534,0,0,1-5.259-6.756,29,29,0,0,0-4.859-6.124c-.736-.658-1.546-1.231-2.3-1.866a1.339,1.339,0,0,0-1.187-.258,5.231,5.231,0,0,0-3.378,2.2,21.086,21.086,0,0,0-1.637,2.711,3.033,3.033,0,0,0-.274,1.326c-.032,2.638-1.465,4.311-3.921,4.525a4.807,4.807,0,0,1-5.311-3.835c-.067-.381-.1-.769-.159-1.265a4.569,4.569,0,0,1-4.887,1.5c-2.079-.519-2.81-2.062-2.878-4.133-.411.266-.759.465-1.076.7a13.589,13.589,0,0,1-7.058,2.465,34.318,34.318,0,0,1-3.477.022c-.169,0-.336-.117-.509-.133a1.143,1.143,0,0,0-.614.04.712.712,0,0,1-1.032-.147.69.69,0,0,1,.146-1.029.457.457,0,0,0,.17-.33,4.163,4.163,0,0,1,.563-2.747,16.267,16.267,0,0,1,4.486-5.372c1.73-1.354,3.663-2.447,5.508-3.652.234-.153.476-.3.733-.456-1.133-3.429.181-6.293,2.1-8.969a78.13,78.13,0,0,1,7.509-9.178,33.809,33.809,0,0,1,2.776-2.455,12.938,12.938,0,0,1,6.608-2.476,56.025,56.025,0,0,1,12.106-.247c1.708.117,3.414.277,5.122.4a1.05,1.05,0,0,0,.581-.172c2.646-1.661,5.276-3.35,7.929-5,3.476-2.162,6.948-4.333,10.466-6.427a13.27,13.27,0,0,1,5.255-1.859,5.05,5.05,0,0,1,1.161-.018,2.55,2.55,0,0,1,2.241,3.746,9.784,9.784,0,0,1-3.427,4.168c-1.837,1.373-3.765,2.625-5.673,3.9-1.658,1.108-3.354,2.161-5.011,3.27-.962.644-1.882,1.349-2.858,2.052.734.577,1.475,1.138,2.193,1.727a74.33,74.33,0,0,1,8.623,8.668,120.912,120.912,0,0,0,8.581,9.235,33.59,33.59,0,0,0,9.177,6.2c.208.093.42.179.615.261.055-.024.106-.03.115-.053a4.31,4.31,0,0,1,1.344-1.97,2.322,2.322,0,0,1,1.573-.272c4.053.784,8.061,1.787,12.1,2.666a1.572,1.572,0,0,1,1.066.686Zm-55.209-15.556a6.442,6.442,0,0,0,.938-.087q2.183-.515,4.361-1.071a1.03,1.03,0,0,1,1.367.644.958.958,0,0,1-.673,1.333,41.937,41.937,0,0,1-4.5,1.143,26.01,26.01,0,0,1-7.863-.234,48.914,48.914,0,0,0-11.729-.108c-2.547.263-5.091.543-7.638.8a10.235,10.235,0,0,0-4.443,1.258,3.968,3.968,0,0,0-1.85,4.739,4.977,4.977,0,0,0,3.174,2.978,12.485,12.485,0,0,0,5.321.665c2.7-.106,5.4-.3,8.1-.326a12.889,12.889,0,0,1,9.4,3.6,57.14,57.14,0,0,1,4.009,4.507,17.28,17.28,0,0,0,7.53,5.562,25.216,25.216,0,0,0,6.747,1.246,1.015,1.015,0,0,1,1.07,1.16,1.03,1.03,0,0,1-1.242.927c-.9-.076-1.8-.135-2.687-.255a18.9,18.9,0,0,1-9.7-3.881,2.541,2.541,0,0,0-.36-.183,24.808,24.808,0,0,0,6.256,5.955,42.327,42.327,0,0,0,17.624,6.375c2.882.415,5.782.712,8.676,1.044,1.717.2,3.438.358,5.229.543a79.61,79.61,0,0,0,4.437-21.456c-.149-.061-.228-.1-.313-.125a31.779,31.779,0,0,1-11.059-5.865,70.6,70.6,0,0,1-8.9-8.91,107.115,107.115,0,0,0-8.606-9.209c-1.517-1.367-3.134-2.625-4.688-3.918l-15.91,10.663c.333.052.535.094.739.115q1.976.2,3.953.392c.805.079,1.079-.138,1.2-.937.021-.14.033-.281.058-.42a.964.964,0,0,1,1.146-.838.915.915,0,0,1,.914.963C3627.284,3847.185,3627.231,3847.567,3627.2,3848.008Zm-22-.038c1.214-.135,2.261-.3,3.315-.358,2.325-.138,4.653-.223,6.979-.346a1.406,1.406,0,0,0,.675-.219q15.94-10.661,31.854-21.36a25.14,25.14,0,0,0,3.289-2.9,4.154,4.154,0,0,0,.809-1.4c.161-.386-.046-.694-.479-.769a2.255,2.255,0,0,0-.681-.019,13.924,13.924,0,0,0-5.432,2.122q-19.792,12.351-39.558,24.743C3605.753,3847.6,3605.543,3847.746,3605.2,3847.97Zm4.478-5.317,13.857-8.674a16.072,16.072,0,0,0-2.165-.255,64.077,64.077,0,0,0-11.471.137,13.084,13.084,0,0,0-8.28,4.019,92.976,92.976,0,0,0-7.919,9.659,9.7,9.7,0,0,0-1.687,3.564,4.987,4.987,0,0,0,.018,2.664,3.2,3.2,0,0,0,1.617-1.434,5.815,5.815,0,0,1,1.248-1.623,8.791,8.791,0,0,1,4.834-2.2,2.113,2.113,0,0,0,1.986-2.218,2.771,2.771,0,0,1,.069-.575.923.923,0,0,1,.894-.7.967.967,0,0,1,1.024.512,3.7,3.7,0,0,1,.188.744c.659-.41,1.3-.847,1.973-1.219a2.82,2.82,0,0,0,1.354-1.627c.3-.885.556-1.784.844-2.673a1.007,1.007,0,0,1,1.325-.78,1.036,1.036,0,0,1,.672,1.439C3609.953,3841.775,3609.839,3842.139,3609.68,3842.653Zm1.545,19.084c-1.319.073-2.578.17-3.838.205a4.566,4.566,0,0,0-3.252,1.555,7.127,7.127,0,0,0-1.753,3.162,4.5,4.5,0,0,0,.079,2.961,2.848,2.848,0,0,0,3.124,1.56c1.176-.2,1.722-.888,1.759-2.319.027-1.022-.017-2.046-.027-3.069-.009-.938.492-1.363,1.407-1.2.047.009.1-.012.022,0Zm-18.335-5.963c-.221.125-.39.213-.553.312-1.774,1.083-3.541,2.182-5.33,3.241a.791.791,0,0,0-.415,1.051,9.961,9.961,0,0,0,2.569,4.071.641.641,0,0,0,.929.067c1.794-1.216,3.61-2.4,5.417-3.6.141-.094.272-.2.449-.333A6.7,6.7,0,0,1,3592.89,3855.774Zm9.479,6.455c-.734-.053-1.386-.068-2.028-.158s-1.275-.264-1.918-.375a.669.669,0,0,0-.43.113q-1.532.993-3.047,2.014a.742.742,0,0,0-.309.4,6.929,6.929,0,0,0-.207,1.513,1.909,1.909,0,0,0,2.025,2.085,2.818,2.818,0,0,0,2.609-2.605,9.021,9.021,0,0,1,.2-1.252c.305-1.223,1.031-1.473,2.124-.666Zm-17.606-1.265c-.874,1.038-1.69,1.956-2.444,2.923a16.786,16.786,0,0,0-1.332,2.028c-.322.567-.169.829.475.863a13.43,13.43,0,0,0,1.843-.041,15.766,15.766,0,0,0,4.522-.977A11.305,11.305,0,0,1,3584.764,3860.965Z" transform="translate(-3482.616 -3815.105)" fill="#3c3c3c"/>
      <g id="Group_14" data-name="Group 14">
        <path id="Path_37" data-name="Path 37" d="M3501.625,3810.8c1.746.426,2.857,1.739,4.062,2.915q4.208,4.112,8.4,8.237c.075.074.146.152.263.277-.6.394-1.18.775-1.792,1.175-.886-.862-1.761-1.708-2.629-2.559-2.3-2.251-4.607-4.487-6.877-6.763a4,4,0,0,0-3.711-1.16c-2.669.406-5.354.719-8.034,1.054-3.591.449-7.184.882-10.777,1.324l-10.777,1.332q-6.255.772-12.511,1.543-5.834.718-11.671,1.431-5.362.661-10.723,1.33-5.336.659-10.672,1.314l-12.512,1.54q-6.257.769-12.512,1.539-5.835.722-11.669,1.447-6.229.768-12.46,1.526-3.55.435-7.1.872c-.137.017-.272.057-.464.1.123.168.219.31.325.443q21,26.336,42,52.669,6.99,8.763,14.024,17.491a14.366,14.366,0,0,0,1.781,1.808,4.475,4.475,0,0,0,3.9.881c2.728-.485,5.446-1.023,8.158-1.589q12.721-2.657,25.434-5.352,12.665-2.67,25.33-5.344l24.859-5.246c4.317-.911,8.629-1.84,12.954-2.713a6.115,6.115,0,0,1,1.928.057c1.469.183,2.932.42,4.4.718l-4.623.978-25.844,5.46q-12.431,2.624-24.863,5.247-13.466,2.843-26.932,5.689c-6.387,1.344-12.775,2.693-19.173,3.993a17.367,17.367,0,0,1-3.471.317,6.125,6.125,0,0,1-4.751-2.539c-1.591-1.915-3.094-3.9-4.648-5.848q-11.632-14.585-23.27-29.166l-29.254-36.665c-.164-.205-.331-.408-.594-.734a8.568,8.568,0,0,0-.9,1.487,6.523,6.523,0,0,0,.924,6.678q19.983,24.974,39.931,49.978,7.36,9.214,14.747,18.406a25.692,25.692,0,0,0,2.255,2.383,5.458,5.458,0,0,0,5.047,1.433c3-.577,5.978-1.235,8.961-1.878q14.41-3.107,28.818-6.23,14.8-3.2,29.592-6.413,15.6-3.373,31.2-6.739,6.7-1.447,13.4-2.9c.291-.063.587-.1.9-.153.342,1.217,1.6.98,2.417,1.585l-13.885,3.01a12.3,12.3,0,0,1-.156,1.458,3.516,3.516,0,0,1-2.112,2.5,20.043,20.043,0,0,1-3.554,1.164q-15.782,3.525-31.579,6.985-17.911,3.949-35.823,7.9a16.532,16.532,0,0,1-4.87.573c-1.94-.151-3.58-.807-4.491-2.713l-4.72,1.016c-4.416.953-8.827,1.929-13.25,2.848a8.247,8.247,0,0,1-5.1-.274,8.765,8.765,0,0,1-3.2-2.476c-2.23-2.671-4.42-5.376-6.6-8.091q-6.286-7.833-12.532-15.7a.665.665,0,0,0-.759-.274c-2.479.475-4.955.972-7.445,1.376a9.141,9.141,0,0,1-6.849-1.322,6.04,6.04,0,0,1-2.555-3.464,4.006,4.006,0,0,1,2.931-5.217c1.357-.363,2.772-.513,4.163-.752.793-.135,1.588-.257,2.459-.4-.163-.216-.265-.356-.373-.491q-14.47-18.119-28.939-36.239a7.964,7.964,0,0,1-1.54-5.59,7.386,7.386,0,0,1,1.493-4.333,4.544,4.544,0,0,1,3.168-1.723q7.65-.934,15.3-1.884,6.676-.821,13.355-1.633,6.228-.768,12.457-1.547,7.1-.875,14.2-1.738t14.193-1.76q7.1-.875,14.2-1.739,6.677-.822,13.352-1.655t13.354-1.635q6.572-.807,13.142-1.621,4.6-.567,9.2-1.131a2.091,2.091,0,0,0,.341-.1Zm-53.48,97.067a2.9,2.9,0,0,0,1.8,1.021,8.935,8.935,0,0,0,3.625-.179q15.793-3.47,31.582-6.956,18.943-4.18,37.881-8.383a10.972,10.972,0,0,0,2.448-.944,1.386,1.386,0,0,0,.731-1.448Zm-49.365-24.416c-1.572-1.967-3.075-3.856-4.6-5.731a.629.629,0,0,0-.5-.135c-1.483.214-2.964.439-4.443.683a24.281,24.281,0,0,0-2.9.565,1.947,1.947,0,0,0-1.46,2.179,3.364,3.364,0,0,0,1.086,2.066,5.824,5.824,0,0,0,4.257,1.709,23.276,23.276,0,0,0,3.455-.4C3395.351,3884.114,3397.007,3883.78,3398.78,3883.452Z" transform="translate(-3361.637 -3810.8)" fill="#003b72"/>
        <path id="Path_38" data-name="Path 38" d="M3746.337,3877.263c-.533.314-1.082.664-1.661.957a.593.593,0,0,1-.513-.148c-1.74-1.68-3.465-3.375-5.193-5.069l-17.963-17.618q-1.74-1.705-3.485-3.4c-.135-.132-.284-.25-.461-.4l1.9-1.142Z" transform="translate(-3560.027 -3832.923)" fill="#003b72"/>
      </g>
      <path id="Path_39" data-name="Path 39" d="M3507.418,3895.432c-3.02.076-4.879-1.672-5.048-4.7a17.415,17.415,0,0,1,.689-5.119,10.507,10.507,0,0,0,.411-4.239,1.867,1.867,0,0,0-2.2-1.779,10.827,10.827,0,0,0-4.373,1.344c-2.652,1.362-5.262,2.8-7.885,4.22-1.459.788-2.9,1.619-4.366,2.384a5.826,5.826,0,0,1-2.9.729,1.582,1.582,0,0,1-1.74-1.6,8.321,8.321,0,0,1,.418-2.636,30.944,30.944,0,0,1,5.27-9.006,40.916,40.916,0,0,1,7.015-7.041,6.231,6.231,0,0,0,1.9-2.179c.56-1.169.053-2.038-1.245-2.141a12.088,12.088,0,0,0-4.366.707,39.413,39.413,0,0,0-13.193,7.021,48.074,48.074,0,0,0-12.146,13.655c-.526.9-.984,1.835-1.454,2.762-.324.64-.594.834-1,.657-.428-.186-.47-.539-.146-1.231a41.126,41.126,0,0,1,5.594-8.713,50.182,50.182,0,0,1,16.194-13.1,29.3,29.3,0,0,1,8.845-2.961,7.094,7.094,0,0,1,2.26.046,2.413,2.413,0,0,1,1.926,3.53,7.106,7.106,0,0,1-2.4,2.974,38.285,38.285,0,0,0-5.813,5.628,32.887,32.887,0,0,0-5.893,9.431,8.5,8.5,0,0,0-.455,1.789c-.119.855.346,1.3,1.157,1.033a19.345,19.345,0,0,0,3.059-1.289c2.845-1.526,5.642-3.144,8.483-4.678a22.509,22.509,0,0,1,6.117-2.46,6.863,6.863,0,0,1,1.313-.144,3.036,3.036,0,0,1,3.282,2.9,13.488,13.488,0,0,1-.512,5.026,14.412,14.412,0,0,0-.574,4.441c.163,2.407,1.588,3.687,3.995,3.432a25.227,25.227,0,0,0,2.935-.643c.138-.03.268-.085.4-.127a.589.589,0,0,1,.817.369.6.6,0,0,1-.413.836A12.768,12.768,0,0,1,3507.418,3895.432Z" transform="translate(-3417.014 -3839.604)" fill="#fff"/>
      <path id="Path_89" data-name="Path 89" d="M762.015,637.965a65.8,65.8,0,0,0,3.83-13.706,120.464,120.464,0,0,0,1.2-17.041L754.2,605.134v10.423l-2.267,10.084-3.283,8.677Z" transform="translate(-567.738 -559.618)" fill="#3c3c3c"/>
    </g>
    <path id="Path_40" data-name="Path 40" d="M3516.364,3992.442a.592.592,0,0,1-.831.6c-.593-.167-1.174-.38-1.759-.577q-5.643-1.894-11.282-3.8a1.149,1.149,0,0,1-.638-.4.75.75,0,0,1,.094-.707.887.887,0,0,1,.746-.142c1.616.508,3.219,1.059,4.824,1.6q4.087,1.37,8.174,2.744C3516.037,3991.869,3516.38,3991.977,3516.364,3992.442Z" transform="translate(-3439.876 -3909.366)" fill="#fff"/>
    <path id="Path_41" data-name="Path 41" d="M3514.063,4000.558c-.018.624-.375.934-.793.8-1.755-.571-3.5-1.167-5.25-1.761a.578.578,0,0,1-.39-.8.6.6,0,0,1,.854-.379c.987.32,1.971.652,2.955.982.7.235,1.408.452,2.091.726A1.994,1.994,0,0,1,3514.063,4000.558Z" transform="translate(-3443.102 -3915.493)" fill="#fff"/>
  </g>
</svg>
