<svg xmlns="http://www.w3.org/2000/svg" width="138.212" height="158.14" viewBox="0 0 138.212 158.14">
  <g id="stamparija-icon" transform="translate(-31.817 -29.894)">
    <path id="Path_85" data-name="Path 85" d="M376.565,600.373l6.8,3.78,5.557,11.6v10.319l-5.557,4.271-6.8,2.041,9.072,3.251,5.065,6.577,2,7.069-2,10.319-5.065,4.007,26.989-10.319v66.263l66-27.216V626.077l1.777,1.777,13.608-5.557,4.8-6.539V608.2l-4.8-9.6-8.051-3.78,8.051-4.536,2.268-9.563-5.027-10.584-8.089-5.292-19.391,5.292L401.777,590.28l-29.748,10.092Z" transform="translate(-330.901 -533.491)" fill="#2d83bf"/>
    <path id="Path_112" data-name="Path 112" d="M67.277,86.139l5.086,3.734,5.116,9.791,1.176,14.5-1.176,49.013v18.641l64.86-26.491L143.721,87.7l-1.382-14.289-4.293-8.056-5.292-2.94Z" transform="translate(4.669 4.282)" fill="#fff"/>
    <g id="Layer_1" data-name="Layer 1" transform="translate(31.817 29.894)">
      <g id="Group_11" data-name="Group 11" transform="translate(0 0)">
        <path id="Path_17" data-name="Path 17" d="M5409.886,5842.149a17.037,17.037,0,0,1,5.887,4.047,22.858,22.858,0,0,1,5.923,11.622,21.021,21.021,0,0,1,.358,3.787,15.85,15.85,0,0,1-1.865,7.726l93.96-33.3-.008-.022a9.633,9.633,0,0,1,1.494-.395l.053-.01,3.735-1.321.582-.215c.592-.22,1.454-.538,1.525-.573a7.937,7.937,0,0,0,3.822-4.48,14.308,14.308,0,0,0,.522-7.523,18.29,18.29,0,0,0-4.708-9.386,11.024,11.024,0,0,0-7.676-3.759,7.254,7.254,0,0,0-1.124.083c-.166.025-.328.058-.486.095l-102,33.628Zm91.869,69.183v-.019l0,0C5501.753,5911.317,5501.755,5911.35,5501.755,5911.332Zm0-.019v0l0,0Zm-19.826-3.047v.021l.005,0c0-.007,0-.04,0-.023Zm0,.021v0h.005Zm-8.421,14.3v-.02l0,0c0,.006,0,.039,0,.021Zm0-.02v0l0,0Zm-19.826-3.045v.019l0,0C5453.685,5919.538,5453.684,5919.506,5453.683,5919.523Zm0,.019v0l0,0Zm18.9-34.753,0-.02,0,0c0,.008,0,.041,0,.023Zm0-.02v-.006l0,0Zm-18.052-3.753v.021l0,0c0-.006,0-.039,0-.022Zm0,.021v0h0Zm48.922-38.187a15.128,15.128,0,0,1,5.35,5.244,22.914,22.914,0,0,1,3.182,12.672l-.07,7.474,11.186-4.23h0c.067-.027.3-.122.606-.24.609-.241,1.5-.591,1.531-.608a8.268,8.268,0,0,0,3.844-4.6,14.407,14.407,0,0,0,.523-7.545,17.729,17.729,0,0,0-4.7-9.249,10.7,10.7,0,0,0-7.654-3.56,7.114,7.114,0,0,0-.86.071l-12.939,4.573Zm8.435,28.347-.6,65.238-68.527,27.286c.157-22.177.446-44.4.533-66.585l-24.553,9.283a10.071,10.071,0,0,1-.943.357l-.36.137-.01-.025c-.3.082-.6.153-.9.211a10.624,10.624,0,0,1-1.679.172,14.456,14.456,0,0,1-10.4-4.691,22.224,22.224,0,0,1-5.934-11.494,21.075,21.075,0,0,1-.348-3.3,15.87,15.87,0,0,1,2.338-9.059,10.568,10.568,0,0,1,5.92-4.518l.4-.141a16.935,16.935,0,0,1-6.116-4.137,22.842,22.842,0,0,1-5.922-11.621,20.979,20.979,0,0,1-.358-3.788,15.384,15.384,0,0,1,2.4-8.6,10.254,10.254,0,0,1,5.888-4.316h0l107.738-35.521-.005-.015q.275-.092.557-.167l.021-.008v0c.3-.079.6-.143.914-.192a10.04,10.04,0,0,1,1.556-.125,13.739,13.739,0,0,1,9.662,4.611,21.1,21.1,0,0,1,5.441,10.82,17.021,17.021,0,0,1-.662,8.972,10.658,10.658,0,0,1-5.193,5.989c-.106.054-.5.2-.941.368a15.452,15.452,0,0,1,5.075,3.491,20.531,20.531,0,0,1,5.453,10.706,17.115,17.115,0,0,1-.663,8.979,10.989,10.989,0,0,1-5.172,6.092c-.138.071-.581.251-1.05.438l.008.021-1.284.486h0l-12.271,4.641Zm-68.588,22.989q.014-4.677.015-9.353c.046-4.855-.927-9.069-2.878-12.111a10.342,10.342,0,0,0-7.614-4.912l-17.861,6.312c-.3.122-.6.229-.913.323l-.375.131,0-.007-.063.022a16.516,16.516,0,0,1,5.884,3.9,22.225,22.225,0,0,1,5.934,11.494,20.956,20.956,0,0,1,.347,3.3,16.286,16.286,0,0,1-1.837,8.222l19.364-7.322Zm-6.054-27.939a13.386,13.386,0,0,1,5.511,4.985c2.24,3.5,3.361,8.236,3.309,13.622l-.528,74.8,63.011-25.09.683-73.86a20.148,20.148,0,0,0-2.771-11.15,11.32,11.32,0,0,0-6.959-5.3l-62.254,22Zm-26.306,17.55a5.941,5.941,0,0,1,4.291,1.9,8.678,8.678,0,0,1,2.319,4.487,8.3,8.3,0,0,1,.135,1.291,6.444,6.444,0,0,1-.96,3.675,4.538,4.538,0,0,1-3.007,2.055,4.439,4.439,0,0,1-.727.073,5.93,5.93,0,0,1-4.291-1.9,8.677,8.677,0,0,1-2.318-4.487,8.143,8.143,0,0,1-.136-1.292,6.443,6.443,0,0,1,.961-3.674,4.536,4.536,0,0,1,3.007-2.053,4.667,4.667,0,0,1,.726-.075Zm2.338,3.844a3.237,3.237,0,0,0-2.272-1.091,1.777,1.777,0,0,0-.295.03,1.829,1.829,0,0,0-1.193.845,3.709,3.709,0,0,0-.518,2.109,5.392,5.392,0,0,0,.092.86,5.876,5.876,0,0,0,1.563,3.04,3.235,3.235,0,0,0,2.272,1.093,1.779,1.779,0,0,0,.294-.031,1.83,1.83,0,0,0,1.194-.846,3.7,3.7,0,0,0,.518-2.107,5.529,5.529,0,0,0-.092-.861,5.876,5.876,0,0,0-1.563-3.041Zm3.584,16.542.828-.313a8.079,8.079,0,0,0,3.437-3.023,13.131,13.131,0,0,0,1.894-7.493,18.25,18.25,0,0,0-.3-2.865,19.425,19.425,0,0,0-5.178-10.049,11.765,11.765,0,0,0-8.381-3.881,8.137,8.137,0,0,0-1.247.128,7.757,7.757,0,0,0-5.1,3.547,13.112,13.112,0,0,0-1.9,7.492,18.026,18.026,0,0,0,.305,2.865,19.423,19.423,0,0,0,5.176,10.049,11.755,11.755,0,0,0,8.383,3.88,7.9,7.9,0,0,0,1.245-.129,7.166,7.166,0,0,0,.841-.207Zm-3.832-32.312,1.088-.386a7.756,7.756,0,0,0,3.243-2.807,12.664,12.664,0,0,0,1.927-7.071,18.274,18.274,0,0,0-.3-3.291,20.052,20.052,0,0,0-5.188-10.2c-2.452-2.532-5.447-4.1-8.4-4.1a7.886,7.886,0,0,0-1.416.121,7.476,7.476,0,0,0-4.87,3.313,12.659,12.659,0,0,0-1.927,7.07,18.249,18.249,0,0,0,.3,3.292,20.055,20.055,0,0,0,5.188,10.2c2.453,2.531,5.449,4.1,8.4,4.1a7.777,7.777,0,0,0,1.416-.123c.182-.032.363-.074.539-.12Zm-5.789-20.574a6.056,6.056,0,0,1,4.268,2,8.9,8.9,0,0,1,2.308,4.523,8.21,8.21,0,0,1,.144,1.484,6.271,6.271,0,0,1-.995,3.5,4.437,4.437,0,0,1-2.91,1.951,4.639,4.639,0,0,1-.83.079,6.065,6.065,0,0,1-4.268-2,8.9,8.9,0,0,1-2.308-4.523,8.172,8.172,0,0,1-.144-1.484,6.271,6.271,0,0,1,.995-3.5,4.441,4.441,0,0,1,2.91-1.951,4.526,4.526,0,0,1,.83-.079Zm2.293,3.922a3.351,3.351,0,0,0-2.293-1.158,2.112,2.112,0,0,0-.333.023,1.736,1.736,0,0,0-1.118.776,3.531,3.531,0,0,0-.52,1.972,5.475,5.475,0,0,0,.09.988,6.073,6.073,0,0,0,1.573,3.1,3.352,3.352,0,0,0,2.293,1.157,1.975,1.975,0,0,0,.333-.024,1.733,1.733,0,0,0,1.119-.774,3.547,3.547,0,0,0,.519-1.973,5.475,5.475,0,0,0-.089-.988,6.07,6.07,0,0,0-1.574-3.1Z" transform="translate(-5394.419 -5805.581)" fill="#003b72"/>
      </g>
    </g>
    <g id="Layer_2" data-name="Layer 2" transform="translate(84.199 73.702)">
      <g id="Group_12" data-name="Group 12" transform="translate(0 0)">
        <path id="Path_18" data-name="Path 18" d="M5639.683,6029.622a.861.861,0,0,1-.567-1.626l50.295-18.209a.861.861,0,0,1,.566,1.625Z" transform="translate(-5638.538 -6009.739)" fill="#2a2a2a"/>
        <path id="Path_19" data-name="Path 19" d="M5651.794,6044.9a.862.862,0,0,1-.587-1.62l50.485-18.32a.861.861,0,0,1,.586,1.619l-50.485,18.321Z" transform="translate(-5648.044 -6021.65)" fill="#2a2a2a"/>
        <path id="Path_20" data-name="Path 20" d="M5662.284,6062.106a.861.861,0,0,1-.606-1.612l50.093-18.85a.861.861,0,1,1,.607,1.612Z" transform="translate(-5656.274 -6034.753)" fill="#2a2a2a"/>
        <path id="Path_21" data-name="Path 21" d="M5711.713,6386.766a.86.86,0,1,1,.636,1.6l-50.736,20.21a.86.86,0,0,1-.634-1.6Z" transform="translate(-5655.737 -6305.818)" fill="#2a2a2a"/>
        <path id="Path_22" data-name="Path 22" d="M5712.156,6366.824a.86.86,0,0,1,.635,1.6l-50.735,20.209a.86.86,0,0,1-.635-1.6Z" transform="translate(-5656.085 -6290.153)" fill="#2a2a2a"/>
        <path id="Path_23" data-name="Path 23" d="M5712.6,6346.882a.859.859,0,0,1,.634,1.6L5662.5,6368.69a.861.861,0,1,1-.635-1.6Z" transform="translate(-5656.43 -6274.491)" fill="#2a2a2a"/>
        <path id="Path_24" data-name="Path 24" d="M5713.037,6326.94a.86.86,0,1,1,.633,1.6l-50.734,20.21a.86.86,0,1,1-.633-1.6Z" transform="translate(-5656.775 -6258.829)" fill="#2a2a2a"/>
        <path id="Path_25" data-name="Path 25" d="M5817.7,6244.574a1.176,1.176,0,0,0-.4-.519,1.134,1.134,0,0,0-.649-.213,1.223,1.223,0,0,0-.485.09l-20.889,8.322h0a1.6,1.6,0,0,0-.731.615,1.721,1.721,0,0,0-.282.888l-.26,11.786a1.363,1.363,0,0,0,.092.526,1.153,1.153,0,0,0,.4.519,1.12,1.12,0,0,0,.647.216,1.27,1.27,0,0,0,.488-.091l20.887-8.323a1.612,1.612,0,0,0,.732-.614,1.72,1.72,0,0,0,.28-.888l.261-11.786A1.368,1.368,0,0,0,5817.7,6244.574Zm-1.886,12.247.242-10.992h0Z" transform="translate(-5760.647 -6193.608)" fill="#2a2a2a"/>
        <path id="Path_26" data-name="Path 26" d="M5686.059,6297.027a1.171,1.171,0,0,0-.4-.52,1.148,1.148,0,0,0-.646-.214,1.256,1.256,0,0,0-.487.092l-20.888,8.322a1.608,1.608,0,0,0-.732.613,1.738,1.738,0,0,0-.281.888l-.261,11.786a1.343,1.343,0,0,0,.093.528,1.16,1.16,0,0,0,.4.519,1.123,1.123,0,0,0,.647.214,1.221,1.221,0,0,0,.488-.091l20.886-8.322a1.605,1.605,0,0,0,.733-.613,1.728,1.728,0,0,0,.281-.887l.26-11.787A1.332,1.332,0,0,0,5686.059,6297.027Zm-21.956,20.242,20.312-18.988Z" transform="translate(-5657.253 -6234.805)" fill="#2a2a2a"/>
        <path id="Path_27" data-name="Path 27" d="M5665.382,6236.579a.86.86,0,0,1-.635-1.6l49.937-19.9a.86.86,0,0,1,.634,1.6l-49.936,19.9Z" transform="translate(-5658.696 -6170.97)" fill="#2a2a2a"/>
        <path id="Path_28" data-name="Path 28" d="M5665.821,6216.636a.86.86,0,1,1-.635-1.6l49.936-19.9a.86.86,0,1,1,.635,1.6l-49.936,19.9Z" transform="translate(-5659.042 -6155.305)" fill="#2a2a2a"/>
        <path id="Path_29" data-name="Path 29" d="M5666.261,6196.694a.861.861,0,0,1-.634-1.6l49.937-19.9a.86.86,0,1,1,.634,1.6l-49.937,19.9Z" transform="translate(-5659.388 -6139.643)" fill="#2a2a2a"/>
        <path id="Path_30" data-name="Path 30" d="M5666.7,6176.752a.86.86,0,1,1-.633-1.6l49.935-19.9a.86.86,0,0,1,.634,1.6Z" transform="translate(-5659.733 -6123.979)" fill="#2a2a2a"/>
        <path id="Path_31" data-name="Path 31" d="M5789.253,6134.947a.86.86,0,0,1-.634-1.6l23.788-9.483a.86.86,0,1,1,.635,1.6l-23.789,9.483Z" transform="translate(-5755.99 -6099.328)" fill="#2a2a2a"/>
        <path id="Path_32" data-name="Path 32" d="M5789.694,6115a.86.86,0,1,1-.636-1.6l23.789-9.484a.86.86,0,0,1,.634,1.6Z" transform="translate(-5756.334 -6083.665)" fill="#2a2a2a"/>
        <path id="Path_33" data-name="Path 33" d="M5790.134,6096.084a.86.86,0,1,1-.635-1.6l23.089-9.205a.861.861,0,0,1,.635,1.6l-23.09,9.2Z" transform="translate(-5756.68 -6069.024)" fill="#2a2a2a"/>
        <path id="Path_34" data-name="Path 34" d="M5790.574,6076.837a.86.86,0,0,1-.634-1.6l22.612-9.014a.86.86,0,0,1,.635,1.6l-22.613,9.014Z" transform="translate(-5757.026 -6054.056)" fill="#2a2a2a"/>
        <path id="Path_35" data-name="Path 35" d="M5688.246,6120.871a1.168,1.168,0,0,0-.4-.52,1.115,1.115,0,0,0-.646-.214,1.244,1.244,0,0,0-.487.09l-19.115,7.616h0a1.6,1.6,0,0,0-.731.613,1.722,1.722,0,0,0-.282.889l-.26,11.786a1.35,1.35,0,0,0,.091.526,1.181,1.181,0,0,0,.4.521,1.135,1.135,0,0,0,.648.214,1.242,1.242,0,0,0,.487-.091l19.115-7.616a1.612,1.612,0,0,0,.731-.614,1.722,1.722,0,0,0,.281-.888l.261-11.786A1.344,1.344,0,0,0,5688.246,6120.871Zm-20.183,19.535Z" transform="translate(-5660.363 -6096.448)" fill="#2a2a2a"/>
      </g>
    </g>
  </g>
</svg>
