<svg xmlns="http://www.w3.org/2000/svg" width="62.292" height="66.35" viewBox="0 0 62.292 66.35">
  <g id="webdizajn" transform="translate(0 0.014)">
    <path id="path-1" d="M33.1,82.289A27.484,27.484,0,0,1,5.643,54.836a1.354,1.354,0,0,1,2.708,0,24.746,24.746,0,0,0,49.491,0,1.354,1.354,0,0,1,2.708,0A27.484,27.484,0,0,1,33.1,82.289Z" transform="translate(-1.822 -17.275)" fill="#003b72" fill-rule="evenodd"/>
    <path id="path-2" d="M59.875,94.688H4.354a1.354,1.354,0,0,1,0-2.708H59.875a1.354,1.354,0,0,1,0,2.708Z" transform="translate(-0.969 -29.706)" fill="#003b72" fill-rule="evenodd"/>
    <path id="path-3" d="M84,95.4h5.417V89.98H84Z" transform="translate(-27.125 -29.061)" fill-rule="evenodd"/>
    <path id="path-4" d="M81,54.4h5.417V48.983H81Z" transform="translate(-26.156 -15.822)" fill-rule="evenodd"/>
    <path id="path-5" d="M4,54.4H9.417V48.983H4Z" transform="translate(-1.292 -15.822)" fill-rule="evenodd"/>
    <path id="path-6" d="M0,95.4H5.417V89.98H0Z" transform="translate(0 -29.061)" fill-rule="evenodd"/>
    <path id="path-7" d="M36.154,68A19.785,19.785,0,1,1,55.941,48.213,19.808,19.808,0,0,1,36.154,68Zm0-36.862A17.077,17.077,0,1,0,53.232,48.213,17.1,17.1,0,0,0,36.154,31.135Z" transform="translate(-5.286 -9.184)" fill="#003b72" fill-rule="evenodd"/>
    <path id="path-8" d="M35,1.986V41.4l7.807,8.3,8.443-8.3V1.986Z" transform="translate(-11.302 -0.646)" fill="#2577ff" fill-rule="evenodd"/>
    <path id="path-9" d="M42.162,50.087h-.026a1.2,1.2,0,0,1-.959-.267L33.368,41.6A1.169,1.169,0,0,1,33,40.752V1.34A1.354,1.354,0,0,1,34.354-.014H50.6A1.354,1.354,0,0,1,51.958,1.34V40.752a1.356,1.356,0,0,1-.4.966l-8.443,8.139A1.244,1.244,0,0,1,42.162,50.087Zm-6.453-9.872,6.491,6.9,7.05-6.931V2.694H35.708Z" transform="translate(-10.656)" fill-rule="evenodd"/>
    <path id="path-10" d="M41,11.985h8.125V37.814l-4.062-2.781L41,37.814Z" transform="translate(-13.24 -3.875)" fill="#fff" fill-rule="evenodd"/>
    <path id="path-11" d="M48.479,38.522a1.349,1.349,0,0,1-.765-.237l-3.3-2.257-3.3,2.257A1.354,1.354,0,0,1,39,37.168V11.339a1.354,1.354,0,0,1,1.354-1.354h8.125a1.355,1.355,0,0,1,1.354,1.354V37.168a1.353,1.353,0,0,1-1.354,1.354Zm-4.062-5.489a1.351,1.351,0,0,1,.765.237l1.943,1.33V12.693H41.708V34.6l1.943-1.33A1.349,1.349,0,0,1,44.417,33.033Z" transform="translate(-12.594 -3.229)" fill-rule="evenodd"/>
    <path id="path-12" d="M35,1.986H51.25v6.77H35Z" transform="translate(-11.302 -0.646)" fill="#0db14b" fill-rule="evenodd"/>
    <path id="path-13" d="M50.6,9.464H34.354A1.354,1.354,0,0,1,33,8.11V1.34A1.354,1.354,0,0,1,34.354-.014H50.6A1.354,1.354,0,0,1,51.958,1.34V8.11A1.354,1.354,0,0,1,50.6,9.464Zm-14.9-2.708H49.25V2.694H35.708Z" transform="translate(-10.656)" fill-rule="evenodd"/>
    <path id="path-14" d="M50.51,61.982H35.967l6.954,7.687Z" transform="translate(-11.614 -20.02)" fill="#0db14b" fill-rule="evenodd"/>
    <path id="path-15" d="M42.275,69.138h-.03a1.227,1.227,0,0,1-.974-.326l-6.954-7.627a1.3,1.3,0,0,1-.234-1.428,1.327,1.327,0,0,1,1.238-.775H49.864a1.354,1.354,0,0,1,.964,2.305l-7.589,7.568A1.265,1.265,0,0,1,42.275,69.138Zm-3.9-7.448,3.946,4.362,4.307-4.362Z" transform="translate(-10.968 -19.051)" fill-rule="evenodd"/>
  </g>
</svg>
