<svg xmlns="http://www.w3.org/2000/svg" width="161.945" height="124.251" viewBox="0 0 161.945 124.251">
  <g id="webRazvoj-icon" transform="translate(0 -8.219)">
    <g id="Group_37" data-name="Group 37" transform="translate(0 17.272)">
      <path id="Path_99" data-name="Path 99" d="M998.533,770.581v70.932l3.385,2.3h113.767l2.165-2.3V770.581L1114.6,768.9H1001.919Z" transform="translate(-977.438 -768.278)" fill="#fff"/>
      <path id="Path_98" data-name="Path 98" d="M1018.418,877.1l-2.3,2.326v2.142H994.006l-3.385,2.3-19.345,19.023-1.843,3.086V909.8l3.524,3.846,5.988,2.3H1119.91l5.366-2.3,3.523-3.846v-3.823l-15.2-15.96-8.129-8.452h-22.73l-1.681-4.468Z" transform="translate(-968.443 -801.723)" fill="#2d83bf"/>
      <path id="Path_93" data-name="Path 93" d="M271.262,796.026a.338.338,0,0,1-.477-.477l3.472-3.472a.338.338,0,0,1,.477.477Zm-98.573-66.681a.338.338,0,0,1,.477.477l-7.206,7.207a.338.338,0,0,1-.478-.477Zm-3.629,0a.338.338,0,0,1,.478.477l-3.472,3.472a.338.338,0,0,1-.477-.477Zm21.509,71.02c-1.57.233-2.125,1.479-2.186,3.007H253.3c-.049-1.1-.725-3.007-2.075-3.007Zm-2.987.008-22.277-.034c-2.71-.307-4.941-1.869-5.026-4.783L160.3,728.3c0-2.561,1.482-4.494,4.156-4.494h22.327a.845.845,0,0,1,0,1.69H164.46c-1.724,0-2.47,1.188-2.47,2.8l-.026,67.21c.059,2.037,1.683,2.943,3.526,3.152l110.256.01c1.866-.191,3.546-1.09,3.606-3.159l-.026-67.21c0-1.616-.745-2.8-2.47-2.8l-21.867,0a.845.845,0,0,1,0-1.691l21.867,0c2.674,0,4.156,1.936,4.156,4.494l.026,67.256c-.085,2.961-2.379,4.514-5.126,4.793l-21.847.026a5.781,5.781,0,0,1,.924,3h20.84c1.982,0,3.632,1.671,4.938,2.958l18.063,17.82c2.86,2.506,3.838,5.5,1.882,8.835a10.565,10.565,0,0,1-3.916,3.665A19.494,19.494,0,0,1,287.2,839H154.131a19.334,19.334,0,0,1-9.372-2.256,10.638,10.638,0,0,1-4.011-3.7,6.4,6.4,0,0,1-.932-3.929c-.124-1.319.666-2.875,2.4-4.682,5.854-6.107,12.294-12.131,18.342-18.1,1.688-1.665,3.18-2.958,5.645-2.958h20.494a5.834,5.834,0,0,1,.888-3Zm18.3,27.2H234.53c1.188,0,2.455-.488,1.528-1.789L233.5,822.2c-.7-.978-1.691-1.04-2.819-1.04H209.73c-1.125,0-2.119.062-2.818,1.04l-2.558,3.585c-.924,1.3.343,1.789,1.53,1.789Zm0,1.014c-2.1,0-3.774-1.4-2.354-3.389l2.558-3.585c.911-1.278,2.156-1.466,3.642-1.466h20.951c1.487,0,2.731.189,3.642,1.466l2.558,3.585c1.422,1.993-.253,3.389-2.354,3.389Zm-40.8-11.912a.507.507,0,0,1,0-1.014h110.24a.507.507,0,0,1,0,1.014ZM287.2,837.309a17.809,17.809,0,0,0,8.755-2.127,8.809,8.809,0,0,0,3.369-3.167c-4.107,2.432-12.47,2.22-17.2,2.22H158.676c-4.316,0-12.766-.111-16.6-2.271a8.836,8.836,0,0,0,3.508,3.309,17.634,17.634,0,0,0,8.546,2.039q66.535,0,133.07,0Zm10.216-12.186L279.581,807.53c-1.048-1.035-2.279-2.408-3.841-2.47H166.133c-1.89,0-3.121,1.208-4.4,2.47l-18.29,18.055c-1.4,1.472-2.916,3.642-.392,4.984s7.8,1.972,15.624,1.972H282.082c4.556,0,10.89.16,15.151-1.414,4.156-1.53,2.4-3.815.181-6Zm-29.784-29.1a.338.338,0,0,1-.477-.477l7.206-7.207a.338.338,0,0,1,.478.478Z" transform="translate(-139.787 -723.806)" fill="#003b72"/>
    </g>
    <g id="Group_38" data-name="Group 38" transform="translate(30.854 -1)">
      <circle id="Ellipse_1" data-name="Ellipse 1" cx="37.12" cy="37.12" r="37.12" transform="translate(13.211 9.716)" fill="#60b0ec"/>
      <path id="Path_118" data-name="Path 118" d="M21.9,66.241,21.7,62.9a35.514,35.514,0,0,1,2.077-3.653,9.976,9.976,0,0,1,2.285-.572c.617.024,2.33,1.895,2.33,1.895s1.734,2.077,1.963,2.33a35.012,35.012,0,0,0,3.406,1.576L36.451,66.7c.137.113,3.406,3.2,3.406,3.2s3.2,1.165,3.4,1.234,3.653,1.007,3.882,1.076a22.659,22.659,0,0,1,1.576,3.036s-.939,3.361-1.028,3.5a8.751,8.751,0,0,1-2.58.613c-.48-.045-11.078-3.108-11.352-3.221s-9.985-6.555-9.985-6.555Z" transform="translate(0.911 4.772)" fill="#003b72"/>
      <path id="Path_117" data-name="Path 117" d="M51.5,11.3l1.086,1.606L54.029,14.1a22.724,22.724,0,0,1,1.195,2.483c0,.256,1.761,1.753,1.761,1.753l3.724,1.14,1.133,1.862.83,2.428L63.7,25.374l.621,1.916-1.652,1.342-2.327-2.583-1.963,2.583v2.638l2.327,1.963,1.5,1.086L61.019,36.29l-2.071-.931-1.963-1.04L55.223,36.29l2.227,1.552v2.327l.931,1.187h3.46l-2.118,2.273.621,1.04,1.086.822-2.483,1.552.776,3.778,2.483-.722,1.5-3.057,2.537-2.374L68.1,47.043l3.825-.877V44.979l-3.2-1.35v-1.6l3.771-.675,1.66.675,3.933-.675,1.032,2.692-3.158,2.118v3.158l-1.342.776-2.692-.776-4.6,2.638L61.841,54.08l-2.894,3-.566,6.827-1.916,4.135L57.45,69.6l2.273,1.141h3.569l4.4-1.862,3.724-1.707,1.552,1.187.776,3,4.345-5.33,4.965-11.017.512-8.844-3.77-14.9-5.64-8.534-9.83-7.968-10.3-4.034Z" transform="translate(3.786 0.146)" fill="#003b72"/>
      <path id="Path_116" data-name="Path 116" d="M46.012,35.146l2.193-1.4L50.1,31.975l2.558-1.517,1.462-2.01V26.073l-.859-2.686-1.636-1.7L48.2,21.01l-3.591-1.279L43.033,18.7l-3.783.612-.6-.612V15.894l-.74-1.215-1.517.484-3.107,2.805-2.741,2.44-3.417,2.43-5.236,6.579-3.171,6.826-1.946,5.967v7.31L18.718,53.6l1.224,2.312v2.321l1.946,1.215h2.686V58.236l-1.526-2.321-1.16-3.893-1.946-2.988V44.768l1.946-.667,1.16,3.289,1.033,3.289,1.526,1.343,1.517-1.343L26.522,48l4.02-3.9h1.709l2.613.667,1.955-.667.667-2.44h1.16l1.7,1.891,1.224-.612.42-1.882-1.645-2.074V35.146l-.6-.366-1.1.366-1.828-2.8-1.955,1.4-1.581,1.946-1.033-.548-.74-1.891.74-2.8,2.01-2.01h3.225l1.763,2.01,1.891-1.042,1.334-4.569,1.343-2.01,1.645,1.279.548,2.677-.548,4.7Z" transform="translate(0.435 0.527)" fill="#003b72"/>
      <path id="Path_96" data-name="Path 96" d="M253.8,577.822a37.894,37.894,0,1,0,37.893,37.893A37.888,37.888,0,0,0,253.8,577.822Zm-2,73.876a35.935,35.935,0,0,1-23.477-10.5q-.314-.314-.62-.637c-2.524-4.758,2.077-10.242,4.11-7.086,2.182,3.39,3.826,4,5.42,4.6,3.308,1.24,4.192,3.88,7.537,5.819,2.383,1.381,6.566,1.588,7.655,3.34C253.3,648.662,252.7,650.445,251.793,651.7Zm28.458-11.51c-.317.342-.64.68-.965,1.011A35.931,35.931,0,0,1,253.8,651.752c-.24,0-.475,0-.713-.008a4.9,4.9,0,0,0,.274-5.1c-1.466-2.364-5.3-2.123-8.043-3.714-3.442-2-4.014-4.511-7.707-5.9-1.421-.532-2.887-1.084-4.871-4.163-2.745-4.263-7.446,1.217-6.869,5.618A36.037,36.037,0,0,1,253.8,579.676a36.651,36.651,0,0,1,4.72.308,2.561,2.561,0,0,0,1.591,2.434,3.43,3.43,0,0,1,1.836,2.964c.218,1.766,1.692,2.162,3.309,2.6,1.5.4,3.15.843,3.492,2.734a8.962,8.962,0,0,0,1.3,2.853,7.5,7.5,0,0,1,.867,1.771c.22.8-.068,1.495-.861.736-.7-.674-1.288-2.145-3.011-1.265-1.865.954-2.323,3.783-1.426,5.544.88,1.727,3.164,1.863,3.314,3.051.082.628-.895,1.2-1.2.832-1.149-1.407-2.317-1.746-3.243-1.551a2.345,2.345,0,0,0-1.82,1.879,1.82,1.82,0,0,0,1.389,2.035c1.1.388.167.688.127,1.667-.065,1.712,1.09,2.117,2.253,2.162a9.727,9.727,0,0,0,1.214-.051c.809-.068,1.211-.065.452.489a5.492,5.492,0,0,0-1.044.835,1.21,1.21,0,0,0,.045,1.818c.623.648,1.415.484.031,1.132-1.5.7-1.211,2.089-1.019,3.15.314,1.749.7,3.173,3.028,2.072a3.91,3.91,0,0,0,2.168-2.451,6.56,6.56,0,0,1,1.6-2.813c.841-.854.66-.478.952.156a2.7,2.7,0,0,0,2.864,1.534c2.85-.21,4.37-2.024,2-3.334-.481-.269-2.527-.833-1.845-1.5.733-.725,2.943-1.237,3.685-.45,1.07,1.129,2.233.636,3.323.175.976-.413,1.5-.654,1.836.53.3,1.07.057,1.18-.934,1.554-1.613.608-1.658,1.86-1.7,3.023-.068,1.839-.905,1.783-2.737,1.5-2.368-.362-5.051,2.173-7.492,2.887-7.514,2.2-7.6,6.082-7.673,9.642a7.742,7.742,0,0,1-.843,4.223c-3.424,5.057,3.258,6.342,7.254,5.292,2.157-.566,4.469-2.08,6.538-3.068C279.956,635.912,280.562,638.855,280.251,640.188Zm1.194-1.339c-.17-1.925-1.565-4.123-3.761-3.076-1.976.939-4.3,2.462-6.337,3-2.655.7-8.838.509-6.059-3.6.959-1.421,1-3.082,1.033-4.823.068-3.172.142-6.628,6.875-8.6,2.1-.618,5.278-3.119,7.016-2.853,2.621.4,3.911.119,4.011-2.561.034-.906-.059-1.917,1.611-2.414,1.28-.246,1.2-1.693,1-2.428-.551-2.089-1.636-2.052-3.359-1.322-.748.317-1.545.654-2.083.085-1.183-1.251-4.107-.727-5.273.419-1.777,1.749.92,2.618,2.157,3.289.721.391.7.566-.063.841a9.38,9.38,0,0,1-1.542.393,1.637,1.637,0,0,1-1.856-1.067c-.578-1.574-1.639-1.359-2.68-.3a7.873,7.873,0,0,0-1.905,3.388,2.759,2.759,0,0,1-1.551,1.65c-1.48.7-1.277-.224-1.463-1.262-.139-.773-.306-1.7.866-2.177s1.429-.967,1.214-1.5a1.831,1.831,0,0,0-.826-.778c-.414-.26-.872-.427-.394-.909,1.308-.88,2.029-1.553,2.052-2.08.034-.755-.776-1.041-2.561-.892a8.741,8.741,0,0,1-1.081.052c-.608-.023-1.217-.215-1.186-1.011.04-.985,1.136-1.876-.835-2.717-.388-.163-.778-.331-.7-.857a1.234,1.234,0,0,1,.948-.962c.563-.12,1.321.144,2.157,1.166,1.047,1.282,3.373.008,3.158-1.676-.252-2.007-2.638-1.885-3.422-3.419-.62-1.217-.368-3.379.939-4.047.9-.461,1.121.512,1.823,1.166,1.424,1.33,3.193.17,2.592-1.97a8.239,8.239,0,0,0-.956-2,8.364,8.364,0,0,1-1.169-2.485c-.467-2.59-2.473-3.128-4.3-3.614-1.237-.331-2.367-.634-2.491-1.656a4.369,4.369,0,0,0-2.355-3.77,1.737,1.737,0,0,1-1.036-1.324,36.048,36.048,0,0,1,21.781,58.695Z" transform="translate(-203.65 -568.603)"/>
      <path id="Path_97" data-name="Path 97" d="M255.779,591.681a11.238,11.238,0,0,1-6.054-2.094c-2.488-1.576-5.354,1.7-5.054-1.143a3.964,3.964,0,0,0-.376-2.723c-2.055-2.644-6.572,4.3-9.329,5.762-4.183,2.208-8.173,7.749-10.715,13.785-2.2,5.231-4.707,14.058-.778,19.057a5.537,5.537,0,0,1,1.324,3.8c.073,1.389,1.384,2.349,2.731,2.731,2.624.742,4.441-.753,2.386-3.235a7.869,7.869,0,0,1-1.726-3.577,8.254,8.254,0,0,0-1.7-3.637,4.515,4.515,0,0,1-.4-3.818c.077-.241.362-1.135.745-.815.5.422,1.075,1.678,1.616,4.251.359,1.721.62,3.365,2.864,3.042,1.5-.214,1.4-1.621,1.313-2.909-.076-1.081,2.145-3.15,3.252-4.2.99-.943,1.913-.583,2.844-.218,2.131.833,4.152.875,4.333-1.955.025-.4.048-.755.252-.813.575-.158,1.376,1.421,1.984,1.826,1.294.864,3.691-1.008,2.035-3.595a5.9,5.9,0,0,1-1.123-3.514c0-.929.008-3.332-1.692-2.361-.317.215-.475.077-.594-.552-.377-1.689-1.223-2.074-2.318-1.667a8.226,8.226,0,0,0-2.757,2.312c-.905,1.036-1.138.2-1.22-.778-.249-3,1.7-5.791,5.072-4.736,1.621.51,2.307,3.895,4.545-.39a10.108,10.108,0,0,0,.817-2.349c1.254-5.349,3.448-1.6,2.913,1.573-.19,1.135-.34,2.129-.453,3s-.181,1.577-.212,2.162c-.238,4.415,2.315,2.445,4.194.642a9.91,9.91,0,0,1,2.36-1.908C262.846,600.3,259.962,592.014,255.779,591.681Zm.671,9.923a10.388,10.388,0,0,0-2.729,2.142c-1.545,1.483-2.423,2.349-2.315.212.031-.569.1-1.257.2-2.08s.255-1.8.45-2.955c.861-5.1-3.569-8.493-5.089-2.009a8.846,8.846,0,0,1-.719,2.088c-1.276,2.827-1.092.515-3.232-.155-4.214-1.322-6.826,2.074-6.51,5.886.167,2,1.526,3.292,3.161,1.416a7.356,7.356,0,0,1,2.31-2c.37-.136.673.076.848.863.343,1.536.937,2,1.514,1.709.98-.572.736-.142.742.965a6.9,6.9,0,0,0,1.3,4.115c.956,1.5-.267,2.219-.49,2.069-.874-.58-1.257-2.42-2.892-1.967-.965.269-1.013,1-1.064,1.814-.118,1.9-1.525,1.5-2.819.99-1.262-.493-2.51-.982-4.013.448-1.63,1.548-3.733,3.153-3.6,5.08.057.8.117,1.667-.362,1.735-1.282.184-1.432-1.249-1.621-2.17-.6-2.851-1.317-4.313-1.99-4.876-1.2-1.005-2.159.212-2.513,1.33a5.7,5.7,0,0,0,.594,4.848,7.374,7.374,0,0,1,1.486,3.213,8.8,8.8,0,0,0,1.947,4.016c1.3,1.565.331,1.9-1.231,1.458-.954-.269-1.876-.883-1.922-1.718a6.462,6.462,0,0,0-1.559-4.435c-3.6-4.579-1.079-13.172.928-17.938,2.451-5.824,6.261-11.147,10.211-13.234,1.908-1.008,7.082-7.163,7.93-6.065a3.248,3.248,0,0,1,.15,1.927c-.478,4.54,3.761,1.053,5.564,2.2a12.334,12.334,0,0,0,6.564,2.264C258.694,593.028,261.346,599.7,256.45,601.6Z" transform="translate(-204.984 -570.374)"/>
    </g>
  </g>
</svg>
