<svg xmlns="http://www.w3.org/2000/svg" width="584.883" height="173.288" viewBox="0 0 584.883 173.288">
  <g id="Logo-grafo" transform="translate(-87.919 -358.81)">
    <path id="Path_1" data-name="Path 1" d="M146.749,480.161c.211.5.411.989.616,1.493q.3-.778.622-1.526c.213-.494.445-.977.683-1.438L157.86,461.5a2.68,2.68,0,0,1,.354-.517,1.041,1.041,0,0,1,.407-.272,1.6,1.6,0,0,1,.508-.107,6.567,6.567,0,0,1,.665-.025h4.36v31.04h-5.09V471.569c0-.372.008-.781.031-1.23s.053-.887.1-1.346l-9.382,17.6a2.44,2.44,0,0,1-.835.936,2.194,2.194,0,0,1-1.2.335h-.792a2.2,2.2,0,0,1-1.2-.335,2.4,2.4,0,0,1-.835-.936l-9.512-17.666c.056.47.1.933.118,1.386s.033.866.033,1.259v20.047h-5.09v-31.04h4.356a6.66,6.66,0,0,1,.668.025,1.6,1.6,0,0,1,.5.107,1.072,1.072,0,0,1,.417.272,2.228,2.228,0,0,1,.365.517l9.273,17.238A15.234,15.234,0,0,1,146.749,480.161Z" transform="translate(16.792 40.141)" fill="#0060af" fill-rule="evenodd"/>
    <path id="Path_2" data-name="Path 2" d="M181.919,479.892h9.9l-3.782-10.326c-.17-.45-.361-.993-.569-1.618s-.409-1.3-.609-2.033c-.2.736-.4,1.411-.594,2.041s-.383,1.18-.566,1.659l-3.782,10.276Zm20.1,11.724h-4.469a1.947,1.947,0,0,1-1.234-.381,2.1,2.1,0,0,1-.7-.932l-2.316-6.331H180.437l-2.318,6.331a1.994,1.994,0,0,1-.674.9,1.922,1.922,0,0,1-1.235.409h-4.486l12.194-31.042h5.9Z" transform="translate(33.057 40.141)" fill="#0060af" fill-rule="evenodd"/>
    <path id="Path_3" data-name="Path 3" d="M219.7,475.338h3.6a8.725,8.725,0,0,0,2.843-.409,5.438,5.438,0,0,0,2-1.122,4.566,4.566,0,0,0,1.166-1.705,5.835,5.835,0,0,0,.388-2.166,4.41,4.41,0,0,0-1.553-3.63,7.45,7.45,0,0,0-4.757-1.269H219.7v10.3Zm0,4.146v12.133h-5.777v-31.04h9.468a19.744,19.744,0,0,1,5.44.655,10.338,10.338,0,0,1,3.713,1.831,7.121,7.121,0,0,1,2.128,2.825,9.908,9.908,0,0,1,.215,6.579A8.547,8.547,0,0,1,233.548,475a8.85,8.85,0,0,1-2.147,2,11.016,11.016,0,0,1-2.9,1.372,5.743,5.743,0,0,1,1.887,1.781l7.77,11.467h-5.192a2.526,2.526,0,0,1-1.279-.3,2.583,2.583,0,0,1-.891-.858l-6.526-9.938a2.262,2.262,0,0,0-.807-.795,2.827,2.827,0,0,0-1.3-.24Z" transform="translate(49.7 40.141)" fill="#0060af" fill-rule="evenodd"/>
    <path id="Path_4" data-name="Path 4" d="M258.955,473.59h1.355a3.636,3.636,0,0,0,1.353-.223,2.268,2.268,0,0,0,.919-.725l8.567-10.842a3.227,3.227,0,0,1,1.127-.954,3.628,3.628,0,0,1,1.495-.265h4.978l-10.456,12.9a8.51,8.51,0,0,1-.947,1.005,4.331,4.331,0,0,1-.966.672,4.1,4.1,0,0,1,1.279.727,6.764,6.764,0,0,1,1.1,1.2l10.778,14.537h-5.106a3.143,3.143,0,0,1-1.541-.291,2.38,2.38,0,0,1-.841-.845L263.27,479.02a2.667,2.667,0,0,0-.965-.8,3.722,3.722,0,0,0-1.528-.244h-1.823v13.649h-5.772V460.559h5.772Z" transform="translate(65.188 40.135)" fill="#0060af" fill-rule="evenodd"/>
    <path id="Path_5" data-name="Path 5" d="M315.214,460.575v4.592h-13.76v8.614H312.3v4.441H301.454V487h13.76v4.62H295.639V460.575Z" transform="translate(81.935 40.141)" fill="#0060af" fill-rule="evenodd"/>
    <path id="Path_6" data-name="Path 6" d="M358.393,460.575v4.74h-9.339v26.3h-5.777v-26.3H333.9v-4.74Z" transform="translate(97.026 40.141)" fill="#0060af" fill-rule="evenodd"/>
    <rect id="Rectangle_1" data-name="Rectangle 1" width="5.796" height="31.042" transform="translate(496.085 500.715)" fill="#0060af"/>
    <path id="Path_7" data-name="Path 7" d="M417.014,460.6a1.649,1.649,0,0,1,.457.13,1.507,1.507,0,0,1,.393.282,3.853,3.853,0,0,1,.43.48l16.294,20.762c-.056-.5-.092-.99-.114-1.475s-.031-.924-.031-1.336V460.574h5.087v31.045h-2.986a2.2,2.2,0,0,1-2.018-.987l-16.233-20.68c.043.459.078.913.1,1.365s.032.86.032,1.231v19.07h-5.087V460.574h3.026A6.39,6.39,0,0,1,417.014,460.6Z" transform="translate(128.362 40.141)" fill="#0060af" fill-rule="evenodd"/>
    <path id="Path_8" data-name="Path 8" d="M468.972,487.461a14.354,14.354,0,0,0,3.4-.356,14.055,14.055,0,0,0,2.754-.982v-5.641h-3.886a1.209,1.209,0,0,1-.881-.315,1.019,1.019,0,0,1-.319-.759v-3.259H480.37v12.554a17.083,17.083,0,0,1-2.458,1.491,16.156,16.156,0,0,1-2.726,1.046,21.026,21.026,0,0,1-3.1.611,28.843,28.843,0,0,1-3.564.2,16.128,16.128,0,0,1-6.25-1.181,14.674,14.674,0,0,1-4.939-3.284,14.908,14.908,0,0,1-3.249-5.02,17,17,0,0,1-1.173-6.377,17.509,17.509,0,0,1,1.142-6.423,14.17,14.17,0,0,1,8.3-8.286,18.457,18.457,0,0,1,6.7-1.152,17.336,17.336,0,0,1,6.582,1.127,15.166,15.166,0,0,1,4.708,2.927L478.671,467a1.491,1.491,0,0,1-1.312.786,1.922,1.922,0,0,1-1.046-.34c-.457-.269-.932-.542-1.414-.814a9.182,9.182,0,0,0-1.584-.7,12.844,12.844,0,0,0-1.952-.5,14.708,14.708,0,0,0-2.5-.2,10.835,10.835,0,0,0-4.158.774,8.94,8.94,0,0,0-3.167,2.213,10.033,10.033,0,0,0-2.014,3.461,13.563,13.563,0,0,0-.706,4.505,14.072,14.072,0,0,0,.749,4.775,10.051,10.051,0,0,0,2.1,3.536,9.075,9.075,0,0,0,3.221,2.2A10.663,10.663,0,0,0,468.972,487.461Z" transform="translate(143.969 40.045)" fill="#0060af" fill-rule="evenodd"/>
    <path id="Path_9" data-name="Path 9" d="M511.968,439.168a34.735,34.735,0,0,1-6.866,12.479,29.067,29.067,0,0,1-10.938,7.813,38.39,38.39,0,0,1-14.75,2.677,38.83,38.83,0,0,1-14.873-2.677,29.063,29.063,0,0,1-11-7.813,34.725,34.725,0,0,1-6.859-12.479,59.082,59.082,0,0,1,0-33.241,34.888,34.888,0,0,1,6.859-12.489,29.565,29.565,0,0,1,11-7.844,38.171,38.171,0,0,1,14.873-2.736,37.741,37.741,0,0,1,14.75,2.736,29.574,29.574,0,0,1,10.938,7.844,34.9,34.9,0,0,1,6.866,12.489,59.181,59.181,0,0,1,0,33.241Zm27.238-41.638a60.025,60.025,0,0,0-13.078-20.119A60.954,60.954,0,0,0,505.792,364a68.345,68.345,0,0,0-26.379-4.918,69.384,69.384,0,0,0-26.425,4.871,60.4,60.4,0,0,0-20.413,13.385,59.158,59.158,0,0,0-13.126,20.119,69.812,69.812,0,0,0,0,50.115,59.312,59.312,0,0,0,33.539,33.581,73.95,73.95,0,0,0,52.8,0,59.215,59.215,0,0,0,33.414-33.581,69.486,69.486,0,0,0,0-50.037Z" transform="translate(128.936 0.105)" fill="#003b72" fill-rule="evenodd"/>
    <path id="Path_10" data-name="Path 10" d="M155.593,435.871c0,1.482.088,2.373,1.117,3.358,1.015.947,2.021,1.1,3.843,1.1h13.606v19.494a74.729,74.729,0,0,1-9.362,2.733,52.351,52.351,0,0,1-10.9,1.019,38.037,38.037,0,0,1-14.624-2.767,32.174,32.174,0,0,1-11.492-8.063,37.607,37.607,0,0,1-7.593-12.953,52.193,52.193,0,0,1-2.751-17.566,50.233,50.233,0,0,1,2.47-16.23,36.2,36.2,0,0,1,7.024-12.487,31.24,31.24,0,0,1,11.027-8.061,35.86,35.86,0,0,1,14.58-2.849,63.252,63.252,0,0,1,7.844.429,40.807,40.807,0,0,1,6.643,1.355,40.177,40.177,0,0,1,6.186,2.429q3.016,1.493,6.43,3.539a9.95,9.95,0,0,0,5.291,1.708,6.807,6.807,0,0,0,3.617-1.031,9.152,9.152,0,0,0,2.86-2.813l8.35-12.7a57.8,57.8,0,0,0-19.044-11.925,71.128,71.128,0,0,0-12.578-3.49,78.122,78.122,0,0,0-14.571-1.29,75.114,75.114,0,0,0-27.161,4.688A59.858,59.858,0,0,0,105.7,376.632a57.291,57.291,0,0,0-13.166,20.076,68.634,68.634,0,0,0-4.614,25.521A65.354,65.354,0,0,0,92.747,447.5a60.365,60.365,0,0,0,33.365,33.425,65.125,65.125,0,0,0,25.23,4.811,123.535,123.535,0,0,0,14.194-.767,82.812,82.812,0,0,0,12.444-2.38,63.679,63.679,0,0,0,11-4.139,60.533,60.533,0,0,0,9.93-6.016V418.671h-43.32Z" transform="translate(0)" fill="#003b72" fill-rule="evenodd"/>
    <path id="Path_11" data-name="Path 11" d="M240.854,406.455a15.721,15.721,0,0,1-3.843,6.182,18.317,18.317,0,0,1-6.77,4.19,29.615,29.615,0,0,1-10.026,1.544H208.678V381.239h11.538c7.449,0,12.953,1.637,16.5,4.7s5.323,7.379,5.323,12.837a24.057,24.057,0,0,1-1.185,7.678ZM255,440.488a20.276,20.276,0,0,0-4.4-5.016,26.651,26.651,0,0,0-5.412-3.482,41.789,41.789,0,0,0,10.7-5.834,37.486,37.486,0,0,0,7.842-8.128,34.8,34.8,0,0,0,4.815-9.917,39.526,39.526,0,0,0,1.619-11.411,38.633,38.633,0,0,0-2.723-14.661,29.437,29.437,0,0,0-8.742-11.687,43.449,43.449,0,0,0-15.516-7.853,82.637,82.637,0,0,0-22.979-2.919H180.829v123.77h27.849V436.936h7.29a10.331,10.331,0,0,1,5.151,1.618,9.9,9.9,0,0,1,3.2,3.705L244.944,478.1c2.1,3.64,5.574,5.245,10.4,5.245H281.42Z" transform="translate(36.648 0.303)" fill="#003b72" fill-rule="evenodd"/>
    <path id="Path_12" data-name="Path 12" d="M432.14,381.238V359.579H351.689V483.348h30.943V433.841h40.225V412.18H382.632V381.238Z" transform="translate(104.044 0.303)" fill="#003b72" fill-rule="evenodd"/>
    <path id="Path_13" data-name="Path 13" d="M340.081,455.142H316.548a13.228,13.228,0,0,1-2.249-.177,9.106,9.106,0,0,1-3.935-1.559,9,9,0,0,1-3.358-4.478L301.559,432.9Z" transform="translate(84.27 29.226)" fill="#003b72" fill-rule="evenodd"/>
    <path id="Path_14" data-name="Path 14" d="M318.721,365.853c-1.99-3.932-4.78-6.831-11.87-6.831h-5.306v26.966l16.111,48.184L334,405.86Z" transform="translate(84.265 0.084)" fill="#e94457" fill-rule="evenodd"/>
    <path id="Path_15" data-name="Path 15" d="M310.316,359.022H305.5c-7.831,0-10.422,3.428-12.466,8.132l-2.231,6.264L278.27,405.813l16.346,28.324,16.111-48.149V359.022Z" transform="translate(75.083 0.084)" fill="#f77e10" fill-rule="evenodd"/>
    <path id="Path_16" data-name="Path 16" d="M297.969,420.9l-5.238,15.568L269.77,423.211l11.853-30.634Z" transform="translate(71.73 13.319)" fill="#cbd327" fill-rule="evenodd"/>
    <path id="Path_17" data-name="Path 17" d="M295.531,427.8l-2.271,6.711-1.9,5.625H262.668l9.9-25.595Z" transform="translate(68.929 21.985)" fill="#78ad2f" fill-rule="evenodd"/>
    <path id="Path_18" data-name="Path 18" d="M293.8,432.9l-.038.1-5.39,15.926a8.652,8.652,0,0,1-1.77,2.871l-.01.01a11.528,11.528,0,0,1-1.549,1.421,8.666,8.666,0,0,1-3.891,1.717,10.807,10.807,0,0,1-2.166.192h-22.5l8.615-22.239Z" transform="translate(66.493 29.225)" fill="#2c8f36" fill-rule="evenodd"/>
    <path id="Path_19" data-name="Path 19" d="M349.712,440.137H321.019l-.588-1.718-3.578-10.6,22.966-13.256Z" transform="translate(90.303 21.991)" fill="#9b1f70" fill-rule="evenodd"/>
    <path id="Path_20" data-name="Path 20" d="M364.356,455.141H340.079L301.559,432.9h54.186Z" transform="translate(84.27 29.226)" fill="#5b2676" fill-rule="evenodd"/>
    <path id="Path_21" data-name="Path 21" d="M341.3,423.222l-22.965,13.252L313.1,420.92l16.347-28.309Z" transform="translate(88.821 13.333)" fill="#df0f69" fill-rule="evenodd"/>
  </g>
</svg>
