<svg xmlns="http://www.w3.org/2000/svg" width="457.004" height="135.4" viewBox="0 0 457.004 135.4">
  <g id="logo_index" transform="translate(-87.919 -358.81)">
    <path id="Path_1" data-name="Path 1" d="M143.194,475.879c.165.387.321.772.482,1.167q.232-.608.486-1.192c.167-.386.348-.764.534-1.123l7.18-13.435a2.094,2.094,0,0,1,.277-.4.814.814,0,0,1,.318-.212,1.247,1.247,0,0,1,.4-.084,5.127,5.127,0,0,1,.52-.02h3.407v24.254h-3.977V469.165c0-.291.007-.61.024-.961s.041-.693.075-1.051L145.586,480.9a1.907,1.907,0,0,1-.653.731,1.715,1.715,0,0,1-.941.261h-.619a1.716,1.716,0,0,1-.94-.261,1.873,1.873,0,0,1-.653-.731l-7.432-13.8c.044.367.075.729.093,1.083s.026.677.026.984v15.664H130.49V460.575h3.4a5.2,5.2,0,0,1,.522.02,1.246,1.246,0,0,1,.394.084.838.838,0,0,1,.326.212,1.741,1.741,0,0,1,.285.4l7.246,13.469A11.906,11.906,0,0,1,143.194,475.879Z" transform="translate(3.813 9.114)" fill="#0060af" fill-rule="evenodd"/>
    <path id="Path_2" data-name="Path 2" d="M179.69,475.669h7.737l-2.955-8.068c-.133-.352-.282-.776-.445-1.264s-.319-1.013-.476-1.589c-.158.575-.315,1.1-.464,1.6s-.3.922-.442,1.3l-2.955,8.029Zm15.7,9.161H191.9a1.522,1.522,0,0,1-.964-.3,1.64,1.64,0,0,1-.545-.728l-1.81-4.947H178.532l-1.811,4.947a1.558,1.558,0,0,1-.526.706,1.5,1.5,0,0,1-.965.319h-3.505l9.528-24.255h4.61Z" transform="translate(7.506 9.114)" fill="#0060af" fill-rule="evenodd"/>
    <path id="Path_3" data-name="Path 3" d="M218.432,472.11h2.817a6.817,6.817,0,0,0,2.222-.319,4.249,4.249,0,0,0,1.562-.877,3.568,3.568,0,0,0,.911-1.333,4.559,4.559,0,0,0,.3-1.692,3.446,3.446,0,0,0-1.214-2.836,5.822,5.822,0,0,0-3.717-.992h-2.884v8.049Zm0,3.239v9.48h-4.514V460.576h7.4a15.427,15.427,0,0,1,4.25.512,8.078,8.078,0,0,1,2.9,1.431,5.564,5.564,0,0,1,1.663,2.207,7.742,7.742,0,0,1,.168,5.141,6.679,6.679,0,0,1-1.043,1.981,6.915,6.915,0,0,1-1.678,1.559,8.608,8.608,0,0,1-2.27,1.072,4.487,4.487,0,0,1,1.474,1.391l6.071,8.96H228.8a1.974,1.974,0,0,1-1-.236,2.018,2.018,0,0,1-.7-.67l-5.1-7.765a1.767,1.767,0,0,0-.631-.621,2.209,2.209,0,0,0-1.012-.187Z" transform="translate(11.285 9.115)" fill="#0060af" fill-rule="evenodd"/>
    <path id="Path_4" data-name="Path 4" d="M257.693,470.741h1.059a2.841,2.841,0,0,0,1.057-.174,1.772,1.772,0,0,0,.718-.567l6.694-8.471a2.521,2.521,0,0,1,.88-.745,2.835,2.835,0,0,1,1.168-.207h3.89l-8.17,10.082a6.652,6.652,0,0,1-.74.786,3.384,3.384,0,0,1-.755.525,3.2,3.2,0,0,1,1,.568,5.284,5.284,0,0,1,.863.936l8.421,11.359h-3.99a2.456,2.456,0,0,1-1.2-.228,1.86,1.86,0,0,1-.657-.66l-6.862-8.96a2.084,2.084,0,0,0-.754-.626,2.908,2.908,0,0,0-1.194-.191h-1.424v10.665h-4.51V460.559h4.51Z" transform="translate(14.802 9.113)" fill="#0060af" fill-rule="evenodd"/>
    <path id="Path_5" data-name="Path 5" d="M310.934,460.575v3.588H300.183v6.73h8.471v3.47h-8.471v6.856h10.751v3.61H295.639V460.575Z" transform="translate(18.604 9.114)" fill="#0060af" fill-rule="evenodd"/>
    <path id="Path_6" data-name="Path 6" d="M353.038,460.575v3.7h-7.3v20.55h-4.514v-20.55H333.9v-3.7Z" transform="translate(22.031 9.114)" fill="#0060af" fill-rule="evenodd"/>
    <rect id="Rectangle_1" data-name="Rectangle 1" width="4.529" height="24.255" transform="translate(406.843 469.689)" fill="#0060af"/>
    <path id="Path_7" data-name="Path 7" d="M416.211,460.6a1.289,1.289,0,0,1,.357.1,1.177,1.177,0,0,1,.307.22,3.007,3.007,0,0,1,.336.375l12.732,16.223c-.044-.393-.072-.774-.089-1.153s-.024-.722-.024-1.044V460.574H433.8v24.257h-2.333a1.722,1.722,0,0,1-1.577-.771L417.211,467.9c.034.358.061.714.08,1.067s.025.672.025.962v14.9h-3.975V460.574h2.364A4.993,4.993,0,0,1,416.211,460.6Z" transform="translate(29.146 9.114)" fill="#0060af" fill-rule="evenodd"/>
    <path id="Path_8" data-name="Path 8" d="M465.46,481.53a11.215,11.215,0,0,0,2.659-.278,10.982,10.982,0,0,0,2.152-.767v-4.407h-3.037a.945.945,0,0,1-.689-.246.8.8,0,0,1-.25-.593v-2.546h8.07V482.5a13.348,13.348,0,0,1-1.921,1.165,12.624,12.624,0,0,1-2.13.817,16.43,16.43,0,0,1-2.423.477,22.536,22.536,0,0,1-2.785.157,12.6,12.6,0,0,1-4.883-.923,11.465,11.465,0,0,1-3.859-2.566,11.649,11.649,0,0,1-2.539-3.922,13.279,13.279,0,0,1-.916-4.983,13.681,13.681,0,0,1,.892-5.019,11.072,11.072,0,0,1,6.486-6.474,14.422,14.422,0,0,1,5.238-.9,13.545,13.545,0,0,1,5.143.88,11.85,11.85,0,0,1,3.678,2.287l-1.307,2.047a1.165,1.165,0,0,1-1.025.615,1.5,1.5,0,0,1-.817-.266c-.357-.21-.728-.424-1.1-.636a7.173,7.173,0,0,0-1.238-.55,10.032,10.032,0,0,0-1.525-.388,11.492,11.492,0,0,0-1.954-.155,8.466,8.466,0,0,0-3.249.6,6.986,6.986,0,0,0-2.474,1.729,7.839,7.839,0,0,0-1.573,2.7,10.6,10.6,0,0,0-.551,3.52,11,11,0,0,0,.585,3.731,7.853,7.853,0,0,0,1.644,2.763,7.091,7.091,0,0,0,2.517,1.717A8.332,8.332,0,0,0,465.46,481.53Z" transform="translate(32.69 9.093)" fill="#0060af" fill-rule="evenodd"/>
    <path id="Path_9" data-name="Path 9" d="M490.722,421.657a27.139,27.139,0,0,1-5.365,9.751,22.712,22.712,0,0,1-8.547,6.1,30,30,0,0,1-11.525,2.092,30.34,30.34,0,0,1-11.621-2.092,22.709,22.709,0,0,1-8.6-6.1,27.133,27.133,0,0,1-5.36-9.751,46.164,46.164,0,0,1,0-25.973,27.261,27.261,0,0,1,5.36-9.758,23.1,23.1,0,0,1,8.6-6.129,29.826,29.826,0,0,1,11.621-2.138,29.49,29.49,0,0,1,11.525,2.138,23.108,23.108,0,0,1,8.547,6.129,27.267,27.267,0,0,1,5.365,9.758,46.241,46.241,0,0,1,0,25.973ZM512,389.123a46.9,46.9,0,0,0-10.219-15.72A47.628,47.628,0,0,0,485.9,362.92a53.4,53.4,0,0,0-20.611-3.843,54.213,54.213,0,0,0-20.647,3.806,47.194,47.194,0,0,0-15.95,10.459,46.225,46.225,0,0,0-10.256,15.72,54.548,54.548,0,0,0,0,39.158,46.344,46.344,0,0,0,26.206,26.239,57.782,57.782,0,0,0,41.259,0A46.268,46.268,0,0,0,512,428.22a54.294,54.294,0,0,0,0-39.1Z" transform="translate(29.277 0.024)" fill="#003b72" fill-rule="evenodd"/>
    <path id="Path_10" data-name="Path 10" d="M140.8,419.023a3.041,3.041,0,0,0,.873,2.624,3.81,3.81,0,0,0,3,.861H155.3v15.232a58.387,58.387,0,0,1-7.315,2.136,40.9,40.9,0,0,1-8.516.8,29.72,29.72,0,0,1-11.426-2.162,25.14,25.14,0,0,1-8.979-6.3,29.384,29.384,0,0,1-5.933-10.121,40.781,40.781,0,0,1-2.15-13.725,39.25,39.25,0,0,1,1.93-12.681,28.286,28.286,0,0,1,5.488-9.757,24.41,24.41,0,0,1,8.616-6.3A28.019,28.019,0,0,1,138.41,377.4a49.418,49.418,0,0,1,6.129.336,31.881,31.881,0,0,1,5.191,1.059,31.392,31.392,0,0,1,4.833,1.9q2.357,1.167,5.024,2.765a7.775,7.775,0,0,0,4.134,1.335,5.319,5.319,0,0,0,2.826-.805,7.152,7.152,0,0,0,2.235-2.2l6.524-9.927a45.163,45.163,0,0,0-14.88-9.318,55.574,55.574,0,0,0-9.828-2.727,61.041,61.041,0,0,0-11.385-1.008,58.691,58.691,0,0,0-21.223,3.663,46.77,46.77,0,0,0-16.179,10.263,44.764,44.764,0,0,0-10.288,15.686,53.628,53.628,0,0,0-3.605,19.941,51.065,51.065,0,0,0,3.772,19.747,47.167,47.167,0,0,0,26.07,26.117,50.886,50.886,0,0,0,19.713,3.759,96.521,96.521,0,0,0,11.091-.6,64.7,64.7,0,0,0,9.723-1.86,49.757,49.757,0,0,0,8.6-3.234,47.3,47.3,0,0,0,7.759-4.7v-42.01H140.8Z" transform="translate(0)" fill="#003b72" fill-rule="evenodd"/>
    <path id="Path_11" data-name="Path 11" d="M227.73,396.206a12.283,12.283,0,0,1-3,4.83,14.311,14.311,0,0,1-5.29,3.274,23.14,23.14,0,0,1-7.834,1.206h-9.015V376.5H211.6c5.82,0,10.121,1.279,12.894,3.673s4.159,5.766,4.159,10.031a18.8,18.8,0,0,1-.926,6ZM238.786,422.8a15.844,15.844,0,0,0-3.435-3.919,20.826,20.826,0,0,0-4.229-2.721,32.651,32.651,0,0,0,8.363-4.559,29.288,29.288,0,0,0,6.128-6.351,27.188,27.188,0,0,0,3.762-7.749,30.883,30.883,0,0,0,1.265-8.916,30.187,30.187,0,0,0-2.128-11.456A23,23,0,0,0,241.682,368a33.949,33.949,0,0,0-12.124-6.136,64.569,64.569,0,0,0-17.955-2.28H180.829v96.709h21.76V420.023h5.7a8.072,8.072,0,0,1,4.025,1.264,7.735,7.735,0,0,1,2.5,2.895l16.116,28.008c1.644,2.844,4.355,4.1,8.126,4.1h20.375Z" transform="translate(8.321 0.069)" fill="#003b72" fill-rule="evenodd"/>
    <path id="Path_12" data-name="Path 12" d="M414.55,376.5V359.579H351.689v96.708h24.177V417.6H407.3V400.679h-31.43V376.5Z" transform="translate(23.624 0.069)" fill="#003b72" fill-rule="evenodd"/>
    <g id="logo_sign" transform="translate(271.589 359.041)">
      <path id="nine" d="M331.658,450.279H313.271a10.334,10.334,0,0,1-1.757-.138,7.116,7.116,0,0,1-3.075-1.218,7.034,7.034,0,0,1-2.624-3.5L301.559,432.9Z" transform="translate(-252.455 -352.405)" fill="#003b72" fill-rule="evenodd"/>
      <path id="eight" d="M350.626,450.279H331.657l-30.1-17.376H343.9Z" transform="translate(-252.455 -352.405)" fill="#5b2676" fill-rule="evenodd"/>
      <path id="seven" d="M342.528,434.545H320.108l-.459-1.342-2.8-8.284L334.8,414.562Z" transform="translate(-251.085 -354.048)" fill="#9b1f70" fill-rule="evenodd"/>
      <path id="six" d="M335.134,416.529,317.19,426.884,313.1,414.73l12.773-22.119Z" transform="translate(-251.421 -356.014)" fill="#df0f69" fill-rule="evenodd"/>
      <path id="five" d="M314.966,364.36c-1.555-3.073-3.735-5.338-9.274-5.338h-4.146v21.07l12.589,37.649,12.772-22.121Z" transform="translate(-252.456 -359.022)" fill="#e94457" fill-rule="evenodd"/>
      <path id="four" d="M303.309,359.022H299.55c-6.119,0-8.143,2.678-9.741,6.354l-1.743,4.894-9.8,25.312,12.772,22.131,12.589-37.622v-21.07Z" transform="translate(-254.54 -359.022)" fill="#f77e10" fill-rule="evenodd"/>
      <path id="three" d="M291.8,414.709l-4.093,12.164L269.77,416.513l9.262-23.936Z" transform="translate(-255.302 -356.017)" fill="#cbd327" fill-rule="evenodd"/>
      <path id="two" d="M288.346,424.906l-1.774,5.244-1.485,4.4H262.668l7.736-20Z" transform="translate(-255.938 -354.049)" fill="#78ad2f" fill-rule="evenodd"/>
      <path id="one" d="M285.641,432.9l-.029.08L281.4,445.426a6.76,6.76,0,0,1-1.383,2.243l-.008.008a9.007,9.007,0,0,1-1.211,1.11,6.771,6.771,0,0,1-3.04,1.341,8.444,8.444,0,0,1-1.692.15H256.491l6.731-17.376Z" transform="translate(-256.491 -352.405)" fill="#2c8f36" fill-rule="evenodd"/>
    </g>
  </g>
</svg>
