<svg xmlns="http://www.w3.org/2000/svg" width="425.198" height="137.157" viewBox="0 0 425.198 137.157">
  <g id="logo-index" transform="translate(-240.946 -633.919)">
    <path id="Grafo" d="M642.954,692.414a25.256,25.256,0,0,1-4.991,9.072,21.147,21.147,0,0,1-7.952,5.682,27.93,27.93,0,0,1-10.724,1.945,28.238,28.238,0,0,1-10.812-1.945,21.143,21.143,0,0,1-8-5.682,25.249,25.249,0,0,1-4.987-9.072,42.937,42.937,0,0,1,0-24.165,25.375,25.375,0,0,1,4.987-9.079,21.5,21.5,0,0,1,8-5.7,27.765,27.765,0,0,1,10.812-1.988,27.463,27.463,0,0,1,10.724,1.988,21.506,21.506,0,0,1,7.952,5.7,25.382,25.382,0,0,1,4.991,9.079,43.01,43.01,0,0,1,0,24.165Zm19.8-30.27a43.659,43.659,0,0,0-9.509-14.625,44.281,44.281,0,0,0-14.783-9.754,49.67,49.67,0,0,0-19.177-3.575,50.417,50.417,0,0,0-19.21,3.541,43.911,43.911,0,0,0-14.84,9.731,42.99,42.99,0,0,0-9.542,14.626,50.748,50.748,0,0,0,0,36.432,43.128,43.128,0,0,0,24.382,24.414,53.76,53.76,0,0,0,38.387,0,43.067,43.067,0,0,0,24.292-24.414,50.514,50.514,0,0,0,0-36.376Zm-372.612,27.8a2.831,2.831,0,0,0,.811,2.442,3.554,3.554,0,0,0,2.8.8h9.891v14.171a54.009,54.009,0,0,1-6.807,1.987,38.038,38.038,0,0,1-7.923.742,27.65,27.65,0,0,1-10.631-2.012,23.4,23.4,0,0,1-8.354-5.861,27.393,27.393,0,0,1-5.521-9.416,37.98,37.98,0,0,1-2-12.771,36.522,36.522,0,0,1,1.795-11.8,26.34,26.34,0,0,1,5.107-9.078,22.7,22.7,0,0,1,8.016-5.86,26.065,26.065,0,0,1,10.6-2.072,45.963,45.963,0,0,1,5.7.313,29.691,29.691,0,0,1,4.829.985,29.3,29.3,0,0,1,4.5,1.766q2.193,1.086,4.675,2.573a7.232,7.232,0,0,0,3.846,1.242,4.951,4.951,0,0,0,2.63-.75,6.672,6.672,0,0,0,2.078-2.044l6.071-9.236a42.024,42.024,0,0,0-13.845-8.669,51.68,51.68,0,0,0-9.143-2.538,56.85,56.85,0,0,0-10.594-.938,54.6,54.6,0,0,0-19.745,3.409,43.5,43.5,0,0,0-15.053,9.549A41.625,41.625,0,0,0,244.3,661.47a49.908,49.908,0,0,0-3.355,18.554,47.527,47.527,0,0,0,3.509,18.373,43.887,43.887,0,0,0,24.256,24.3,47.32,47.32,0,0,0,18.342,3.5,89.809,89.809,0,0,0,10.318-.558,60,60,0,0,0,9.047-1.729,46.464,46.464,0,0,0,8-3.009,43.812,43.812,0,0,0,7.219-4.374V677.437H290.144Zm88.626-21.165a11.428,11.428,0,0,1-2.794,4.494,13.316,13.316,0,0,1-4.922,3.046,21.5,21.5,0,0,1-7.288,1.123h-8.389V650.446h8.389c5.414,0,9.416,1.189,12,3.417s3.869,5.364,3.869,9.332a17.5,17.5,0,0,1-.861,5.581Zm10.286,24.742a14.7,14.7,0,0,0-3.2-3.647,33.331,33.331,0,0,0-3.934-2.531,55.67,55.67,0,0,0,7.781-4.242,27.251,27.251,0,0,0,5.7-5.909,25.317,25.317,0,0,0,3.5-7.209,28.721,28.721,0,0,0,1.177-8.3,28.085,28.085,0,0,0-1.98-10.658,21.393,21.393,0,0,0-6.355-8.5,31.6,31.6,0,0,0-11.28-5.709,60.038,60.038,0,0,0-16.7-2.122H335.132v89.979h20.245V690.935h5.3a7.521,7.521,0,0,1,3.745,1.176,7.2,7.2,0,0,1,2.326,2.694l14.994,26.058c1.531,2.647,4.052,3.815,7.561,3.815H408.26Zm177.768-43.073V634.7H508.339v89.977h22.494V688.685h29.243V672.939H530.833V650.445Zm-109.3,58.584,3.959,11.651a6.544,6.544,0,0,0,2.442,3.254,6.612,6.612,0,0,0,2.86,1.134,9.645,9.645,0,0,0,1.636.129h17.107Z" fill="#004b84" fill-rule="evenodd"/>
    <g id="A_colorful" data-name="A colorful">
      <path id="Path_2" data-name="Path 2" d="M469.993,639.1c-1.446-2.859-3.475-4.967-8.629-4.967h-3.857v19.6l11.713,35.028L481.1,668.184Z" fill="#f05d6a" fill-rule="evenodd"/>
      <path id="Path_3" data-name="Path 3" d="M457.208,634.134h-3.5c-5.693,0-7.577,2.493-9.063,5.911l-1.622,4.555-9.115,23.55,11.883,20.592,11.713-35v-19.6Z" fill="#f69221" fill-rule="evenodd"/>
      <path id="Path_4" data-name="Path 4" d="M445.809,688.746l-3.822,11.313-16.692-9.639,8.624-22.272Z" fill="#c9da3e" fill-rule="evenodd"/>
      <path id="Path_5" data-name="Path 5" d="M441.986,700.059l-1.651,4.881-1.381,4.088H418.095l7.2-18.605Z" fill="#7db943" fill-rule="evenodd"/>
      <path id="Path_6" data-name="Path 6" d="M438.955,709.029l-.027.074L435.01,720.68a6.319,6.319,0,0,1-1.287,2.088l-.007.007a8.453,8.453,0,0,1-1.127,1.034,6.33,6.33,0,0,1-2.828,1.248,7.882,7.882,0,0,1-1.574.138H411.833l6.263-16.166Z" fill="#029e4a" fill-rule="evenodd"/>
      <path id="Path_7" data-name="Path 7" d="M496.912,709.029H476.053l-.428-1.248-2.6-7.707,16.7-9.637Z" fill="#b03081" fill-rule="evenodd"/>
      <path id="Path_8" data-name="Path 8" d="M503.172,725.2H485.522l-28-16.168h39.393Z" fill="#773487" fill-rule="evenodd"/>
      <path id="Path_9" data-name="Path 9" d="M489.72,690.438l-16.7,9.635-3.809-11.309L481.1,668.185Z" fill="#ea297b" fill-rule="evenodd"/>
    </g>
    <g id="Marketing">
      <path id="Path_10" data-name="Path 10" d="M290.922,762.5c.153.36.3.719.447,1.086.145-.377.3-.746.453-1.109s.323-.711.5-1.045l6.681-12.5a1.829,1.829,0,0,1,.257-.375.749.749,0,0,1,.3-.2,1.2,1.2,0,0,1,.369-.078,4.83,4.83,0,0,1,.483-.018h3.17v22.567h-3.7V756.253c0-.269.007-.568.023-.894s.038-.645.069-.979l-6.821,12.793a1.763,1.763,0,0,1-.606.68,1.587,1.587,0,0,1-.876.244h-.575a1.589,1.589,0,0,1-.875-.244,1.737,1.737,0,0,1-.608-.68l-6.915-12.843c.04.341.07.679.086,1.007s.025.631.025.916v14.575h-3.7V748.261h3.167c.189,0,.35,0,.486.018a1.2,1.2,0,0,1,.366.078.781.781,0,0,1,.3.2,1.541,1.541,0,0,1,.265.375l6.742,12.531C290.609,761.794,290.774,762.14,290.922,762.5Z" fill="#0071bb" fill-rule="evenodd"/>
      <rect id="Rectangle_1" data-name="Rectangle 1" width="4.214" height="22.568" transform="translate(532.674 748.259)" fill="#0071bb"/>
      <path id="Path_11" data-name="Path 11" d="M334.057,748.261h-4.29L320.9,770.828h3.261a1.4,1.4,0,0,0,.9-.3,1.452,1.452,0,0,0,.49-.659l1.684-4.6h9.351l1.685,4.6a1.522,1.522,0,0,0,.505.678,1.408,1.408,0,0,0,.9.278h3.248ZM328.314,762.3l2.749-7.471c.132-.349.272-.746.411-1.205s.286-.949.432-1.484c.146.535.29,1.025.444,1.476s.29.85.413,1.178l2.749,7.506Z" fill="#0071bb" fill-rule="evenodd"/>
      <path id="Path_12" data-name="Path 12" d="M375.645,762.492a4.129,4.129,0,0,0-1.373-1.293,7.945,7.945,0,0,0,2.113-1,6.418,6.418,0,0,0,1.56-1.45,6.219,6.219,0,0,0,.971-1.843,7.211,7.211,0,0,0-.156-4.782,5.188,5.188,0,0,0-1.547-2.054,7.526,7.526,0,0,0-2.7-1.332,14.373,14.373,0,0,0-3.955-.477h-6.883v22.567h4.2v-8.821h1.793a2.07,2.07,0,0,1,.942.174,1.667,1.667,0,0,1,.587.578l4.744,7.225a1.886,1.886,0,0,0,.649.623,1.833,1.833,0,0,0,.929.221h3.775Zm-3.082-3.795a6.332,6.332,0,0,1-2.067.3h-2.621v-7.489h2.684a5.412,5.412,0,0,1,3.458.922,3.208,3.208,0,0,1,1.129,2.639,4.222,4.222,0,0,1-.282,1.574,3.289,3.289,0,0,1-.847,1.24A3.979,3.979,0,0,1,372.563,758.7Z" fill="#0071bb" fill-rule="evenodd"/>
      <path id="Path_13" data-name="Path 13" d="M407.676,748.246h-4.2v22.582h4.2v-9.922H409a2.713,2.713,0,0,1,1.11.175,1.994,1.994,0,0,1,.7.584L417.2,770a1.737,1.737,0,0,0,.612.616,2.312,2.312,0,0,0,1.121.211h3.711l-7.834-10.569a5,5,0,0,0-.8-.871,3,3,0,0,0-.929-.527,3.154,3.154,0,0,0,.7-.488,6.354,6.354,0,0,0,.69-.731l7.6-9.381h-3.619a2.617,2.617,0,0,0-1.087.194,2.317,2.317,0,0,0-.818.693l-6.229,7.881a1.671,1.671,0,0,1-.668.527,2.631,2.631,0,0,1-.983.162h-.985Z" fill="#0071bb" fill-rule="evenodd"/>
      <path id="Path_14" data-name="Path 14" d="M446.52,748.261v22.566h14.23v-3.359h-10v-6.379h7.882v-3.229h-7.882V751.6h10v-3.338Z" fill="#0071bb" fill-rule="evenodd"/>
      <path id="Path_15" data-name="Path 15" d="M485.3,748.261v3.445h6.818v19.121h4.2V751.706h6.789v-3.445Z" fill="#0071bb" fill-rule="evenodd"/>
      <path id="Path_16" data-name="Path 16" d="M568.036,748.259h-2.2v22.569h3.7V756.966c0-.271-.009-.57-.023-.9s-.043-.658-.074-.992l11.8,15.033a1.6,1.6,0,0,0,1.467.717h2.171V748.259h-3.7V761.98c0,.3.01.625.022.971s.043.707.083,1.074l-11.845-15.094a2.717,2.717,0,0,0-.312-.35,1.089,1.089,0,0,0-.286-.205,1.184,1.184,0,0,0-.333-.093A4.349,4.349,0,0,0,568.036,748.259Z" fill="#0071bb" fill-rule="evenodd"/>
      <path id="Path_17" data-name="Path 17" d="M614.66,767.183a6.6,6.6,0,0,1-2.341-1.6,7.288,7.288,0,0,1-1.53-2.57,10.259,10.259,0,0,1-.545-3.471,9.846,9.846,0,0,1,.514-3.275,7.294,7.294,0,0,1,1.464-2.518,6.481,6.481,0,0,1,2.3-1.607,7.876,7.876,0,0,1,3.022-.563,10.591,10.591,0,0,1,1.818.145,9.4,9.4,0,0,1,1.419.359,6.778,6.778,0,0,1,1.153.512c.35.2.694.4,1.027.592a1.389,1.389,0,0,0,.761.248,1.087,1.087,0,0,0,.953-.57l1.218-1.907a11.062,11.062,0,0,0-3.424-2.129,12.632,12.632,0,0,0-4.785-.818,13.409,13.409,0,0,0-4.872.838,10.3,10.3,0,0,0-6.036,6.023,12.741,12.741,0,0,0-.83,4.67,12.342,12.342,0,0,0,.853,4.635,10.838,10.838,0,0,0,2.362,3.651,10.658,10.658,0,0,0,3.59,2.386,11.711,11.711,0,0,0,4.544.86,20.67,20.67,0,0,0,2.592-.147,15.564,15.564,0,0,0,2.254-.443,11.784,11.784,0,0,0,1.981-.762,12.332,12.332,0,0,0,1.788-1.084v-9.125H618.4v2.369a.739.739,0,0,0,.233.551.881.881,0,0,0,.64.229H622.1v4.1a10.246,10.246,0,0,1-2,.713,10.42,10.42,0,0,1-2.475.26A7.76,7.76,0,0,1,614.66,767.183Z" fill="#0071bb" fill-rule="evenodd"/>
    </g>
  </g>
</svg>
