<?xml version="1.0" encoding="utf-8"?>
<!-- Generator: Adobe Illustrator 22.1.0, SVG Export Plug-In . SVG Version: 6.00 Build 0)  -->
<svg xmlns="http://www.w3.org/2000/svg" xmlns:xlink="http://www.w3.org/1999/xlink" x="0px" y="0px"
	 viewBox="0 0 120 120" style="enable-background:new 0 0 120 120;" xml:space="preserve">
  <defs>
    <clipPath id="clip-path">
      <rect id="Rectangle_4" data-name="Rectangle 4" width="120" height="120" transform="translate(2)" fill="#fff" stroke="#707070" stroke-width="1"/>
    </clipPath>
  </defs>
  <g id="icon-21a" transform="translate(-1176 -740)">
    <g id="Mask_Group_3" data-name="Mask Group 3" transform="translate(1174 740)" clip-path="url(#clip-path)">
      <g id="icon-21a-2" data-name="icon-21a" transform="translate(4 6)">
        <path id="Path_37" data-name="Path 37" d="M58.608,89.359h0a7.552,7.552,0,0,1-12.83-4.7h0A7.616,7.616,0,0,0,37.649,77.8h0a7.578,7.578,0,0,1-6.856-11.851h0a7.542,7.542,0,0,0-1.861-10.479h0a7.522,7.522,0,0,1,2.351-13.418h0a7.493,7.493,0,0,0,5.289-9.206h0a7.511,7.511,0,0,1,10.479-8.716h0a7.555,7.555,0,0,0,9.99-3.624h0a7.512,7.512,0,0,1,13.613,0h0a7.555,7.555,0,0,0,9.99,3.624h0a7.57,7.57,0,0,1,10.479,8.716h0a7.493,7.493,0,0,0,5.289,9.206h0a7.527,7.527,0,0,1,2.351,13.418h0A7.526,7.526,0,0,0,96.9,65.952h0A7.592,7.592,0,0,1,90.046,77.8h0a7.546,7.546,0,0,0-8.129,6.856h0a7.578,7.578,0,0,1-12.83,4.7h0A7.331,7.331,0,0,0,58.608,89.359Z" transform="translate(-2.196 -5.304)" fill="#bdc5d1" opacity="0.5"/>
        <path id="Path_38" data-name="Path 38" d="M53.908,78.259h0a7.552,7.552,0,0,1-12.83-4.7h0A7.616,7.616,0,0,0,32.949,66.7h0a7.578,7.578,0,0,1-6.856-11.851h0a7.542,7.542,0,0,0-1.861-10.479h0a7.522,7.522,0,0,1,2.351-13.418h0a7.493,7.493,0,0,0,5.289-9.206h0a7.511,7.511,0,0,1,10.479-8.716h0a7.555,7.555,0,0,0,9.99-3.624h0a7.512,7.512,0,0,1,13.613,0h0a7.525,7.525,0,0,0,9.99,3.624h0a7.57,7.57,0,0,1,10.479,8.716h0a7.493,7.493,0,0,0,5.289,9.206h0a7.527,7.527,0,0,1,2.351,13.418h0A7.526,7.526,0,0,0,92.2,54.852h0A7.592,7.592,0,0,1,85.346,66.7h0a7.546,7.546,0,0,0-8.129,6.856h0a7.578,7.578,0,0,1-12.83,4.7h0A7.331,7.331,0,0,0,53.908,78.259Z" transform="translate(-2.099 -5.075)" fill="#2562a2"/>
        <circle id="Ellipse_5" data-name="Ellipse 5" cx="14.789" cy="14.789" r="14.789" transform="translate(42.309 22.942)" fill="#fff"/>
        <path id="Path_39" data-name="Path 39" d="M79.5,92.457l11.459,21.448,9.5-14.2,17.041.1L102.418,71.4" transform="translate(-3.304 -6.443)" fill="none" stroke="#bdc5d1" stroke-linecap="round" stroke-linejoin="round" stroke-miterlimit="10" stroke-width="2"/>
        <path id="Path_40" data-name="Path 40" d="M39.7,92.457,28.241,113.905l-9.5-14.2L1.7,99.8,16.782,71.4" transform="translate(-1.7 -6.443)" fill="none" stroke="#bdc5d1" stroke-linecap="round" stroke-linejoin="round" stroke-miterlimit="10" stroke-width="2"/>
      </g>
    </g>
  </g>
</svg>
