<?xml version="1.0" encoding="utf-8"?>
<!-- Generator: Adobe Illustrator 22.1.0, SVG Export Plug-In . SVG Version: 6.00 Build 0)  -->
<svg xmlns="http://www.w3.org/2000/svg" xmlns:xlink="http://www.w3.org/1999/xlink" x="0px" y="0px"
	 viewBox="0 0 120 120" style="enable-background:new 0 0 120 120;" xml:space="preserve">
  <defs>
    <clipPath id="clip-path">
      <rect id="Rectangle_5" data-name="Rectangle 5" width="120" height="120" fill="none"/>
    </clipPath>
  </defs>
  <g id="icon-7a" transform="translate(-1174 -906)">
    <g id="Mask_Group_2" data-name="Mask Group 2" transform="translate(1174 906)" clip-path="url(#clip-path)">
      <g id="icon-7a-2" data-name="icon-7a" transform="translate(7 6)">
        <circle id="Ellipse_11" data-name="Ellipse 11" cx="35.919" cy="35.919" r="35.919" transform="translate(1.749 50.797) rotate(-45)" fill="#dee2e8"/>
        <g id="Group_7" data-name="Group 7" transform="translate(25.52 31.945)">
          <path id="Path_45" data-name="Path 45" d="M396.612,224.529l6.9-.564q.123,6.306,4.735,6.3a4.249,4.249,0,0,0,3.394-1.518,6.312,6.312,0,0,0,.028-7.676,4.757,4.757,0,0,0-3.861-1.535c-.415,0-.948.022-1.6.054V213.57a6.171,6.171,0,0,0,4.456-1.378,4.55,4.55,0,0,0,1.388-3.353,4.039,4.039,0,0,0-1.06-2.876,3.655,3.655,0,0,0-2.766-1.123q-3.818,0-3.822,4.746l-6.693-.52a9.772,9.772,0,0,1,3.256-7.434,11.56,11.56,0,0,1,7.734-2.576q5.282,0,8.2,2.526a8.613,8.613,0,0,1,2.919,6.894,8.361,8.361,0,0,1-5.35,8.136q6.636,2.157,6.644,8.544a9.753,9.753,0,0,1-3.427,7.924A13.123,13.123,0,0,1,409,235.938Q397.489,235.938,396.612,224.529Z" transform="translate(-396.612 -199.056)" fill="#2562a2"/>
          <path id="Path_46" data-name="Path 46" d="M422.554,235.938a10.311,10.311,0,0,1-9.15-4.752q-3.155-4.751-3.155-13.706,0-8.78,3.075-13.6a11.243,11.243,0,0,1,18.445-.022q3.083,4.8,3.088,13.622,0,8.987-3.165,13.717A10.329,10.329,0,0,1,422.554,235.938Zm-.054-5.825q2.759,0,3.476-4.368a50.808,50.808,0,0,0,.719-8.265,34.646,34.646,0,0,0-.963-9.425c-.641-2.14-1.7-3.215-3.178-3.215q-2.238,0-3.193,3.286a35.63,35.63,0,0,0-.95,9.379,34.861,34.861,0,0,0,.963,9.425C420.013,229.051,421.062,230.113,422.5,230.113Z" transform="translate(-380.805 -199.056)" fill="#2562a2"/>
        </g>
        <g id="Group_44" data-name="Group 44" transform="translate(0 1.944)">
          <g id="Group_25" data-name="Group 25">
            <g id="Group_24" data-name="Group 24">
              <g id="Group_23" data-name="Group 23">
                <g id="Group_8" data-name="Group 8" transform="translate(32.937)">
                  <path id="Path_47" data-name="Path 47" d="M403.32,192.709a5.836,5.836,0,0,1-3.066-3.673,5.848,5.848,0,0,1,7.848,3.832A5.843,5.843,0,0,1,403.32,192.709Z" transform="translate(-399.808 -181.175)" fill="#2562a2"/>
                  <path id="Path_48" data-name="Path 48" d="M404.16,189.939a5.826,5.826,0,0,1-3.673,3.066,5.84,5.84,0,0,1,3.826-7.844A5.807,5.807,0,0,1,404.16,189.939Z" transform="translate(-400.047 -185.161)" fill="#2562a2"/>
                </g>
                <g id="Group_9" data-name="Group 9" transform="translate(25.592 3.101)">
                  <path id="Path_49" data-name="Path 49" d="M400.727,194.066a5.863,5.863,0,0,1-3.658-3.088,5.847,5.847,0,0,1,8.393,2.407A5.845,5.845,0,0,1,400.727,194.066Z" transform="translate(-396.154 -182.57)" fill="#2562a2"/>
                  <path id="Path_50" data-name="Path 50" d="M400.635,191.332a5.84,5.84,0,0,1-3.083,3.655,5.846,5.846,0,0,1,2.405-8.39A5.825,5.825,0,0,1,400.635,191.332Z" transform="translate(-396.645 -186.597)" fill="#2562a2"/>
                </g>
                <g id="Group_10" data-name="Group 10" transform="translate(18.826 7.6)">
                  <path id="Path_51" data-name="Path 51" d="M398.362,195.925a5.833,5.833,0,0,1-4.139-2.4,5.854,5.854,0,0,1,8.684.911A5.823,5.823,0,0,1,398.362,195.925Z" transform="translate(-392.687 -184.827)" fill="#2562a2"/>
                  <path id="Path_52" data-name="Path 52" d="M397.44,193.226a5.828,5.828,0,0,1-2.405,4.137,5.847,5.847,0,0,1,.913-8.682A5.837,5.837,0,0,1,397.44,193.226Z" transform="translate(-393.512 -188.681)" fill="#2562a2"/>
                </g>
                <g id="Group_11" data-name="Group 11" transform="translate(12.853 13.369)">
                  <path id="Path_53" data-name="Path 53" d="M396.292,198.259a5.807,5.807,0,0,1-4.487-1.647,5.846,5.846,0,0,1,8.708-.609A5.829,5.829,0,0,1,396.292,198.259Z" transform="translate(-389.517 -187.891)" fill="#2562a2"/>
                  <path id="Path_54" data-name="Path 54" d="M394.663,195.57a5.856,5.856,0,0,1-1.647,4.5,5.849,5.849,0,0,1-.607-8.712A5.86,5.86,0,0,1,394.663,195.57Z" transform="translate(-390.745 -191.353)" fill="#2562a2"/>
                </g>
                <g id="Group_12" data-name="Group 12" transform="translate(7.846 20.229)">
                  <path id="Path_55" data-name="Path 55" d="M394.593,200.982a5.842,5.842,0,0,1-4.709-.844,5.847,5.847,0,0,1,8.47-2.114A5.825,5.825,0,0,1,394.593,200.982Z" transform="translate(-386.737 -191.657)" fill="#2562a2"/>
                  <path id="Path_56" data-name="Path 56" d="M392.4,198.291a5.855,5.855,0,0,1-.846,4.711,5.852,5.852,0,0,1-2.112-8.472A5.837,5.837,0,0,1,392.4,198.291Z" transform="translate(-388.427 -194.53)" fill="#2562a2"/>
                </g>
                <g id="Group_13" data-name="Group 13" transform="translate(3.961 27.972)">
                  <path id="Path_57" data-name="Path 57" d="M393.306,204.012a5.854,5.854,0,0,1-4.785-.011,5.847,5.847,0,0,1,7.976-3.556A5.845,5.845,0,0,1,393.306,204.012Z" transform="translate(-384.432 -196.017)" fill="#2562a2"/>
                  <path id="Path_58" data-name="Path 58" d="M390.712,201.305a5.834,5.834,0,0,1-.013,4.787,5.837,5.837,0,0,1-3.55-7.976A5.84,5.84,0,0,1,390.712,201.305Z" transform="translate(-386.627 -198.116)" fill="#2562a2"/>
                </g>
                <g id="Group_14" data-name="Group 14" transform="translate(1.322 36.36)">
                  <path id="Path_59" data-name="Path 59" d="M392.47,207.256a5.828,5.828,0,0,1-4.711.816A5.853,5.853,0,0,1,395,203.191,5.821,5.821,0,0,1,392.47,207.256Z" transform="translate(-382.677 -200.833)" fill="#2562a2"/>
                  <path id="Path_60" data-name="Path 60" d="M389.65,204.527a5.818,5.818,0,0,1,.816,4.711,5.837,5.837,0,0,1-4.88-7.237A5.822,5.822,0,0,1,389.65,204.527Z" transform="translate(-385.405 -202.001)" fill="#2562a2"/>
                </g>
                <g id="Group_15" data-name="Group 15" transform="translate(0 45.134)">
                  <path id="Path_61" data-name="Path 61" d="M392.122,210.617a5.835,5.835,0,0,1-4.5,1.624,5.843,5.843,0,0,1,6.279-6.065A5.826,5.826,0,0,1,392.122,210.617Z" transform="translate(-381.52 -205.955)" fill="#2562a2"/>
                  <path id="Path_62" data-name="Path 62" d="M389.248,207.851a5.819,5.819,0,0,1,1.626,4.5,5.85,5.85,0,0,1-6.065-6.281A5.834,5.834,0,0,1,389.248,207.851Z" transform="translate(-384.793 -206.065)" fill="#2562a2"/>
                </g>
                <g id="Group_16" data-name="Group 16" transform="translate(0.077 52.057)">
                  <path id="Path_63" data-name="Path 63" d="M392.328,213.954a5.824,5.824,0,0,1-4.148,2.379,5.847,5.847,0,0,1,5.13-7.063A5.823,5.823,0,0,1,392.328,213.954Z" transform="translate(-381.099 -209.271)" fill="#2562a2"/>
                  <path id="Path_64" data-name="Path 64" d="M389.507,211.222a5.871,5.871,0,0,1,2.386,4.15,5.842,5.842,0,0,1-7.065-5.132A5.826,5.826,0,0,1,389.507,211.222Z" transform="translate(-384.828 -208.305)" fill="#2562a2"/>
                </g>
                <g id="Group_17" data-name="Group 17" transform="translate(1.674 58.677)">
                  <path id="Path_65" data-name="Path 65" d="M393.123,217.115a5.845,5.845,0,0,1-3.675,3.07,5.842,5.842,0,0,1,3.826-7.848A5.814,5.814,0,0,1,393.123,217.115Z" transform="translate(-381.578 -212.337)" fill="#2562a2"/>
                  <path id="Path_66" data-name="Path 66" d="M390.353,214.59a5.843,5.843,0,0,1,3.068,3.675,5.849,5.849,0,0,1-7.853-3.826A5.83,5.83,0,0,1,390.353,214.59Z" transform="translate(-385.568 -210.412)" fill="#2562a2"/>
                </g>
                <g id="Group_18" data-name="Group 18" transform="translate(4.779 65.007)">
                  <path id="Path_67" data-name="Path 67" d="M394.472,220.008a5.849,5.849,0,0,1-3.085,3.655,5.85,5.85,0,0,1,2.407-8.395A5.85,5.85,0,0,1,394.472,220.008Z" transform="translate(-382.979 -215.269)" fill="#2562a2"/>
                  <path id="Path_68" data-name="Path 68" d="M391.741,217.852a5.841,5.841,0,0,1,3.655,3.083,5.844,5.844,0,0,1-8.39-2.4A5.852,5.852,0,0,1,391.741,217.852Z" transform="translate(-387.006 -212.536)" fill="#2562a2"/>
                </g>
                <g id="Group_19" data-name="Group 19" transform="translate(9.281 70.858)">
                  <path id="Path_69" data-name="Path 69" d="M396.336,222.526a5.8,5.8,0,0,1-2.4,4.137,5.853,5.853,0,0,1,.913-8.684A5.825,5.825,0,0,1,396.336,222.526Z" transform="translate(-385.238 -217.979)" fill="#2562a2"/>
                  <path id="Path_70" data-name="Path 70" d="M393.636,220.911a5.844,5.844,0,0,1,4.137,2.4,5.844,5.844,0,0,1-8.682-.911A5.848,5.848,0,0,1,393.636,220.911Z" transform="translate(-389.091 -214.618)" fill="#2562a2"/>
                </g>
                <g id="Group_20" data-name="Group 20" transform="translate(15.05 76.06)">
                  <path id="Path_71" data-name="Path 71" d="M398.672,224.6a5.845,5.845,0,0,1-1.647,4.5,5.843,5.843,0,0,1-.609-8.712A5.824,5.824,0,0,1,398.672,224.6Z" transform="translate(-388.301 -220.388)" fill="#2562a2"/>
                  <path id="Path_72" data-name="Path 72" d="M395.982,223.673a5.832,5.832,0,0,1,4.491,1.65,5.86,5.86,0,0,1-8.71.611A5.836,5.836,0,0,1,395.982,223.673Z" transform="translate(-391.763 -216.598)" fill="#2562a2"/>
                </g>
                <g id="Group_21" data-name="Group 21" transform="translate(21.91 80.445)">
                  <path id="Path_73" data-name="Path 73" d="M401.392,226.18a5.838,5.838,0,0,1-.846,4.707,5.841,5.841,0,0,1-2.11-8.468A5.831,5.831,0,0,1,401.392,226.18Z" transform="translate(-392.067 -222.419)" fill="#2562a2"/>
                  <path id="Path_74" data-name="Path 74" d="M398.7,226.051a5.833,5.833,0,0,1,4.7.844,5.841,5.841,0,0,1-8.468,2.112A5.833,5.833,0,0,1,398.7,226.051Z" transform="translate(-394.94 -218.41)" fill="#2562a2"/>
                </g>
                <g id="Group_22" data-name="Group 22" transform="translate(29.65 83.878)">
                  <path id="Path_75" data-name="Path 75" d="M404.42,227.2a5.817,5.817,0,0,1-.013,4.787,5.85,5.85,0,0,1-3.552-7.978A5.831,5.831,0,0,1,404.42,227.2Z" transform="translate(-396.425 -224.009)" fill="#2562a2"/>
                  <path id="Path_76" data-name="Path 76" d="M401.716,227.978a5.842,5.842,0,0,1,4.787.013,5.849,5.849,0,0,1-7.978,3.55A5.833,5.833,0,0,1,401.716,227.978Z" transform="translate(-398.525 -219.996)" fill="#2562a2"/>
                </g>
              </g>
              <path id="Path_77" data-name="Path 77" d="M408.088,190.062a5.823,5.823,0,0,1-4.763-.43,5.844,5.844,0,0,1,8.252-2.837A5.823,5.823,0,0,1,408.088,190.062Z" transform="translate(-363.311 -184.138)" fill="#2562a2"/>
            </g>
            <path id="Path_78" data-name="Path 78" d="M439.921,288.4a51.774,51.774,0,0,0-20.648-13.22c-.527-.19-1.01-.367-1.455-.527-18.53-6.853-30.755-24.325-30.42-43.483.376-21.552,16.552-40.078,38.45-44.051l.127.7c-21.57,3.915-37.493,22.153-37.865,43.368-.33,18.856,11.707,36.06,29.952,42.8.443.166.926.339,1.451.525,5.506,1.978,15.315,5.292,23.267,13.438Z" transform="translate(-381.781 -182.886)" fill="#2562a2"/>
          </g>
          <g id="Group_43" data-name="Group 43" transform="translate(44.093)">
            <g id="Group_42" data-name="Group 42" transform="translate(12.73)">
              <g id="Group_41" data-name="Group 41" transform="translate(7.037)">
                <g id="Group_26" data-name="Group 26">
                  <path id="Path_79" data-name="Path 79" d="M419.152,192.71a5.836,5.836,0,0,0,3.066-3.673,5.848,5.848,0,0,0-7.849,3.832A5.843,5.843,0,0,0,419.152,192.71Z" transform="translate(-414.369 -181.176)" fill="#2562a2"/>
                  <path id="Path_80" data-name="Path 80" d="M416.625,189.939a5.825,5.825,0,0,0,3.673,3.066,5.839,5.839,0,0,0-3.828-7.844A5.815,5.815,0,0,0,416.625,189.939Z" transform="translate(-412.443 -185.161)" fill="#2562a2"/>
                </g>
                <g id="Group_27" data-name="Group 27" transform="translate(6.335 3.096)">
                  <path id="Path_81" data-name="Path 81" d="M422.034,194.061a5.85,5.85,0,0,0,3.66-3.083,5.847,5.847,0,0,0-8.39,2.4A5.8,5.8,0,0,0,422.034,194.061Z" transform="translate(-417.303 -182.566)" fill="#2562a2"/>
                  <path id="Path_82" data-name="Path 82" d="M419.888,191.334a5.827,5.827,0,0,0,3.083,3.655,5.849,5.849,0,0,0-2.405-8.395A5.826,5.826,0,0,0,419.888,191.334Z" transform="translate(-414.572 -186.595)" fill="#2562a2"/>
                </g>
                <g id="Group_28" data-name="Group 28" transform="translate(12.186 7.6)">
                  <path id="Path_83" data-name="Path 83" d="M424.558,195.925a5.832,5.832,0,0,0,4.139-2.4,5.854,5.854,0,0,0-8.684.911A5.842,5.842,0,0,0,424.558,195.925Z" transform="translate(-420.013 -184.827)" fill="#2562a2"/>
                  <path id="Path_84" data-name="Path 84" d="M422.944,193.226a5.844,5.844,0,0,0,2.405,4.137,5.85,5.85,0,0,0-.913-8.682A5.836,5.836,0,0,0,422.944,193.226Z" transform="translate(-416.653 -188.681)" fill="#2562a2"/>
                </g>
                <g id="Group_29" data-name="Group 29" transform="translate(17.383 13.369)">
                  <path id="Path_85" data-name="Path 85" d="M426.641,198.259a5.8,5.8,0,0,0,4.487-1.647A5.846,5.846,0,0,0,422.42,196,5.825,5.825,0,0,0,426.641,198.259Z" transform="translate(-422.42 -187.891)" fill="#2562a2"/>
                  <path id="Path_86" data-name="Path 86" d="M425.7,195.57a5.858,5.858,0,0,0,1.65,4.5,5.849,5.849,0,0,0,.607-8.712A5.855,5.855,0,0,0,425.7,195.57Z" transform="translate(-418.629 -191.353)" fill="#2562a2"/>
                </g>
                <g id="Group_30" data-name="Group 30" transform="translate(21.768 20.229)">
                  <path id="Path_87" data-name="Path 87" d="M428.21,200.983a5.839,5.839,0,0,0,4.709-.844,5.844,5.844,0,0,0-8.468-2.114A5.826,5.826,0,0,0,428.21,200.983Z" transform="translate(-424.451 -191.658)" fill="#2562a2"/>
                  <path id="Path_88" data-name="Path 88" d="M428.086,198.291a5.838,5.838,0,0,0,.842,4.711,5.845,5.845,0,0,0,2.11-8.472A5.829,5.829,0,0,0,428.086,198.291Z" transform="translate(-420.441 -194.53)" fill="#2562a2"/>
                </g>
                <g id="Group_31" data-name="Group 31" transform="translate(25.204 27.972)">
                  <path id="Path_89" data-name="Path 89" d="M429.235,204.012a5.832,5.832,0,0,0,4.783-.015,5.847,5.847,0,0,0-7.976-3.552A5.854,5.854,0,0,0,429.235,204.012Z" transform="translate(-426.042 -196.017)" fill="#2562a2"/>
                  <path id="Path_90" data-name="Path 90" d="M430.011,201.305a5.841,5.841,0,0,0,.013,4.787,5.85,5.85,0,0,0,3.554-7.976A5.831,5.831,0,0,0,430.011,201.305Z" transform="translate(-422.029 -198.116)" fill="#2562a2"/>
                </g>
                <g id="Group_32" data-name="Group 32" transform="translate(27.587 36.36)">
                  <path id="Path_91" data-name="Path 91" d="M429.672,207.256a5.838,5.838,0,0,0,4.715.816,5.85,5.85,0,0,0-7.242-4.882A5.829,5.829,0,0,0,429.672,207.256Z" transform="translate(-427.146 -200.833)" fill="#2562a2"/>
                  <path id="Path_92" data-name="Path 92" d="M431.423,204.523a5.831,5.831,0,0,0-.816,4.716A5.843,5.843,0,0,0,435.489,202,5.83,5.83,0,0,0,431.423,204.523Z" transform="translate(-423.346 -202.001)" fill="#2562a2"/>
                </g>
                <g id="Group_33" data-name="Group 33" transform="translate(28.846 45.134)">
                  <path id="Path_93" data-name="Path 93" d="M429.517,210.618a5.823,5.823,0,0,0,4.5,1.624,5.847,5.847,0,0,0-6.281-6.065A5.825,5.825,0,0,0,429.517,210.618Z" transform="translate(-427.729 -205.956)" fill="#2562a2"/>
                  <path id="Path_94" data-name="Path 94" d="M432.283,207.851a5.829,5.829,0,0,0-1.626,4.5,5.853,5.853,0,0,0,6.067-6.281A5.842,5.842,0,0,0,432.283,207.851Z" transform="translate(-424.354 -206.065)" fill="#2562a2"/>
                </g>
                <g id="Group_34" data-name="Group 34" transform="translate(28.807 52.057)">
                  <path id="Path_95" data-name="Path 95" d="M428.827,213.954a5.832,5.832,0,0,0,4.148,2.379,5.844,5.844,0,0,0-5.13-7.063A5.839,5.839,0,0,0,428.827,213.954Z" transform="translate(-427.711 -209.271)" fill="#2562a2"/>
                  <path id="Path_96" data-name="Path 96" d="M432.543,211.222a5.853,5.853,0,0,0-2.384,4.15,5.842,5.842,0,0,0,7.063-5.132A5.825,5.825,0,0,0,432.543,211.222Z" transform="translate(-424.873 -208.305)" fill="#2562a2"/>
                </g>
                <g id="Group_35" data-name="Group 35" transform="translate(27.42 58.677)">
                  <path id="Path_97" data-name="Path 97" d="M427.661,217.115a5.82,5.82,0,0,0,3.675,3.066,5.839,5.839,0,0,0-3.828-7.844A5.824,5.824,0,0,0,427.661,217.115Z" transform="translate(-427.069 -212.337)" fill="#2562a2"/>
                  <path id="Path_98" data-name="Path 98" d="M432.123,214.59a5.84,5.84,0,0,0-3.07,3.675,5.853,5.853,0,0,0,7.851-3.826A5.819,5.819,0,0,0,432.123,214.59Z" transform="translate(-424.768 -210.412)" fill="#2562a2"/>
                </g>
                <g id="Group_36" data-name="Group 36" transform="translate(24.733 65.007)">
                  <path id="Path_99" data-name="Path 99" d="M426.051,220a5.811,5.811,0,0,0,3.083,3.655,5.842,5.842,0,0,0-2.407-8.39A5.851,5.851,0,0,0,426.051,220Z" transform="translate(-425.824 -215.269)" fill="#2562a2"/>
                  <path id="Path_100" data-name="Path 100" d="M431.024,217.852a5.828,5.828,0,0,0-3.658,3.083,5.842,5.842,0,0,0,8.391-2.4A5.848,5.848,0,0,0,431.024,217.852Z" transform="translate(-424.036 -212.536)" fill="#2562a2"/>
                </g>
                <g id="Group_37" data-name="Group 37" transform="translate(20.818 70.858)">
                  <path id="Path_101" data-name="Path 101" d="M424.044,222.526a5.807,5.807,0,0,0,2.4,4.137,5.849,5.849,0,0,0-.913-8.684A5.821,5.821,0,0,0,424.044,222.526Z" transform="translate(-424.011 -217.979)" fill="#2562a2"/>
                  <path id="Path_102" data-name="Path 102" d="M429.281,220.911a5.84,5.84,0,0,0-4.135,2.4,5.853,5.853,0,0,0,8.682-.911A5.852,5.852,0,0,0,429.281,220.911Z" transform="translate(-422.695 -214.618)" fill="#2562a2"/>
                </g>
                <g id="Group_38" data-name="Group 38" transform="translate(15.797 76.06)">
                  <path id="Path_103" data-name="Path 103" d="M421.7,224.6a5.845,5.845,0,0,0,1.647,4.5,5.842,5.842,0,0,0,.609-8.712A5.816,5.816,0,0,0,421.7,224.6Z" transform="translate(-421.685 -220.388)" fill="#2562a2"/>
                  <path id="Path_104" data-name="Path 104" d="M426.952,223.673a5.832,5.832,0,0,0-4.491,1.65,5.858,5.858,0,0,0,8.708.611A5.809,5.809,0,0,0,426.952,223.673Z" transform="translate(-420.786 -216.598)" fill="#2562a2"/>
                </g>
                <g id="Group_39" data-name="Group 39" transform="translate(9.824 80.441)">
                  <path id="Path_105" data-name="Path 105" d="M419.092,226.182a5.841,5.841,0,0,0,.846,4.707,5.847,5.847,0,0,0,2.112-8.472A5.852,5.852,0,0,0,419.092,226.182Z" transform="translate(-418.919 -222.417)" fill="#2562a2"/>
                  <path id="Path_106" data-name="Path 106" d="M424.1,226.051a5.831,5.831,0,0,0-4.7.844,5.841,5.841,0,0,0,8.468,2.112A5.838,5.838,0,0,0,424.1,226.051Z" transform="translate(-418.366 -218.406)" fill="#2562a2"/>
                </g>
                <g id="Group_40" data-name="Group 40" transform="translate(3.076 83.878)">
                  <path id="Path_107" data-name="Path 107" d="M416.3,227.2a5.816,5.816,0,0,0,.015,4.787,5.854,5.854,0,0,0,3.552-7.978A5.846,5.846,0,0,0,416.3,227.2Z" transform="translate(-415.794 -224.009)" fill="#2562a2"/>
                  <path id="Path_108" data-name="Path 108" d="M420.824,227.978a5.837,5.837,0,0,0-4.785.013,5.846,5.846,0,0,0,7.976,3.55A5.832,5.832,0,0,0,420.824,227.978Z" transform="translate(-415.51 -219.996)" fill="#2562a2"/>
                </g>
              </g>
              <path id="Path_109" data-name="Path 109" d="M414.6,190.062a5.841,5.841,0,0,0,4.763-.43,5.853,5.853,0,0,0-8.254-2.841A5.821,5.821,0,0,0,414.6,190.062Z" transform="translate(-411.11 -184.138)" fill="#2562a2"/>
            </g>
            <path id="Path_110" data-name="Path 110" d="M408.073,288.4l-2.859-.451c7.95-8.146,17.761-11.461,23.267-13.438.522-.186,1.006-.358,1.451-.525,18.245-6.743,30.28-23.947,29.951-42.8-.371-21.216-16.295-39.454-37.865-43.368l.125-.7c21.9,3.968,38.076,22.5,38.452,44.051.335,19.158-11.893,36.63-30.422,43.483-.443.16-.926.337-1.453.527A51.774,51.774,0,0,0,408.073,288.4Z" transform="translate(-405.214 -182.886)" fill="#2562a2"/>
          </g>
        </g>
      </g>
    </g>
  </g>
</svg>
