<svg xmlns="http://www.w3.org/2000/svg" xmlns:xlink="http://www.w3.org/1999/xlink" width="129" height="129" viewBox="0 0 129 129">
  <defs>
    <radialGradient id="radial-gradient" cx="997.362" cy="-6396.309" r="49.702" gradientTransform="matrix(1, 0, 0, -1, 0.001, -13470.672)" gradientUnits="userSpaceOnUse">
      <stop offset="0" stop-color="#fff"/>
      <stop offset="0.235" stop-color="#fff"/>
      <stop offset="0.484" stop-color="#fcfdfd"/>
      <stop offset="0.592" stop-color="#f5f7fa"/>
      <stop offset="0.674" stop-color="#e9edf3"/>
      <stop offset="0.741" stop-color="#d7dfea"/>
      <stop offset="0.801" stop-color="#bfcddd"/>
      <stop offset="0.854" stop-color="#a3b7ce"/>
      <stop offset="0.903" stop-color="#819cbc"/>
      <stop offset="0.949" stop-color="#597da8"/>
      <stop offset="0.99" stop-color="#2d5b91"/>
      <stop offset="1" stop-color="#22528b"/>
    </radialGradient>
    <radialGradient id="radial-gradient-2" cx="997.444" cy="403.829" r="64.5" gradientUnits="userSpaceOnUse">
      <stop offset="0.874" stop-color="#2c82be"/>
      <stop offset="0.904" stop-color="#266ba4"/>
      <stop offset="0.958" stop-color="#1c3e70"/>
    </radialGradient>
  </defs>
  <g id="fotografija" transform="translate(-932.944 -339.329)">
    <g id="Ellipse_15" data-name="Ellipse 15" opacity="0.45">
      <path id="Path_173" data-name="Path 173" d="M997.444,344.8a59.027,59.027,0,1,1-59.027,59.028A59.029,59.029,0,0,1,997.444,344.8Z" fill="url(#radial-gradient)"/>
      <path id="Path_174" data-name="Path 174" d="M997.444,345.3a58.527,58.527,0,1,1-58.527,58.528A58.528,58.528,0,0,1,997.444,345.3Z" fill="none" stroke="#707171" stroke-width="1"/>
    </g>
    <g id="Group_98" data-name="Group 98">
      <path id="Path_175" data-name="Path 175" d="M1050.6,406.067c.036-.674.052-1.387.052-2.242a52.922,52.922,0,0,0-7.893-27.883h.038l-1.011-1.52-.011-.017-.294-.441h-.013a53.712,53.712,0,0,0-23.754-19.335l.034-.024-1.725-.645-.019-.007-.479-.179-.011.008a53.372,53.372,0,0,0-30.589-1.673l.011-.034-1.775.492-.014.005-.5.139,0,.011a52.773,52.773,0,0,0-25.727,16.642l-.012-.038-1.143,1.437,0,0-.332.417,0,.011A52.593,52.593,0,0,0,944.4,399.759l-.028-.02-.083,1.835v.022l-.02.512,0,0c-.019.542-.031,1.1-.031,1.714a52.917,52.917,0,0,0,7.9,27.89h-.039l1.021,1.537.008.012.286.429h.012a53.717,53.717,0,0,0,23.747,19.329l-.033.025,1.714.64.012,0,.5.185.012-.008a53.386,53.386,0,0,0,30.589,1.684l-.013.037,1.776-.494h.006l.5-.141,0-.013a52.814,52.814,0,0,0,25.727-16.641l.012.039,1.142-1.438,0-.005.33-.416,0-.011a52.633,52.633,0,0,0,11.039-28.571l.012.008.1-1.814v-.025Zm-1.926-2.242c0,.106,0,.209,0,.31l-38.8-28.193h30.549A50.936,50.936,0,0,1,1048.674,403.825Zm-9.609-29.861H991.1L1015.827,356A51.723,51.723,0,0,1,1039.065,373.964Zm-25.492-18.772-.8.581-27.759,20.169h0l-10.255,7.452,9.441-29.06a51.526,51.526,0,0,1,29.371.858Zm-31.67-.187-7.48,23.025-7.342,22.6-9.44-29.041A50.842,50.842,0,0,1,981.9,355.005Zm-25.727,18.471.315.97L971,419.084l-24.713-17.952A50.636,50.636,0,0,1,956.176,373.476Zm-9.961,30.349c0-.1,0-.2,0-.3l38.8,28.188H954.471A50.939,50.939,0,0,1,946.215,403.825Zm9.61,29.868h47.949L979.056,451.65A51.684,51.684,0,0,1,955.825,433.693Zm41.619,21.362a50.979,50.979,0,0,1-16.133-2.6l9.726-7.065,29.085-21.129-9.441,29.065A51.354,51.354,0,0,1,997.444,455.055Zm15.535-2.4,14.822-45.632,9.441,29.053A50.878,50.878,0,0,1,1012.979,452.658Zm25.728-18.471-6.678-20.55-8.143-25.064,24.712,17.952A50.68,50.68,0,0,1,1038.707,434.187Zm-11.946-30.362-5.6,17.236L1006.5,431.715H988.378l-14.657-10.649-5.6-17.235,5.6-17.235,14.662-10.654h18.124l14.654,10.648Z" fill="#fff"/>
    </g>
    <path id="Path_176" data-name="Path 176" d="M997.445,369.989h0a33.84,33.84,0,1,0,33.841,33.84A33.84,33.84,0,0,0,997.444,369.989Z" fill="#fff"/>
    <path id="Path_177" data-name="Path 177" d="M999.864,379.639a7.16,7.16,0,0,0-.213-.787,5.151,5.151,0,0,0-4.821-3.671c-3.317-.015-6.707,1.841-9.642,3.286-3,1.475-6.913,3.179-9.232,5.692a36.952,36.952,0,0,0-5.352,7.98,26.917,26.917,0,0,0-2.615,10.09,4.958,4.958,0,0,0,2.477,4.317c6.007,3.156,13.125,1.456,14.3-5.641.338-2.031.209-2.694,1.183-4.417.116-.205.268-.409.411-.614a3.744,3.744,0,0,0,1.323,1.082l.286.133c2.167,1.006,4.958.773,6.446-1.219.853-.5,1.726-.965,2.613-1.44a8.62,8.62,0,0,0,4.313-5.129,4.633,4.633,0,0,0,0-2.584C1003.273,384.589,1002.2,381.251,999.864,379.639Z" fill="#fff"/>
    <path id="Path_178" data-name="Path 178" d="M1021.915,381.142c-10.726-8.755-25.573-13.723-38.415-6.76a1.415,1.415,0,0,0-1,.175,39.67,39.67,0,0,0-12.514,10.584c-3.25,4.377-4.2,8.833-5.132,14.017a1.506,1.506,0,0,0,.246,1.163,36.617,36.617,0,0,0,.336,10.69,1.461,1.461,0,0,0,.216.557c.892,3.687,2.752,6.543,4.242,10.021a16.479,16.479,0,0,0,1.978,3.611c.676.884,2.1,1.517,2.645,2.361,1.043,1.618,3.64.115,2.59-1.514a6.627,6.627,0,0,0-1.693-1.54,11.494,11.494,0,0,1-3.07-4.787c-1.41-3.244-3.16-5.881-3.916-9.413a1.584,1.584,0,0,0-.139-.381c-2.269-13.655,3.8-25.154,15.471-32.232,11.929-7.236,25.98-2.636,36.032,5.569C1021.276,384.474,1023.411,382.363,1021.915,381.142Z" fill="#fff"/>
    <g id="Group_62" data-name="Group 62">
      <g id="Group_61" data-name="Group 61">
        <path id="Path_115" data-name="Path 115" d="M997.444,369.989a33.84,33.84,0,1,0,33.841,33.84,33.84,33.84,0,0,0-33.841-33.84Zm-16.023,32.418-11.39-1.01a27.34,27.34,0,0,1,2.716-9.708l9.968,5.675A15.991,15.991,0,0,0,981.421,402.407Zm2.945-7.942-9.969-5.674a27.516,27.516,0,0,1,20.62-12.377l1.008,11.39A16.07,16.07,0,0,0,984.366,394.465Zm14.509-21.617a32.4,32.4,0,0,0-23.616,54.6,32.4,32.4,0,0,1,44.429-47.172q.705.666,1.371,1.371A32.288,32.288,0,0,0,998.875,372.848Z" fill="#1c3e70"/>
      </g>
    </g>
    <path id="Path_179" data-name="Path 179" d="M1005.138,403.829a7.694,7.694,0,1,1-7.694-7.694A7.693,7.693,0,0,1,1005.138,403.829Z" fill="#fff"/>
    <path id="Path_180" data-name="Path 180" d="M1025.571,399.771a25.633,25.633,0,0,1-.922,14.546l-.644,1.755c-.26.565-.552,1.117-.827,1.677a29.514,29.514,0,0,1-1.909,3.224,28.805,28.805,0,0,1-5.091,5.493,28.313,28.313,0,0,1-6.354,3.962,27.055,27.055,0,0,1-3.517,1.284,24.435,24.435,0,0,1-3.643.827,26.559,26.559,0,0,1-14.47-1.846,32.055,32.055,0,0,0,14.19.31,29.23,29.23,0,0,0,12.52-6.078,28.53,28.53,0,0,0,8.294-11.166A30.55,30.55,0,0,0,1025.571,399.771Z" fill="#fff"/>
    <path id="Path_181" data-name="Path 181" d="M997.444,468.329a64.206,64.206,0,0,1-36.063-11.016,64.82,64.82,0,0,1-17.42-17.421,64.53,64.53,0,1,1,99.092,9.546,64.612,64.612,0,0,1-20.5,13.822A64.117,64.117,0,0,1,997.444,468.329Zm0-117.708a53.208,53.208,0,1,0,53.208,53.208A53.269,53.269,0,0,0,997.444,350.621Z" fill="url(#radial-gradient-2)"/>
  </g>
</svg>
