<svg xmlns="http://www.w3.org/2000/svg" xmlns:xlink="http://www.w3.org/1999/xlink" width="207.394" height="105.533" viewBox="0 0 207.394 105.533">
  <defs>
    <radialGradient id="radial-gradient" cx="255.015" cy="306.916" r="65.561" gradientTransform="matrix(0.703, 0.238, -0.162, 0.479, -46.34, -1.998)" gradientUnits="userSpaceOnUse">
      <stop offset="0.224" stop-color="#d0d8e0"/>
      <stop offset="0.387" stop-color="#d7dde4"/>
      <stop offset="0.626" stop-color="#eaeef1"/>
      <stop offset="0.814" stop-color="#fff"/>
    </radialGradient>
    <linearGradient id="linear-gradient" y1="0.5" x2="1" y2="0.5" gradientUnits="objectBoundingBox">
      <stop offset="0.178" stop-color="#1c3e70"/>
      <stop offset="0.21" stop-color="#1d4275"/>
      <stop offset="0.42" stop-color="#235e94"/>
      <stop offset="0.622" stop-color="#2872ab"/>
      <stop offset="0.814" stop-color="#2b7db9"/>
      <stop offset="0.984" stop-color="#2c82be"/>
    </linearGradient>
  </defs>
  <g id="graficki-dizajn" transform="translate(-346.858 -376.314)">
    <g id="Group_111" data-name="Group 111" transform="translate(3 21)">
      <path id="Path_194" data-name="Path 194" d="M348.094,373.724l61.423,77.132h8.7l104.215-21.61,12.535,2.117,8.146-26.537-7.159-3.185-40.466-39.535-6.27-6-18.1,2.749Z" fill="#fff"/>
      <path id="Path_195" data-name="Path 195" d="M474.285,418.849c-5.882,17.352-31.276,24.427-56.721,15.8s-41.3-29.682-35.423-47.035,31.276-24.427,56.721-15.8S480.167,401.5,474.285,418.849Z" fill="url(#radial-gradient)"/>
      <path id="Path_39" data-name="Path 39" d="M439.35,412.433c-3.02.069-4.879-1.519-5.048-4.269a14.428,14.428,0,0,1,.689-4.649,8.712,8.712,0,0,0,.41-3.851,1.8,1.8,0,0,0-1.923-1.643,2.11,2.11,0,0,0-.276.027,11.644,11.644,0,0,0-4.373,1.221c-2.652,1.237-5.263,2.544-7.886,3.833-1.459.715-2.9,1.47-4.366,2.166a6.312,6.312,0,0,1-2.9.662,1.551,1.551,0,0,1-1.733-1.286,1.172,1.172,0,0,1-.006-.167,6.921,6.921,0,0,1,.416-2.395,27.676,27.676,0,0,1,5.271-8.181,39.245,39.245,0,0,1,7.015-6.394,5.868,5.868,0,0,0,1.9-1.98c.56-1.061.053-1.85-1.245-1.944a13.194,13.194,0,0,0-4.366.642,40.85,40.85,0,0,0-13.194,6.377,45.363,45.363,0,0,0-12.145,12.4c-.526.817-.985,1.666-1.454,2.508-.324.582-.6.758-1,.6-.429-.17-.47-.49-.147-1.118a37.09,37.09,0,0,1,5.6-7.914,49.563,49.563,0,0,1,16.193-11.9,31.388,31.388,0,0,1,8.846-2.69,7.816,7.816,0,0,1,2.26.042,2.264,2.264,0,0,1,2.2,2.372,2.032,2.032,0,0,1-.269.834,6.62,6.62,0,0,1-2.4,2.7,36.89,36.89,0,0,0-5.812,5.113,29.577,29.577,0,0,0-5.894,8.565,7.173,7.173,0,0,0-.454,1.625c-.119.777.346,1.181,1.156.939a20.585,20.585,0,0,0,3.059-1.171c2.846-1.386,5.642-2.857,8.483-4.249a23.83,23.83,0,0,1,6.118-2.235,7.4,7.4,0,0,1,1.312-.13,2.96,2.96,0,0,1,3.274,2.522c0,.037.006.074.008.111a11.176,11.176,0,0,1-.512,4.566,11.98,11.98,0,0,0-.574,4.033c.163,2.186,1.588,3.349,3.995,3.117a27.4,27.4,0,0,0,2.935-.584c.139-.027.269-.077.4-.115a.617.617,0,0,1,.785.256.54.54,0,0,1,.032.079.526.526,0,0,1-.294.723.7.7,0,0,1-.118.036A13.909,13.909,0,0,1,439.35,412.433Z" fill="#fff"/>
      <path id="Path_196" data-name="Path 196" d="M464.6,397.575a38.171,38.171,0,0,0,15.1.418c1.38-.24,3.016-.479,3.988.528.223.233.39.517.618.746a3.86,3.86,0,0,0,2.445.826l11.922,1.15a3.92,3.92,0,0,1,1.744.447,1.343,1.343,0,0,1,.634,1.547,11.489,11.489,0,0,0-5.235.645,27.43,27.43,0,0,1-3.566,1.361c-2.411.528-4.867-.4-7.235-1.1a39.459,39.459,0,0,0-12.464-1.563,44.556,44.556,0,0,1-6.188.094,8.549,8.549,0,0,1-5.529-2.47c-1.074-1.189-2.182-4.164-.768-5.508A6.777,6.777,0,0,0,464.6,397.575Z" fill="#dae3e8"/>
      <path id="Path_197" data-name="Path 197" d="M504,406.809a3.764,3.764,0,0,1,1.759.608c1.481,1.227-5.048-.219-4.988,3.121.014.813.925,1.254,1.7,1.491q6.267,1.917,12.537,3.831c-1.609.965-3.444,2.381-3.162,4.235.254,1.678,2.1,2.551,3.71,3.086a83.26,83.26,0,0,0,22.086,4.138,2.952,2.952,0,0,1-1.747,3.909,5.691,5.691,0,0,1-2.613-.054l-12.9-2.293A83.71,83.71,0,0,1,505.86,425.4a28.045,28.045,0,0,1-12.254-8.255c-1.87-2.313-3.224-5-4.944-7.422s-3.941-4.678-6.79-5.531c-.6-.178-3.079-1.3-1.307-1.61,1.5-.258,3.408.465,4.861.738q5.953,1.119,11.907,2.238Z" fill="#dae3e8"/>
      <path id="Path_198" data-name="Path 198" d="M458.9,407.955a2.454,2.454,0,0,0,.514,2.376,2.978,2.978,0,0,0,2.662.187l3.145-.79a1,1,0,0,1,.67-.01c.273.131.363.469.444.762a6.491,6.491,0,0,0,3.784,4.231,2.806,2.806,0,0,0,1.7.218,2.951,2.951,0,0,0,1.839-2.574,12.83,12.83,0,0,1,.569-3.291,6.892,6.892,0,0,1,1.581-1.985q1.256-1.229,2.513-2.459c.323-.315.669-.785.432-1.17a.982.982,0,0,0-.7-.352c-3.927-.714-7.992.475-11.946-.065a13.1,13.1,0,0,0-3.022-.288,4.522,4.522,0,0,0-3.031,1.662A7.75,7.75,0,0,0,458.9,407.955Z" fill="#c3ced7"/>
      <path id="Path_199" data-name="Path 199" d="M503.5,382.4c-.524-2.787-2.784-5-5.35-6.2a27.081,27.081,0,0,0-8.246-1.931,67.135,67.135,0,0,0-10.349-.763,22.459,22.459,0,0,0-10.008,2.412c-4.778,2.579-7.984,7.267-11,11.779-1.268,1.9-2.57,3.883-2.851,6.147-.14,1.141.153,2.541,1.227,2.951a2.309,2.309,0,0,0,2.236-.571,16.383,16.383,0,0,0,1.579-1.833c2.281-2.631,6.012-3.413,9.482-3.695,5.471-.444,10.961-.042,16.44-.013a65.215,65.215,0,0,0,8.219-.4c2.185-.266,4.134-.531,5.948-1.8A6.046,6.046,0,0,0,503.5,382.4Z" fill="#c3ced7"/>
      <path id="Path_200" data-name="Path 200" d="M458.423,389.253c.549.393,5.2-2.561,5.8-2.873a3.107,3.107,0,0,0,1.092-1.32,13.857,13.857,0,0,1,7.107-6.009,27.482,27.482,0,0,1,4.7-1.144,17.365,17.365,0,0,1,3.615-.4c1.779.053,3.526.653,5.3.536a13.293,13.293,0,0,0,5.6-2.182c.457-.263.984-.763.717-1.218a1.024,1.024,0,0,0-.836-.36,76.319,76.319,0,0,0-11.768-.482,25.542,25.542,0,0,0-11.267,3.094,19.18,19.18,0,0,0-6.973,7.018c-.236.411-.424.679-.2,1.123C461.516,385.452,458.052,388.988,458.423,389.253Z" fill="#fff"/>
      <path id="Path_89" data-name="Path 89" d="M545.854,436.757a68.261,68.261,0,0,0,3.975-14.224,125,125,0,0,0,1.246-17.684l-13.331-2.163V413.5l-2.352,10.465-3.408,9Z" fill="#b9c3cc"/>
      <path id="Path_201" data-name="Path 201" d="M540.639,410.826a14.227,14.227,0,0,0,2.422,7.453,3.582,3.582,0,0,1,.742,1.343,4.168,4.168,0,0,1-.442,2.026c-.847,2.529.132,5.271,1.149,7.737s2.1,5.133,1.455,7.72a54.2,54.2,0,0,0-11.551-3.03,2.043,2.043,0,0,1-1.356-.554,2.008,2.008,0,0,1-.069-1.815c1.286-4.37,2.9-8.639,4.139-13.022a40.822,40.822,0,0,0,1.82-13.479c-.047-.756-.158-2.206.809-2.5.9-.27,1.212.835,1.2,1.51C540.921,406.436,540.494,408.589,540.639,410.826Z" fill="#d0d8e0"/>
      <path id="Path_202" data-name="Path 202" d="M453.078,407.888a16.109,16.109,0,0,1-4.69,1.017,14.513,14.513,0,0,1-1.91.041c-.675-.031-.831-.31-.5-.892a16.792,16.792,0,0,1,1.381-2.107c.788-1.007,1.629-1.961,2.542-3.03A11.7,11.7,0,0,0,453.078,407.888Z" fill="#1c3e70"/>
      <path id="Path_203" data-name="Path 203" d="M461.515,402.513c-.187.144-.322.249-.467.352-1.878,1.245-3.756,2.47-5.624,3.737l-.022.02a.673.673,0,0,1-.944-.094A10.376,10.376,0,0,1,451.8,402.3c-.011-.011-.011-.011-.011-.021a.816.816,0,0,1,.437-1.069c1.857-1.1,3.693-2.241,5.531-3.362.166-.1.342-.2.57-.322h.01A6.92,6.92,0,0,0,461.515,402.513Z" fill="#2c82be"/>
      <path id="Path_204" data-name="Path 204" d="M519.808,361.842a4.459,4.459,0,0,1-.841,1.453,26.181,26.181,0,0,1-3.414,3.009q-16.516,11.1-33.064,22.168a1.494,1.494,0,0,1-.7.227c-2.418.125-4.826.218-7.244.354-1.09.061-2.18.238-3.436.373.354-.229.572-.384.8-.519q20.5-12.875,41.045-25.685a14.678,14.678,0,0,1,5.646-2.2,2.3,2.3,0,0,1,.706.021A.555.555,0,0,1,519.808,361.842Z" fill="#2c82be"/>
      <path id="Path_37" data-name="Path 37" d="M531.356,434.588c-.01-.011-.067,0-.078,0a3.364,3.364,0,0,0-.712-.244c-.051-.021-.061-.021-.114-.041a2.428,2.428,0,0,1-.712-.3.677.677,0,0,1-.187-.151,1.516,1.516,0,0,1-.374-.692c-.321.053-.81.168-1.112.229q-6.957,1.511-13.905,3.01-16.191,3.486-32.379,6.995-15.348,3.332-30.708,6.652-14.96,3.253-29.908,6.466c-3.094.674-6.186,1.349-9.3,1.951a5.651,5.651,0,0,1-5.241-1.485,26.342,26.342,0,0,1-2.335-2.48q-7.674-9.528-15.308-19.1-20.7-25.95-41.438-51.868a6.77,6.77,0,0,1-.965-6.933,8.919,8.919,0,0,1,.934-1.536c.281.332.447.54.623.758l30.355,38.045q12.079,15.147,24.149,30.272c1.619,2.024,3.175,4.079,4.826,6.071a6.384,6.384,0,0,0,4.929,2.636,18.216,18.216,0,0,0,3.6-.333c6.642-1.348,13.274-2.75,19.9-4.14q13.979-2.958,27.958-5.9,12.888-2.725,25.8-5.449l26.817-5.667,4.8-1.016c-.509-.105-1.028-.2-1.537-.291-.031,0-.072-.01-.1-.01q-1.464-.249-2.927-.437a4.519,4.519,0,0,0-.643-.083c-.01-.009-.01-.009-.021,0a.04.04,0,0,0-.031-.009,6.091,6.091,0,0,0-1.308.031c-4.493.9-8.966,1.867-13.449,2.811l-25.789,5.45q-13.155,2.769-26.287,5.541-13.2,2.8-26.4,5.552c-2.812.592-5.634,1.152-8.467,1.65a4.634,4.634,0,0,1-4.047-.913,15.046,15.046,0,0,1-1.848-1.878q-7.3-9.06-14.55-18.152-21.793-27.318-43.587-54.659c-.114-.135-.207-.28-.342-.457.208-.041.342-.083.488-.1l7.368-.9L370.72,371.9l12.111-1.494q6.49-.809,12.983-1.6l12.982-1.6q5.541-.684,11.073-1.37c3.716-.456,7.42-.923,11.136-1.38q6.055-.73,12.11-1.484,6.49-.795,12.983-1.6l11.176-1.38c3.737-.468,7.462-.914,11.188-1.381,2.781-.343,5.573-.675,8.344-1.09a4.163,4.163,0,0,1,3.849,1.205c2.357,2.355,4.743,4.68,7.13,7.015.9.882,1.807,1.754,2.719,2.646l.011.01c.228-.145.572.968.791.823.082-.052.416-.73.5-.792.31-.2.771-.553,1.082-.75-.114-.135-.7-.712-.785-.785q-4.342-4.281-8.717-8.551c-1.246-1.215-2.4-2.584-4.214-3.021l-2.314-.01a2.053,2.053,0,0,1-.353.1c-3.187.395-6.361.778-9.547,1.173l-13.637,1.68q-6.944.842-13.865,1.7c-4.618.571-9.236,1.152-13.854,1.713l-14.737,1.8q-7.362.933-14.725,1.826L391.4,367.124q-6.459.81-12.93,1.608-6.927.842-13.854,1.692-7.939.981-15.879,1.951a4.736,4.736,0,0,0-3.289,1.8,7.573,7.573,0,0,0-1.547,4.493,8.243,8.243,0,0,0,1.6,5.8q15.006,18.8,30.022,37.608c.115.135.219.281.4.509-.9.146-1.733.28-2.553.415-1.442.249-2.916.405-4.317.778-.166.042-.312.083-.467.135A4.161,4.161,0,0,0,366,429.193a6.261,6.261,0,0,0,2.657,3.591,9.493,9.493,0,0,0,7.109,1.381c2.584-.426,5.147-.945,7.72-1.433a.689.689,0,0,1,.788.281q6.494,8.172,13,16.293c2.263,2.823,4.536,5.625,6.85,8.395a9.041,9.041,0,0,0,3.32,2.574,8.563,8.563,0,0,0,5.293.281c4.6-.945,9.174-1.962,13.751-2.948l4.9-1.058c.955,1.981,2.657,2.656,4.671,2.812a16.991,16.991,0,0,0,5.053-.591q18.586-4.1,37.174-8.2,16.392-3.6,32.773-7.255a19.764,19.764,0,0,0,3.684-1.2,3.644,3.644,0,0,0,2.19-2.594,10.682,10.682,0,0,0,.166-1.515l14.628-3.177A3.809,3.809,0,0,0,531.356,434.588Zm-154.212-2.9a23.306,23.306,0,0,1-3.591.415,6,6,0,0,1-4.41-1.775,3.447,3.447,0,0,1-1.132-2.138,2.014,2.014,0,0,1,1.515-2.262,24.782,24.782,0,0,1,3.01-.592c1.535-.249,3.072-.478,4.608-.705a.632.632,0,0,1,.519.144c1.587,1.942,3.145,3.9,4.774,5.947C380.6,431.062,378.887,431.4,377.144,431.685Zm136.79,8.343a11.833,11.833,0,0,1-2.543.986q-19.662,4.359-39.312,8.7L439.3,456.934a9.344,9.344,0,0,1-3.757.176,2.958,2.958,0,0,1-1.869-1.058l81.02-17.529A1.444,1.444,0,0,1,513.934,440.028Z" fill="#1c3e70"/>
      <path id="Path_205" data-name="Path 205" d="M514.691,438.523a1.444,1.444,0,0,1-.757,1.505,11.833,11.833,0,0,1-2.543.986q-19.662,4.359-39.312,8.7L439.3,456.934a9.344,9.344,0,0,1-3.757.176,2.958,2.958,0,0,1-1.869-1.058Z" fill="#fff"/>
      <path id="Path_206" data-name="Path 206" d="M529,433.241c-.321.052-.633.094-.935.155q-6.957,1.511-13.905,3.01-16.191,3.486-32.379,6.995-15.348,3.332-30.708,6.652-14.96,3.253-29.908,6.466c-3.094.674-6.186,1.349-9.3,1.951a5.651,5.651,0,0,1-5.241-1.485,26.342,26.342,0,0,1-2.335-2.48q-7.674-9.528-15.308-19.1-20.7-25.95-41.438-51.868a6.77,6.77,0,0,1-.965-6.933,8.919,8.919,0,0,1,.934-1.536c.281.332.447.54.623.758l30.355,38.045q12.079,15.147,24.149,30.272c1.619,2.024,3.175,4.079,4.826,6.071a6.384,6.384,0,0,0,4.929,2.636,18.216,18.216,0,0,0,3.6-.333c6.642-1.348,13.274-2.75,19.9-4.14q13.979-2.958,27.958-5.9,12.888-2.725,25.8-5.449l26.817-5.667,4.8-1.016c-.509-.105-1.028-.2-1.537-.291.249.031.489.051.738.083,2.584.311,5.177.54,7.772.789.4.031.581.166.612.581a9.725,9.725,0,0,0,.2,1.63C529.072,433.22,529.044,433.23,529,433.241Z" fill="url(#linear-gradient)"/>
      <path id="Path_38" data-name="Path 38" d="M537.243,401.336c-.553.325-1.123.688-1.723.993a.618.618,0,0,1-.533-.153c-1.8-1.744-3.595-3.5-5.389-5.261l-18.642-18.283q-1.806-1.77-3.617-3.529c-.14-.137-1.079-.913-1.264-1.068l2.042-1.25Z" fill="#1c3e70"/>
      <path id="Path_207" data-name="Path 207" d="M495.489,381.507c-.876,1.167-1.4,2.532-2.189,3.76a34.449,34.449,0,0,1,5.145-.419,8.169,8.169,0,0,1,4.187.976c-1.818.019-5.328.325-7.144,1.758,4.152-.4,6.2,1.759,7.921,3.086a13.424,13.424,0,0,0,1.926-4.479,6.165,6.165,0,0,0-.032-2.387,20.246,20.246,0,0,0-1-1.985C501.118,371.348,496.636,379.976,495.489,381.507Z" fill="#fff"/>
      <path id="Path_208" data-name="Path 208" d="M497.554,376.407c-1.28.87-2.559,1.74-3.871,2.561-5.3,3.308-8.9,3.843-15.9,8.155a37.923,37.923,0,0,1-4.093,2.3c-1.38.624-4.176-.235-4.856,1.12,3.68.472,7.478.935,11.049-.067a27.833,27.833,0,0,0,7.713-4.06l29.433-19.7a10.115,10.115,0,0,0,2.934-2.573c.863-1.289,1.134-4.278-.97-4.648-1.32-.232-2.3,1.9-2.936,2.736a28.658,28.658,0,0,1-5.243,4.694c-2,1.577-4.06,3.088-6.139,4.563C502.323,373.164,499.939,374.786,497.554,376.407Z" fill="#63b5e2"/>
      <path id="Path_209" data-name="Path 209" d="M450.6,402.78a4.873,4.873,0,0,0,.932,2.758.829.829,0,0,0,.467.37.628.628,0,0,0,.534-.194,2.728,2.728,0,0,0,.351-.474,7.754,7.754,0,0,1,3.1-2.322,8.058,8.058,0,0,0,3.123-2.3,4.023,4.023,0,0,0,.487-3.58,1.056,1.056,0,0,0-.327-.519.827.827,0,0,0-.777-.056,2.641,2.641,0,0,0-.677.444,19.322,19.322,0,0,1-4.8,2.822,7.513,7.513,0,0,1-1.48.529c-.088-.285-.209-.126-.327.066a3.977,3.977,0,0,0-.339.76A4.864,4.864,0,0,0,450.6,402.78Z" fill="#63b5e2"/>
      <path id="Path_36" data-name="Path 36" d="M550.151,404.121c-4.191-.913-8.353-1.951-12.556-2.761a1.538,1.538,0,0,0-.374-.041,2.477,2.477,0,0,0-1.266.322,4.656,4.656,0,0,0-.664.684,4.18,4.18,0,0,0-.726,1.36c-.011.021-.063.031-.125.052-.2-.084-.416-.176-.633-.27a34.874,34.874,0,0,1-9.527-6.434,127.311,127.311,0,0,1-8.9-9.579,77.164,77.164,0,0,0-8.945-9c-.748-.612-1.516-1.194-2.284-1.8.934-.664,1.817-1.348,2.729-1.961a1.6,1.6,0,0,1,.167-.114l.072-.052c1.723-1.152,3.477-2.242,5.2-3.393,1.982-1.329,3.985-2.626,5.894-4.048a10.173,10.173,0,0,0,3.55-4.327,2.536,2.536,0,0,0,.31-1.225,2.636,2.636,0,0,0-2.635-2.657,5.227,5.227,0,0,0-1.205.011,13.842,13.842,0,0,0-5.448,1.93c-3.653,2.179-7.254,4.431-10.865,6.673-.155.093-.312.2-.467.29-.083.063-.177.114-.259.166-.229.135-.457.291-.686.436-2.273,1.422-4.534,2.865-6.817,4.3a1.108,1.108,0,0,1-.6.176c-1.774-.125-3.538-.291-5.313-.415a58.566,58.566,0,0,0-12.568.259,13.468,13.468,0,0,0-6.859,2.564,35.336,35.336,0,0,0-2.875,2.552,80.823,80.823,0,0,0-7.793,9.528c-1.993,2.77-3.353,5.749-2.18,9.308-.269.156-.518.312-.758.467-1.92,1.256-3.923,2.387-5.717,3.788a16.93,16.93,0,0,0-4.661,5.583,4.279,4.279,0,0,0-.581,2.844.481.481,0,0,1-.176.343c-.032.02-.052.041-.082.061a.72.72,0,0,0-.074,1.007.153.153,0,0,0,.032.042.743.743,0,0,0,1.047.114,1.188,1.188,0,0,1,.633-.042,4.735,4.735,0,0,0,.53.135,34.281,34.281,0,0,0,3.612-.021,14.076,14.076,0,0,0,7.316-2.552c.332-.249.7-.457,1.12-.727.074,2.149.83,3.746,2.99,4.286a4.735,4.735,0,0,0,5.064-1.556c.062.508.1.913.166,1.307a4.99,4.99,0,0,0,5.511,3.986c2.553-.229,4.037-1.962,4.067-4.7a3.291,3.291,0,0,1,.291-1.37,20.883,20.883,0,0,1,1.7-2.812,5.375,5.375,0,0,1,3.5-2.283,1.358,1.358,0,0,1,1.236.27c.777.653,1.619,1.245,2.386,1.93a29.944,29.944,0,0,1,5.043,6.361,36.779,36.779,0,0,0,5.459,7,34.406,34.406,0,0,0,11.188,6.726,54.16,54.16,0,0,0,9.672,2.667.04.04,0,0,1,.031.009c.011-.009.011-.009.021,0,1.183.218,2.377.4,3.57.52.031,0,.072.01.1.01.249.031.489.051.738.083,2.584.311,5.177.54,7.772.789.4.031.581.166.612.581a9.725,9.725,0,0,0,.2,1.63,2,2,0,0,0,.332.757.691.691,0,0,0,.187.156c.228.1.456.218.7.311.051.021.114.041.166.062a5.163,5.163,0,0,0,.768.28.036.036,0,0,1,.031.011,6.739,6.739,0,0,0,.893.269c4.358.965,8.738,1.9,13.107,2.833a.82.82,0,0,0,.217.063,1.054,1.054,0,0,0,1.205-.872c.156-.674-.187-1.162-.955-1.328-2.262-.5-4.514-.976-6.777-1.453-1.515-.332-3.04-.644-4.556-1.007-.892-.218-1.048-.55-.684-1.391.217-.529.5-1.027.684-1.557a76.052,76.052,0,0,0,4.826-25.061c0-1.1.166-1.225,1.224-.986,3.072.684,6.154,1.37,9.227,2.045.871.2,1.121.083,1.587-.655l.021-.778A1.623,1.623,0,0,0,550.151,404.121Zm-37.193-40.9a14.678,14.678,0,0,1,5.646-2.2,2.3,2.3,0,0,1,.706.021.555.555,0,0,1,.5.8,4.459,4.459,0,0,1-.841,1.453,26.181,26.181,0,0,1-3.414,3.009q-16.516,11.1-33.064,22.168a1.494,1.494,0,0,1-.7.227c-2.418.125-4.826.218-7.244.354-1.09.061-2.18.238-3.436.373.354-.229.572-.384.8-.519Q492.415,376.033,512.958,363.222Zm-55.531,29.452a9.832,9.832,0,0,1,1.754-3.694,97.061,97.061,0,0,1,8.209-10.025,13.636,13.636,0,0,1,8.591-4.172,66.24,66.24,0,0,1,11.915-.135,16.254,16.254,0,0,1,2.241.259l-14.373,8.988c.155-.53.28-.893.383-1.277a.856.856,0,0,0,.074-.177,1.068,1.068,0,0,0-.769-1.307.787.787,0,0,0-.166-.052,1.046,1.046,0,0,0-1.2.861c-.3.913-.571,1.848-.883,2.772a2.938,2.938,0,0,1-1.4,1.691c-.7.384-1.36.83-2.045,1.256a3.958,3.958,0,0,0-.2-.768,1,1,0,0,0-1.069-.53.954.954,0,0,0-.924.727,2.91,2.91,0,0,0-.072.592,2.194,2.194,0,0,1-2.054,2.3,9.2,9.2,0,0,0-5.024,2.284,6.023,6.023,0,0,0-1.3,1.68,3.263,3.263,0,0,1-1.671,1.495A5.124,5.124,0,0,1,457.427,392.674ZM448.388,408.9a14.513,14.513,0,0,1-1.91.041c-.675-.031-.831-.31-.5-.892a16.792,16.792,0,0,1,1.381-2.107c.788-1.007,1.629-1.961,2.542-3.03a11.7,11.7,0,0,0,3.176,4.971A16.109,16.109,0,0,1,448.388,408.9Zm7.036-2.3-.022.02a.673.673,0,0,1-.944-.094A10.376,10.376,0,0,1,451.8,402.3c-.011-.011-.011-.011-.011-.021a.816.816,0,0,1,.437-1.069c1.857-1.1,3.693-2.241,5.531-3.362.166-.1.342-.2.57-.322h.01a6.92,6.92,0,0,0,3.176,4.982c-.187.144-.322.249-.467.352C459.17,404.11,457.292,405.335,455.424,406.6Zm11.726-1.267c-1.131-.841-1.888-.581-2.2.7a7.937,7.937,0,0,0-.207,1.3,2.938,2.938,0,0,1-2.709,2.7,1.73,1.73,0,0,1-.322,0,1.978,1.978,0,0,1-1.784-2.159,8.036,8.036,0,0,1,.218-1.577.786.786,0,0,1,.321-.415c1.048-.706,2.1-1.4,3.166-2.086a.712.712,0,0,1,.445-.114c.665.114,1.319.29,1.983.384s1.348.114,2.106.166Zm7.638,1.339h-.02c-.954-.166-1.474.28-1.464,1.245.011,1.069.052,2.128.031,3.186-.041,1.484-.611,2.2-1.826,2.408a2.962,2.962,0,0,1-3.248-1.619,4.645,4.645,0,0,1-.072-3.072A7.256,7.256,0,0,1,470,405.543a4.737,4.737,0,0,1,3.373-1.619c1.308-.031,2.615-.135,3.985-.208Zm57.67,22.571c-1.857-.186-3.643-.352-5.428-.559-3-.343-6.008-.655-9-1.081a43.89,43.89,0,0,1-18.3-6.62,25.83,25.83,0,0,1-6.485-6.175,3.17,3.17,0,0,1,.373.187,19.608,19.608,0,0,0,10.066,4.026c.914.124,1.848.187,2.782.27.051.011.093.011.145.021a1.077,1.077,0,0,0,1.152-.986.8.8,0,0,0,0-.218,1.042,1.042,0,0,0-1.11-.986,26.356,26.356,0,0,1-7.006-1.3,17.907,17.907,0,0,1-7.814-5.77,61.45,61.45,0,0,0-4.161-4.68,13.416,13.416,0,0,0-9.755-3.736c-2.8.031-5.605.228-8.406.342a12.812,12.812,0,0,1-5.522-.7,5.19,5.19,0,0,1-3.3-3.082,4.115,4.115,0,0,1,1.931-4.92,10.674,10.674,0,0,1,4.607-1.307c2.647-.27,5.283-.56,7.929-.831a50.8,50.8,0,0,1,12.173.115,27.2,27.2,0,0,0,8.157.239,45.284,45.284,0,0,0,4.67-1.184,1.066,1.066,0,0,0,.2-.072.976.976,0,0,0,.5-1.308c-.011-.031-.021-.051-.032-.083a1.067,1.067,0,0,0-1.39-.591c-1.505.383-3.01.757-4.525,1.11a7.684,7.684,0,0,1-.965.094c.032-.457.082-.852.082-1.256v-.052a.946.946,0,0,0-.944-.944c-.03-.011-.052-.011-.083-.022a1.01,1.01,0,0,0-1.109.883c-.022.145-.032.29-.053.436-.135.83-.415,1.058-1.245.975l-4.11-.4c-.208-.02-.415-.062-.768-.124L502.228,377.9c1.619,1.339,3.289,2.646,4.867,4.068a111.524,111.524,0,0,1,8.935,9.558,72.621,72.621,0,0,0,9.236,9.247,32.9,32.9,0,0,0,11.478,6.082c.083.031.166.072.321.134A82.466,82.466,0,0,1,532.458,429.245Z" fill="#1c3e70"/>
      <path id="Path_210" data-name="Path 210" d="M451.158,405.371a6.2,6.2,0,0,0,3.286,2.684,2.89,2.89,0,0,1-2.292-.386,5.2,5.2,0,0,1-1.619-1.734,8.724,8.724,0,0,1-1.135-2.961,7.273,7.273,0,0,0-3.876,6.523,1.782,1.782,0,0,1-.559-1.46,4.084,4.084,0,0,1,.471-1.54,12.268,12.268,0,0,1,3.6-4.389,5.919,5.919,0,0,1,1.338-.878c.057.122-.024.37-.035.508-.015.173-.021.347-.021.52a6.2,6.2,0,0,0,.1,1.088A6.136,6.136,0,0,0,451.158,405.371Z" fill="#fff"/>
      <path id="Path_211" data-name="Path 211" d="M379.933,401.524l32.826,39.855a5.64,5.64,0,0,0,5.38,1.96L477.177,432.4" fill="none" stroke="#1c3e70" stroke-linecap="round" stroke-linejoin="round" stroke-width="1"/>
      <line id="Line_1" data-name="Line 1" x1="74.851" y2="10.912" transform="translate(409.517 364.303)" fill="none" stroke="#1c3e70" stroke-linecap="round" stroke-linejoin="round" stroke-width="1"/>
    </g>
  </g>
</svg>
