<svg xmlns="http://www.w3.org/2000/svg" width="159.539" height="180.207" viewBox="0 0 159.539 180.207">
  <g id="stamparija" transform="translate(-70.856 -316.905)">
    <path id="Path_212" data-name="Path 212" d="M80.273,359.743l-6.886,6.009-.858,10.406,3.094,9.22,7.839,8.4,3.423,1.8-.623,1.713-7.843,4.738-2.028,12.046,5.579,13.629,7.832,4.883h5.364l13.089-4.883,20.209-6.811V477.97l3.393,11.266,6.545,5.9,7.08-.627,12.552-3.88,53.857-19.2,4.935-1.717-.883-1.5-3.729-2.252-5.579-6.33-1.5-11.05.351-57.042,16.707-6.47,3.969-2.4,2.357-6.989-.426-7.99-2.682-7.677-5.4-4.63-5.22-2.606,5.229-3.171,4.266-5.305.483-6.973-2.361-8.153-5.149-7.51-6.223-2.79-6.866-.509Z" transform="translate(-0.092 -0.08)" fill="#fff"/>
    <path id="Path_213" data-name="Path 213" d="M89.729,361.566l.011,0,0,0Z" transform="translate(-1.033 -2.444)" fill="#1c3e70"/>
    <path id="Path_214" data-name="Path 214" d="M201.911,446.035v-.022s0,.043,0,.022Z" transform="translate(-7.174 -7.067)" fill="#1c3e70"/>
    <path id="Path_215" data-name="Path 215" d="M177.709,442.29l-.006,0v.024h.006Z" transform="translate(-5.849 -6.863)" fill="#1c3e70"/>
    <path id="Path_216" data-name="Path 216" d="M123.145,390.993l.007,0-.011-.006Z" transform="translate(-2.862 -4.055)" fill="#1c3e70"/>
    <path id="Path_217" data-name="Path 217" d="M143.212,418v.022s0-.041,0-.021Z" transform="translate(-3.961 -5.534)" fill="#1c3e70"/>
    <path id="Path_218" data-name="Path 218" d="M214.208,394.131" transform="translate(-7.847 -4.227)" fill="#1c3e70"/>
    <path id="Path_219" data-name="Path 219" d="M140.759,491.1h0l-.007,0Z" transform="translate(-3.826 -9.535)" fill="#1c3e70"/>
    <path id="Path_220" data-name="Path 220" d="M203.982,362.418h0Z" transform="translate(-7.287 -2.491)" fill="#1c3e70"/>
    <path id="Path_221" data-name="Path 221" d="M76.977,390.627l19.27-19.27,4.429,5.276L101.8,385.1l-2.836,9.734-8.21,3.427-7.741-1.578Z" transform="translate(-0.335 -2.981)" fill="#2c82be"/>
    <path id="Path_222" data-name="Path 222" d="M81.582,430.556l19.269-19.27,4.43,5.276,1.122,8.463-2.836,9.733-8.21,3.427-7.741-1.578Z" transform="translate(-0.587 -5.166)" fill="#2c82be"/>
    <circle id="Ellipse_54" data-name="Ellipse 54" cx="5.494" cy="5.494" r="5.494" transform="translate(84.923 409.763)" fill="#d0d8e0"/>
    <circle id="Ellipse_55" data-name="Ellipse 55" cx="5.494" cy="5.494" r="5.494" transform="translate(81.299 371.957)" fill="#d0d8e0"/>
    <path id="Path_223" data-name="Path 223" d="M99.265,368.881,221.48,326.11l2.97,5.5,1.778,6.138-.483,6.973-4.266,5.305L99.265,394.2l1.314-3.209,1.554-5.966.328-6.617-1.347-7.208Z" transform="translate(-1.555 -0.504)" fill="#2c82be"/>
    <path id="Path_224" data-name="Path 224" d="M103.837,407.567,226.053,364.8l2.972,5.5,1.776,6.139-.482,6.973-4.266,5.3L103.837,432.889l1.314-3.209,1.554-5.966.328-6.617-1.347-7.208Z" transform="translate(-1.805 -2.622)" fill="#2c82be"/>
    <path id="Path_225" data-name="Path 225" d="M92.8,386.011a7.235,7.235,0,0,0,1.148-4.04,9.551,9.551,0,0,0-.166-1.713,10.272,10.272,0,0,0-2.664-5.22,6.988,6.988,0,0,0-4.926-2.308,5.177,5.177,0,0,0-.958.091,5.126,5.126,0,0,0-3.359,2.252,7.222,7.222,0,0,0-1.148,4.04,9.388,9.388,0,0,0,.165,1.713,10.276,10.276,0,0,0,2.664,5.22,7,7,0,0,0,4.927,2.309,5.33,5.33,0,0,0,.958-.092A5.124,5.124,0,0,0,92.8,386.011Zm-2.641-1.76a2,2,0,0,1-1.291.892,2.191,2.191,0,0,1-.385.028,3.868,3.868,0,0,1-2.647-1.336,7.007,7.007,0,0,1-1.816-3.579,6.3,6.3,0,0,1-.1-1.14,4.06,4.06,0,0,1,.6-2.276,2,2,0,0,1,1.29-.9,2.38,2.38,0,0,1,.385-.026,3.862,3.862,0,0,1,2.646,1.338v0a7.014,7.014,0,0,1,1.818,3.579,6.4,6.4,0,0,1,.1,1.14A4.1,4.1,0,0,1,90.155,384.251Z" transform="translate(-0.54 -3.056)" fill="#1c3e70"/>
    <path id="Path_226" data-name="Path 226" d="M95.66,414.606a6.858,6.858,0,0,0-4.953-2.193h0a5.317,5.317,0,0,0-.838.087,5.231,5.231,0,0,0-3.47,2.37,7.431,7.431,0,0,0-1.109,4.24,9.179,9.179,0,0,0,.157,1.491,10.009,10.009,0,0,0,2.675,5.179,6.841,6.841,0,0,0,4.952,2.193,5.1,5.1,0,0,0,.839-.085,5.239,5.239,0,0,0,3.471-2.372,7.443,7.443,0,0,0,1.108-4.241,9.492,9.492,0,0,0-.156-1.49A10.017,10.017,0,0,0,95.66,414.606Zm-.942,9.179a2.113,2.113,0,0,1-1.378.977A2.047,2.047,0,0,1,93,424.8a3.736,3.736,0,0,1-2.622-1.261,6.787,6.787,0,0,1-1.8-3.509,6.153,6.153,0,0,1-.107-.993,4.28,4.28,0,0,1,.6-2.434,2.109,2.109,0,0,1,1.376-.975,1.963,1.963,0,0,1,.341-.035,3.738,3.738,0,0,1,2.622,1.259,6.783,6.783,0,0,1,1.8,3.51,6.272,6.272,0,0,1,.107.993A4.274,4.274,0,0,1,94.718,423.785Z" transform="translate(-0.79 -5.228)" fill="#1c3e70"/>
    <path id="Path_227" data-name="Path 227" d="M207.886,457.842,131.7,484.764l.661,6.845,4.726,7.011,5.672,4.151,6.46-.686,69.359-24.734,1.3-1.753-4.136-1.713-4.844-5.494-2.422-6.794Z" transform="translate(-3.331 -7.715)" fill="#d0d8e0" fill-rule="evenodd"/>
    <path id="Path_228" data-name="Path 228" d="M131.437,402.754V414.1l1.1,12.761,75.247-26.782v-24.3l-3.131-5.708-74.783,25.529Z" transform="translate(-3.23 -2.91)" fill="#fff"/>
    <path id="Path_229" data-name="Path 229" d="M130.342,479.293a26.312,26.312,0,0,0,3.673,14.625,16.109,16.109,0,0,0,1.112,1.626,17.3,17.3,0,0,0,7.135,5.278l.5.208a5.617,5.617,0,0,0,4.01.1l75.27-26.676a1.7,1.7,0,0,0-.337-3.292h0a11.935,11.935,0,0,1-8.787-5.669c-2.253-3.512-3.375-8.375-3.323-13.979,0-2.663,0-50.536.01-55.325l-3.093,1.17-.093,54.13c-.06,6.217,1.235,11.683,3.82,15.723a15.445,15.445,0,0,0,6.35,5.747l.008,0,0,.009-.011-.007L147.25,497.465a7.08,7.08,0,0,1-6.076-.642,13.056,13.056,0,0,1-4.458-4.591,23.25,23.25,0,0,1-3.2-12.869l.123-56.232-3.187,1.205-.032,10.378Z" transform="translate(-3.255 -4.34)" fill="#1c3e70"/>
    <path id="Path_230" data-name="Path 230" d="M230.03,368.8a23.682,23.682,0,0,0-6.294-12.357,17.821,17.821,0,0,0-5.857-4.03c.509-.194.963-.362,1.086-.424a12.306,12.306,0,0,0,5.993-6.913,19.636,19.636,0,0,0,.764-10.355,24.352,24.352,0,0,0-6.279-12.489A15.861,15.861,0,0,0,208.29,316.9a11.555,11.555,0,0,0-1.8.145,10.078,10.078,0,0,0-1.055.221l-.024.009c-.217.057-.432.122-.644.193l.006.017-124.351,41a11.835,11.835,0,0,0-6.8,4.982,17.752,17.752,0,0,0-2.771,9.926,24.226,24.226,0,0,0,.413,4.373,26.368,26.368,0,0,0,6.834,13.412,19.547,19.547,0,0,0,7.06,4.775l-.461.164a12.191,12.191,0,0,0-6.833,5.215,18.308,18.308,0,0,0-2.7,10.456,24.278,24.278,0,0,0,.4,3.807,25.649,25.649,0,0,0,6.849,13.268,16.685,16.685,0,0,0,12,5.414,12.247,12.247,0,0,0,1.939-.2c.346-.066.692-.148,1.038-.243l.011.029.416-.159a11.536,11.536,0,0,0,1.088-.412l28.339-10.715,3.108-1.175.092-13c.061-6.217-1.235-11.682-3.819-15.723a15.456,15.456,0,0,0-6.351-5.748l-.007,0,0-.009.01.006,71.846-25.39a13.068,13.068,0,0,1,8.032,6.118,23.243,23.243,0,0,1,3.2,12.869l-.124,13.317,3.187-1.206.017-.006,14.163-5.357,1.482-.561-.009-.025c.54-.216,1.051-.423,1.211-.506a12.685,12.685,0,0,0,5.97-7.031A19.751,19.751,0,0,0,230.03,368.8ZM80.378,388.966a23.155,23.155,0,0,1-5.987-11.772,21.01,21.01,0,0,1-.346-3.8,14.609,14.609,0,0,1,2.223-8.159,8.631,8.631,0,0,1,5.621-3.825,9.214,9.214,0,0,1,1.635-.139c3.408,0,6.864,1.809,9.695,4.732a23.141,23.141,0,0,1,5.988,11.773,21.072,21.072,0,0,1,.346,3.8,14.616,14.616,0,0,1-2.224,8.161,8.953,8.953,0,0,1-3.743,3.24l-1.255.446v0c-.2.052-.412.1-.622.138a9.018,9.018,0,0,1-1.634.143C86.667,393.7,83.21,391.888,80.378,388.966Zm21.3,37.9a9.324,9.324,0,0,1-3.967,3.489l-.956.362h0a8.491,8.491,0,0,1-.97.239,9.165,9.165,0,0,1-1.437.148,13.571,13.571,0,0,1-9.676-4.478,22.425,22.425,0,0,1-5.974-11.6,20.876,20.876,0,0,1-.353-3.307,15.138,15.138,0,0,1,2.194-8.647,8.953,8.953,0,0,1,5.885-4.095,9.677,9.677,0,0,1,1.441-.147,13.583,13.583,0,0,1,9.673,4.48,22.429,22.429,0,0,1,5.977,11.6,21.114,21.114,0,0,1,.345,3.307A15.152,15.152,0,0,1,101.675,426.864ZM123.963,394.4c2.253,3.511,3.375,8.374,3.323,13.979q0,5.4-.018,10.795h0l-22.349,8.45a18.8,18.8,0,0,0,2.12-9.489,24.277,24.277,0,0,0-.4-3.808,25.653,25.653,0,0,0-6.849-13.267A19.066,19.066,0,0,0,93,396.56l.072-.026v.008l.433-.15c.361-.109.708-.233,1.055-.373l20.614-7.285A11.93,11.93,0,0,1,123.963,394.4Zm-23.37-3.913a18.3,18.3,0,0,0,2.154-8.918,24.308,24.308,0,0,0-.414-4.371A26.382,26.382,0,0,0,95.5,363.787a19.672,19.672,0,0,0-6.792-4.669l-.01,0,.006,0,0,0,117.718-38.81c.182-.044.37-.081.561-.11a8.256,8.256,0,0,1,1.3-.1,12.717,12.717,0,0,1,8.859,4.339,21.106,21.106,0,0,1,5.434,10.834,16.491,16.491,0,0,1-.6,8.682,9.16,9.16,0,0,1-4.411,5.172c-.082.041-1.078.407-1.761.661l-.672.249-4.309,1.524-.062.012a11.213,11.213,0,0,0-1.724.455l.008.026Zm125.685-12.43a9.545,9.545,0,0,1-4.437,5.309c-.036.019-1.064.423-1.767.7-.354.136-.622.246-.7.277l-12.911,4.882.08-8.626a26.447,26.447,0,0,0-3.672-14.626,17.462,17.462,0,0,0-6.174-6.052h0v0h0l14.932-5.277a8.286,8.286,0,0,1,.992-.082,12.351,12.351,0,0,1,8.834,4.11,20.452,20.452,0,0,1,5.426,10.675A16.638,16.638,0,0,1,226.278,378.06Z" fill="#1c3e70"/>
    <path id="Path_231" data-name="Path 231" d="M196.722,447.267c-3.258,1.01-5.105,1.6-8.1,2.549l-2.71.865c-2.8.9-4.634,1.487-7.863,2.478a6.214,6.214,0,0,1-.9.216,3.963,3.963,0,0,1-.855.048,2.521,2.521,0,0,1-.71-.15,2.13,2.13,0,0,1-1.311-1.251c-.414-1.06-.722-1.857-1.029-2.654s-.626-1.585-1.04-2.645c.464-.13.9-.263,1.334-.387,3.4-.99,6.144-1.832,8.814-2.671v-.019l-.228-.564-1.345-3.47c-.058-.146-.106-.282-.163-.419l-.364-.942-1.46-3.742c-2.379-6.2-3.634-9.464-6.085-16-.363,1.056-.693,2.038-1.019,2.963-1.02,2.993-1.873,5.448-2.751,8s-1.8,5.207-2.969,8.6c-.663,1.889-1.071,3.065-1.608,4.593l-.606,1.732-1.758,5.01-.011.037c-.268.759-.491,1.4-.709,2l-2,5.673a4.682,4.682,0,0,1-.735,1.24,5.941,5.941,0,0,1-.631.669,4.7,4.7,0,0,1-1.561.977c-.262.106-6.719,2.155-10.388,3.317h-.009s1.165-2.926,1.887-4.7,2.047-5.2,2.772-6.977v-.009c1.651-4.1,2.478-6.156,4.132-10.292,1.973-4.949,2.968-7.431,4.942-12.408,2.088-5.262,3.134-7.9,5.223-13.185l.933-2.545a9.5,9.5,0,0,1,.556-1.1c.054-.1.107-.192.161-.284.085-.136.177-.253.26-.371.063-.081.115-.164.178-.245.124-.152.266-.295.407-.438a1.173,1.173,0,0,1,.1-.106,7.149,7.149,0,0,1,3.328-1.658c.761-.186,1.147-.285,1.908-.481l.164-.046c.838-.21,1.263-.324,2.1-.554a8.031,8.031,0,0,1,.933-.2c.028-.008.046-.006.077-.013a5.91,5.91,0,0,1,1.266-.089,1.3,1.3,0,0,1,.178.031l.112.008a4.01,4.01,0,0,1,.5.118.051.051,0,0,1,.037.012,2.4,2.4,0,0,1,.471.21c.017.01.026.021.036.022a3.188,3.188,0,0,1,1.045,1.1c1.925,4.3,3.06,6.8,4.706,10.454l1.506,3.319c1.534,3.341,2.421,5.283,4.06,8.886,1.481,3.279,2.218,4.92,3.668,8.226C194.877,442.9,195.5,444.365,196.722,447.267Z" transform="translate(-4.111 -4.965)" fill="#2c82be" fill-rule="evenodd"/>
  </g>
</svg>
