<svg xmlns="http://www.w3.org/2000/svg" xmlns:xlink="http://www.w3.org/1999/xlink" width="198.504" height="138.705" viewBox="0 0 198.504 138.705">
  <defs>
    <radialGradient id="radial-gradient" cx="-3980.405" cy="4122.36" r="86.853" gradientTransform="matrix(0.498, 0.498, -3.988, 3.988, 12768.901, -8995.852)" gradientUnits="userSpaceOnUse">
      <stop offset="0" stop-color="#1c3e70"/>
      <stop offset="0.603" stop-color="#2668a0"/>
      <stop offset="0.984" stop-color="#2c82be"/>
    </radialGradient>
  </defs>
  <g id="web-razvoj" transform="translate(-615.112 -321.437)">
    <path id="Path_183" data-name="Path 183" d="M645.352,421.465v-96.8c0-1.233,0-2.7,2.233-2.233H786.238a.654.654,0,0,1,.654.653v98.381a.655.655,0,0,1-.654.654H646.005A.654.654,0,0,1,645.352,421.465Z" transform="translate(-1.758 -0.024)" fill="url(#radial-gradient)"/>
    <g id="Group_101" data-name="Group 101" transform="translate(643.198 321.937)">
      <path id="Rectangle_141" data-name="Rectangle 141" d="M2.588,0H139.746a2.587,2.587,0,0,1,2.587,2.587V98.04a2.587,2.587,0,0,1-2.587,2.587H2.588A2.588,2.588,0,0,1,0,98.039V2.588A2.588,2.588,0,0,1,2.588,0Z" fill="none" stroke="#1c3e70" stroke-miterlimit="10" stroke-width="1"/>
    </g>
    <rect id="Rectangle_142" data-name="Rectangle 142" width="129.751" height="84.849" transform="translate(649.489 329.826)" fill="#fff"/>
    <g id="Group_103" data-name="Group 103" transform="translate(662.961 329.826)" opacity="0.5">
      <g id="Group_102" data-name="Group 102">
        <path id="Path_184" data-name="Path 184" d="M665.921,415.165H782.2V330.315H767.486Z" transform="translate(-665.921 -330.315)" fill="#e6eaed"/>
      </g>
    </g>
    <g id="Group_104" data-name="Group 104" transform="translate(615.284 424.325)">
      <path id="Path_185" data-name="Path 185" d="M813.479,461.9h-1.338v.954L786.709,431.9c-.555-.674-3.132-1.214-5.761-1.214H647.815c-2.631,0-5.206.54-5.761,1.214l-24.691,30.052h-2.079v2.872h0c.035.965,2.021,1.679,5.067,1.679H808.409c3.056,0,5.042-.717,5.067-1.686h0Z" transform="translate(-615.284 -430.682)" fill="#1c3e70"/>
    </g>
    <g id="Group_105" data-name="Group 105" transform="translate(615.491 421.418)">
      <path id="Path_186" data-name="Path 186" d="M808.189,463.41H620.565c-3.709,0-5.845-1.06-4.793-2.344l26.444-32.258c.553-.675,3.122-1.215,5.748-1.215H780.79c2.625,0,5.2.54,5.748,1.215l26.443,32.258C814.034,462.349,811.9,463.41,808.189,463.41Z" transform="translate(-615.503 -427.594)" fill="#fff" stroke="#1c3e70" stroke-miterlimit="10" stroke-width="0.75"/>
    </g>
    <g id="Group_106" data-name="Group 106" transform="translate(688.822 444.085)">
      <path id="Path_187" data-name="Path 187" d="M742.428,462.861h-47c-1.216,0-2.13-.346-2.039-.767l2.085-9.786c.075-.354,1.03-.639,2.134-.639h42.636c1.1,0,2.06.285,2.134.639l2.086,9.786C744.556,462.516,743.645,462.861,742.428,462.861Z" transform="translate(-693.387 -451.668)" fill="#e7ebef"/>
    </g>
    <g id="Group_107" data-name="Group 107" transform="translate(634.338 423.453)">
      <path id="Path_188" data-name="Path 188" d="M794.013,448.535H637.082c-1.086,0-1.76-.273-1.509-.609l13.265-17.751a3.309,3.309,0,0,1,1.936-.42H780.322a3.3,3.3,0,0,1,1.935.42l13.264,17.751C795.773,448.262,795.1,448.535,794.013,448.535Z" transform="translate(-635.521 -429.755)" fill="#d0d8e0"/>
    </g>
    <path id="Path_189" data-name="Path 189" d="M661.622,439.811c.5,0,.829.137.735.307l-1.345,2.5c-.1.18-.592.326-1.106.326H643.338c-.514,0-.826-.146-.7-.326l1.8-2.5a1.706,1.706,0,0,1,1.124-.307h16.06Zm11.241,2.857,1.1-2.6c.059-.143-.295-.259-.793-.259h-7.128c-.5,0-.961.116-1.035.259l-1.33,2.6c-.078.152.276.275.79.275h7.353C672.33,442.943,672.8,442.82,672.864,442.668Zm11.877,0,.794-2.6c.043-.143-.326-.259-.824-.259h-7.128c-.5,0-.947.116-1,.259l-1.026,2.6c-.06.152.307.275.821.275h7.354C684.24,442.943,684.694,442.82,684.74,442.668Zm11.878,0,.49-2.6c.026-.143-.355-.259-.854-.259h-7.128c-.5,0-.934.116-.974.259l-.724,2.6c-.042.152.341.275.855.275h7.353C696.149,442.943,696.59,442.82,696.618,442.668Zm23.755,0-.117-2.6c-.007-.143-.416-.259-.914-.259h-7.128c-.5,0-.907.116-.913.259l-.117,2.6c-.008.152.4.275.917.275h7.354C719.968,442.943,720.38,442.82,720.373,442.668Zm-11.878,0,.186-2.6c.009-.143-.386-.259-.884-.259H700.67c-.5,0-.921.116-.944.259l-.42,2.6c-.025.152.371.275.886.275h7.353C708.059,442.943,708.485,442.82,708.5,442.668Zm23.755,0-.42-2.6c-.024-.143-.446-.259-.944-.259h-7.128c-.5,0-.894.116-.884.259l.186,2.6c.011.152.437.275.95.275h7.353C731.878,442.943,732.274,442.82,732.251,442.668Zm11.878,0-.725-2.6c-.039-.143-.475-.259-.974-.259H735.3c-.5,0-.88.116-.853.259l.489,2.6c.03.152.469.275.983.275h7.354C743.788,442.943,744.17,442.82,744.128,442.668Zm11.877,0-1.027-2.6c-.055-.143-.507-.259-1-.259h-7.128c-.5,0-.866.116-.823.259l.792,2.6c.046.152.5.275,1.016.275h7.353C755.7,442.943,756.065,442.82,756,442.668Zm11.878,0-1.33-2.6c-.073-.143-.537-.259-1.034-.259h-7.129c-.5,0-.853.116-.791.259l1.095,2.6c.064.152.532.275,1.046.275h7.354C767.607,442.943,767.961,442.82,767.882,442.668ZM659.638,447l1.493-2.821c.082-.155-.272-.281-.79-.281H653.85a1.667,1.667,0,0,0-1.11.281L651.016,447c-.1.164.252.3.788.3h6.7C659.045,447.3,659.551,447.162,659.638,447Zm-11.422,0,1.8-2.821c.1-.155-.242-.281-.761-.281h-6.591a1.813,1.813,0,0,0-1.141.281L639.491,447c-.119.164.22.3.755.3h6.808A1.76,1.76,0,0,0,648.216,447Zm22.82,0,1.191-2.821c.064-.155-.3-.281-.822-.281H664.94c-.52,0-1,.125-1.082.281L662.439,447c-.083.164.284.3.82.3h6.681C670.476,447.3,670.967,447.162,671.036,447Zm109.631,0-1.725-2.821a1.678,1.678,0,0,0-1.113-.281h-6.49c-.518,0-.871.125-.789.281l1.5,2.821c.088.164.592.3,1.129.3h6.7C780.414,447.3,780.767,447.162,780.667,447Zm-11.423,0-.573-1.138c-.083-.161-.574-.291-1.1-.291h-6.7c-.527,0-.9.13-.833.291l.48,1.138c.071.164.561.3,1.1.3h6.809C768.96,447.3,769.328,447.162,769.244,447Zm22.821,0-.819-1.138a1.829,1.829,0,0,0-1.163-.291H783.51c-.526,0-.871.13-.768.291l.726,1.138a1.764,1.764,0,0,0,1.162.3h6.679C791.846,447.3,792.184,447.162,792.065,447Zm-108.646,0,.861-2.821c.047-.155-.335-.281-.854-.281H676c-.518,0-.989.125-1.051.281L673.838,447c-.066.164.316.3.852.3h7.668C682.895,447.3,683.369,447.162,683.419,447Zm74.3,0-1.117-2.821c-.06-.155-.531-.281-1.05-.281H748.13c-.519,0-.9.125-.854.281l.861,2.821c.051.164.525.3,1.062.3h7.666C757.4,447.3,757.782,447.162,757.718,447Zm20.245-7.187h-8.03c-.5,0-.828.137-.736.307l1.346,2.5c.1.18.592.326,1.1.326h16.57c.514,0,.825-.146.7-.326l-1.8-2.5a1.7,1.7,0,0,0-1.122-.307Zm-124.513-3.774h-5.209a1.646,1.646,0,0,0-1.072.284l-1.661,2.31c-.119.166.185.3.678.3h10.735a1.533,1.533,0,0,0,1.072-.3l1.365-2.31c.092-.157-.221-.284-.7-.284Zm27.338,2.641.86-2.4c.046-.133-.3-.24-.781-.24h-6.857c-.478,0-.914.107-.974.24l-1.075,2.4c-.064.138.285.252.781.252H679.8C680.3,438.931,680.739,438.817,680.789,438.679Zm-11.412,0,1.14-2.4c.063-.133-.275-.24-.753-.24h-6.856a1.529,1.529,0,0,0-1,.24l-1.356,2.4c-.079.138.257.252.75.252h7.064C668.856,438.931,669.31,438.817,669.376,438.679Zm22.824,0,.579-2.4c.031-.133-.331-.24-.81-.24h-6.856c-.478,0-.9.107-.947.24l-.795,2.4c-.047.138.315.252.809.252h7.065C691.738,438.931,692.166,438.817,692.2,438.679Zm11.412,0,.3-2.4c.017-.133-.359-.24-.837-.24h-6.857c-.478,0-.89.107-.918.24l-.516,2.4c-.029.138.346.252.84.252h7.063C703.18,438.931,703.594,438.817,703.612,438.679Zm22.823,0-.262-2.4c-.014-.133-.415-.24-.894-.24h-6.855c-.479,0-.865.107-.862.24l.044,2.4c0,.138.4.252.9.252h7.064C726.062,438.931,726.451,438.817,726.435,438.679Zm-11.412,0,.018-2.4c0-.133-.386-.24-.864-.24h-6.857c-.478,0-.877.107-.891.24l-.235,2.4c-.014.138.375.252.869.252h7.065C714.62,438.931,715.022,438.817,715.023,438.679Zm22.823,0-.541-2.4c-.03-.133-.443-.24-.923-.24h-6.856c-.479,0-.852.107-.835.24l.326,2.4c.02.138.434.252.929.252h7.063C737.5,438.931,737.877,438.817,737.846,438.679Zm11.411,0-.823-2.4c-.045-.133-.47-.24-.949-.24H740.63c-.48,0-.841.107-.807.24l.6,2.4c.035.138.465.252.958.252h7.063C748.944,438.931,749.307,438.817,749.258,438.678Zm11.412,0-1.1-2.4c-.06-.133-.5-.24-.977-.24h-6.855c-.48,0-.829.107-.78.24l.885,2.4c.051.139.494.253.988.253h7.064C760.386,438.931,760.734,438.817,760.669,438.678Zm11.412,0-1.382-2.4a1.541,1.541,0,0,0-1.007-.24h-6.856c-.478,0-.814.107-.75.24l1.167,2.4c.068.139.523.253,1.017.253h7.064C771.828,438.931,772.162,438.817,772.081,438.678Zm-103.386-7.11.432-.832c.06-.118-.256-.214-.707-.214h-6.171a1.513,1.513,0,0,0-.947.214l-.506.832c-.072.121.239.217.7.217h6.259C668.209,431.786,668.63,431.689,668.694,431.568Zm-10.207,0,.526-.832c.074-.118-.232-.214-.683-.214h-6.172a1.631,1.631,0,0,0-.97.214l-.6.832c-.086.121.215.217.672.217h6.259A1.556,1.556,0,0,0,658.487,431.568Zm20.414,0,.338-.832c.048-.118-.28-.214-.731-.214h-6.171c-.453,0-.864.1-.924.214l-.411.832c-.059.121.264.217.722.217h6.258C678.44,431.786,678.852,431.689,678.9,431.568Zm10.206,0,.245-.832c.034-.118-.3-.214-.755-.214h-6.171c-.452,0-.853.1-.9.214l-.317.832c-.046.121.289.217.746.217h6.258C688.672,431.786,689.07,431.689,689.107,431.568Zm20.413,0,.058-.832c.008-.118-.351-.214-.8-.214H702.6c-.45,0-.83.1-.849.214l-.131.832c-.018.121.337.217.795.217h6.259C709.134,431.786,709.511,431.689,709.52,431.568Zm-10.207,0,.153-.832c.021-.118-.328-.214-.78-.214h-6.171c-.451,0-.844.1-.875.214l-.223.832c-.034.121.313.217.769.217h6.258C698.9,431.786,699.292,431.689,699.313,431.568Zm20.415,0-.037-.832c0-.118-.376-.214-.827-.214h-6.172c-.451,0-.821.1-.827.214l-.037.832c0,.121.362.217.82.217h6.258C719.365,431.786,719.732,431.689,719.727,431.568Zm10.206,0-.131-.832c-.018-.118-.4-.214-.85-.214h-6.171c-.452,0-.811.1-.8.214l.057.832c.008.121.386.217.845.217h6.258C729.6,431.786,729.951,431.689,729.933,431.568Zm10.206,0-.225-.832c-.031-.118-.422-.214-.873-.214h-6.173c-.451,0-.8.1-.778.214l.151.832c.022.121.411.217.869.217h6.258C739.827,431.786,740.172,431.689,740.14,431.568Zm10.206,0-.317-.832c-.044-.118-.448-.214-.9-.214h-6.172c-.452,0-.789.1-.754.214l.245.832c.035.121.436.217.893.217H749.6C750.059,431.786,750.392,431.689,750.346,431.568Zm10.206,0-.411-.832c-.058-.118-.471-.214-.923-.214h-6.171c-.452,0-.779.1-.731.214l.339.832c.049.121.46.217.917.217h6.259C760.29,431.786,760.613,431.689,760.552,431.568Zm10.206,0-.5-.832a1.51,1.51,0,0,0-.946-.214h-6.172c-.451,0-.767.1-.706.214l.431.832c.063.121.486.217.942.217h6.26C770.521,431.786,770.831,431.689,770.759,431.568Zm10.207,0-.6-.832a1.625,1.625,0,0,0-.969-.214h-6.173c-.451,0-.756.1-.682.214l.525.832a1.555,1.555,0,0,0,.967.217h6.258C780.751,431.786,781.053,431.689,780.966,431.568Zm-2.339,4.47h-4.688c-.479,0-.791.127-.7.284l1.391,2.31a1.543,1.543,0,0,0,1.075.3h9.659c.492,0,.8-.134.678-.3l-1.661-2.31a1.644,1.644,0,0,0-1.072-.284Zm-122.886-3.5h-5.017a1.592,1.592,0,0,0-1.025.264l-1.539,2.14c-.11.153.185.279.66.279h7.748a1.512,1.512,0,0,0,1.032-.279l1.325-2.14c.09-.146-.212-.264-.673-.264Zm23.793,2.447.858-2.225c.047-.123-.288-.222-.749-.222h-6.6c-.46,0-.882.1-.942.222l-1.058,2.225c-.061.129.274.235.75.235h6.8C679.06,435.224,679.485,435.118,679.534,434.989Zm-10.98,0,1.118-2.225c.061-.123-.263-.222-.725-.222h-6.6a1.525,1.525,0,0,0-.969.222l-1.317,2.225c-.076.129.247.235.721.235h6.8C668.051,435.224,668.489,435.118,668.554,434.989Zm21.962,0,.6-2.225c.033-.123-.314-.222-.775-.222h-6.6c-.461,0-.871.1-.914.222l-.8,2.225c-.047.129.3.235.776.235h6.8C690.068,435.224,690.481,435.118,690.517,434.989Zm10.98,0,.337-2.225c.02-.123-.34-.222-.8-.222h-6.6c-.461,0-.86.1-.89.222L693,434.989c-.032.129.329.235.8.235h6.8C701.076,435.224,701.477,435.118,701.5,434.989Zm21.961,0-.183-2.225c-.009-.123-.391-.222-.853-.222h-6.6c-.462,0-.837.1-.839.222l-.02,2.225c0,.129.384.235.86.235h6.8C723.092,435.224,723.469,435.118,723.458,434.989Zm-10.981,0,.078-2.225c0-.123-.366-.222-.828-.222h-6.6c-.461,0-.847.1-.864.222l-.279,2.225c-.016.129.356.235.83.235h6.8C712.085,435.224,712.473,435.118,712.477,434.989Zm21.962,0L734,432.764c-.024-.123-.418-.222-.879-.222h-6.6c-.461,0-.825.1-.812.222l.241,2.225c.014.129.411.235.886.235h6.8C734.1,435.224,734.464,435.118,734.439,434.989Zm10.981,0-.7-2.225c-.039-.123-.444-.222-.9-.222h-6.6c-.461,0-.813.1-.786.222l.5,2.225c.028.129.437.235.911.235h6.8C745.108,435.224,745.461,435.118,745.42,434.989Zm10.98,0-.96-2.225c-.054-.123-.47-.222-.933-.222h-6.6c-.462,0-.8.1-.761.222l.761,2.225c.044.129.465.235.94.235h6.8C756.116,435.224,756.457,435.118,756.4,434.989Zm10.981,0-1.22-2.225c-.069-.123-.5-.222-.958-.222h-6.6c-.462,0-.791.1-.734.222l1.02,2.225c.059.129.493.235.968.235h6.8C767.125,435.224,767.452,435.118,767.382,434.989Zm6.427-2.447h-4.515c-.461,0-.766.118-.684.264l1.231,2.14a1.463,1.463,0,0,0,1.021.279h11.874c.476,0,.77-.125.66-.279l-1.539-2.14a1.594,1.594,0,0,0-1.026-.264ZM745.334,447l-.785-2.821c-.044-.155-.5-.281-1.019-.281H688.024c-.519,0-.974.125-1.017.281L686.221,447c-.046.164.351.3.886.3h57.34C744.983,447.3,745.38,447.162,745.334,447Z" transform="translate(-1.414 -6.347)" fill="#fff"/>
    <g id="Group_110" data-name="Group 110" transform="translate(670.538 342.502)">
      <g id="Group_108" data-name="Group 108" transform="translate(16.475)">
        <path id="Path_190" data-name="Path 190" d="M749.53,364.842A29.659,29.659,0,0,0,699.182,353.5s-.969,1.155-1.277,1.552c-.418.538-1.608,2.2-1.608,2.2a29.714,29.714,0,0,0-4.783,17.893l1.53,1.07.167.119.22.154a27.733,27.733,0,0,1,1.661-12.923,9.573,9.573,0,0,0,.458,5.347,21.174,21.174,0,0,0-1.868,7.752l.719.506a23.144,23.144,0,0,1,1.718-7.075,12.7,12.7,0,0,0,6.722,5.31,38.75,38.75,0,0,0-.652,7.22l2.007,1.409a42.739,42.739,0,0,1,.362-8.062,28.448,28.448,0,0,0,11.243.661c.516,3.582,1.166,7.107,1.929,10.365-.3.039-.592.062-.888.093l.926.068q1.274.082,2.543.132c.991.037,1.982.062,2.966.068a43.586,43.586,0,0,0,10.739-4.267c.438,1.181.824,2.339,1.162,3.46l.014.052c.8-.111,1.578-.237,2.35-.376-.085-.314-.169-.628-.267-.952-.337-1.122-.735-2.275-1.187-3.446a32.337,32.337,0,0,0,5.717-4.7,23.087,23.087,0,0,0,3.389-4.452,22.729,22.729,0,0,1,1.3,3.334,17.59,17.59,0,0,1,.783,5.119,21.8,21.8,0,0,1-2.311,3.239c.22-.073.453-.137.668-.215.148-.052.285-.108.434-.162.424-.588.819-1.179,1.161-1.771-.04.479-.1.944-.187,1.4l.021-.009c.147-.059.283-.123.427-.183.646-.269,1.266-.55,1.854-.844A29.519,29.519,0,0,0,749.53,364.842ZM742.861,356a19.061,19.061,0,0,0-3.726-2.8,10.108,10.108,0,0,0-1.732-2.36A27.977,27.977,0,0,1,742.861,356Zm-13.991-.359a6.355,6.355,0,0,0,.323-4.75,26.776,26.776,0,0,1,9.318,2.849,9.978,9.978,0,0,1-.507,7.461A40.02,40.02,0,0,0,728.87,355.645Zm8.441,6.919a18.549,18.549,0,0,1-2.714,3.563,26.046,26.046,0,0,1-4.577,3.76,81.984,81.984,0,0,0-6.232-8.715,16.748,16.748,0,0,0,2.915-2.392,11.948,11.948,0,0,0,1.727-2.269A42.919,42.919,0,0,1,737.311,362.564Zm-8.732-15.955a28.074,28.074,0,0,1,7.119,3.1,9.906,9.906,0,0,1,2.312,2.888,24.634,24.634,0,0,0-9.134-2.433,7.533,7.533,0,0,0-3.94-3.336A13.256,13.256,0,0,1,728.579,346.608Zm-17.446.838a21.081,21.081,0,0,0-2.839,1.378c-.073,0-.144,0-.218,0A28.147,28.147,0,0,1,711.133,347.446Zm-4.315,2.093c.143-.024.286-.046.435-.056a16.279,16.279,0,0,0-2.625,2.2,11.634,11.634,0,0,0-1.863,2.512,15.065,15.065,0,0,0-4.107,2.8A27.721,27.721,0,0,1,706.818,349.539ZM695.91,361.63a27.839,27.839,0,0,1,1.326-2.494,16.832,16.832,0,0,1,5.12-4.08,6.215,6.215,0,0,0-.141,4.716,28.812,28.812,0,0,0-6.081,7.92A9.39,9.39,0,0,1,695.91,361.63Zm7.229,12.3a12.181,12.181,0,0,1-6.456-5.1,30.966,30.966,0,0,1,5.877-8.333,7.779,7.779,0,0,0,4.115,3.249A46.337,46.337,0,0,0,703.139,373.93Zm1.649.546a50.825,50.825,0,0,1,2.936-10.382,17.485,17.485,0,0,0,6.878.4c.177,3.419.515,7.03.991,10.612A27.362,27.362,0,0,1,704.788,374.476Zm10.87-11.591c-.443-3.557-.736-6.857-.83-9.638-.041.007-.078.014-.122.019a76.5,76.5,0,0,0-.169,9.794,15.812,15.812,0,0,1-6.225-.364,40.3,40.3,0,0,1,5.736-9.468l-.039-.012-.058-.022a39.3,39.3,0,0,0-6.589,9.188,7.037,7.037,0,0,1-3.721-2.94,36.077,36.077,0,0,1,9.916-6.559c-.011-.023-.024-.045-.034-.068a35.035,35.035,0,0,0-10.2,5.971,5.629,5.629,0,0,1,.132-4.269,26.027,26.027,0,0,1,10.08-2.154.533.533,0,0,1,.039-.083,23.993,23.993,0,0,0-9.751,1.457,10.443,10.443,0,0,1,1.685-2.27,14.824,14.824,0,0,1,2.377-2A13.152,13.152,0,0,1,714,351.831l.1-.064a12.311,12.311,0,0,0-5.277-2.889,20.246,20.246,0,0,1,6.2-2.351,17.063,17.063,0,0,0-.264,4.99c.04-.006.081-.013.12-.018a13.037,13.037,0,0,1,1.27-5.167,15.753,15.753,0,0,1,6.751.388c.317-.107.633-.2.945-.281a17.421,17.421,0,0,0-7.462-.428.153.153,0,0,0,.023-.02,27.64,27.64,0,0,1,10.354.168c-3.511,0-7.405,1.765-11.153,5.387a.881.881,0,0,1,.085.032,21.832,21.832,0,0,1,8.19-4.506,6.782,6.782,0,0,1,3.566,3.019,32.672,32.672,0,0,0-11.379,1.806.4.4,0,0,1,.03.071,33.919,33.919,0,0,1,11.637-1.214,5.724,5.724,0,0,1-.292,4.3,38.147,38.147,0,0,0-11.374-2.631.669.669,0,0,1-.042.081,38.807,38.807,0,0,1,11.02,3.33,11.023,11.023,0,0,1-1.563,2.054,14.919,14.919,0,0,1-2.638,2.163,51.634,51.634,0,0,0-7.262-7.1,1.132,1.132,0,0,1-.1.061,60.787,60.787,0,0,1,6.407,7.624A20.311,20.311,0,0,1,715.658,362.885Zm1.881,11.921c-.67-3.554-1.248-7.124-1.7-10.5a22.458,22.458,0,0,0,6.892-2.489,102.1,102.1,0,0,1,5.63,9.077A35.227,35.227,0,0,1,717.539,374.806Zm2.6,11.818c-.832-3.248-1.614-6.754-2.306-10.307a36.635,36.635,0,0,0,11.265-4.072,92.51,92.51,0,0,1,4.429,9.542A43.576,43.576,0,0,1,720.136,386.624Zm21.092-10.733a32.316,32.316,0,0,1-5.657,4.649,73.044,73.044,0,0,0-4.753-9.346,26.863,26.863,0,0,0,4.763-3.911,19.369,19.369,0,0,0,2.825-3.709,33.079,33.079,0,0,1,6.179,7.912A23.062,23.062,0,0,1,741.229,375.891Zm-2.1-13.73a10.384,10.384,0,0,0,.527-7.765,19.854,19.854,0,0,1,5.418,4.784,26.629,26.629,0,0,1,1.309,2.472,12.645,12.645,0,0,1-.944,8.158A30.024,30.024,0,0,0,739.128,362.162Zm9.431,16.213c-.131.364-.267.731-.431,1.1a16.979,16.979,0,0,0-.755-5.175,21.307,21.307,0,0,0-1.312-3.31,13,13,0,0,0,1.088-7.52c.239.621.464,1.251.66,1.9A27.734,27.734,0,0,1,748.558,378.375Z" transform="translate(-691.466 -343.779)" fill="#2c82be"/>
        <path id="Path_191" data-name="Path 191" d="M738.1,398.773a7.844,7.844,0,0,0,.788-4.063c-.677.1-1.371.188-2.062.276-.633.08-1.269.153-1.914.22a43.641,43.641,0,0,1-11.46,3.834q-.554-1.467-1.148-3.349c-.866-.022-1.737-.058-2.608-.1.455,1.446.914,2.728,1.37,3.821a33.556,33.556,0,0,1-13.247-.777,19.389,19.389,0,0,1-2.031-4.625c-.31-.055-.62-.118-.93-.179l-.921.186a17.871,17.871,0,0,0,1.86,3.947,18.32,18.32,0,0,1-4.381-2.363c-.286-.295-.564-.6-.837-.909l-.216.043-.2.04-1.6.322a29.637,29.637,0,0,0,47.324-1.812c-.887.228-1.79.44-2.714.636A27.763,27.763,0,0,1,738.1,398.773Zm-35.129-1.659a18.922,18.922,0,0,0,3.439,1.727,12.217,12.217,0,0,0,1.99,2.065A27.98,27.98,0,0,1,702.966,397.114Zm18.637,7.1a27.887,27.887,0,0,1-10.591-2.082A11.519,11.519,0,0,1,708.4,399.5a32.995,32.995,0,0,0,13.039.765,9.724,9.724,0,0,0,2.532,3.75C723.178,404.114,722.387,404.179,721.6,404.218Zm14.8-4.31a34.279,34.279,0,0,1-10.539,3.808,12.735,12.735,0,0,1-2.077-3.816,42.668,42.668,0,0,0,13.064-4.722A8.651,8.651,0,0,1,736.4,399.908Z" transform="translate(-691.881 -346.673)" fill="#2c82be"/>
      </g>
      <g id="Group_109" data-name="Group 109" transform="translate(0 12.519)">
        <path id="Path_192" data-name="Path 192" d="M758.386,367.054l.429-1.96.571-2.62L749.2,359.607v0a33.272,33.272,0,0,1,4.192,6.189l0,.014.007,0a59.61,59.61,0,0,1,3.527,7.882l.725-3.316c2.8,4.452,1.929,8.993-2.706,12.523a20.091,20.091,0,0,1-2.134,1.418c-1.018.594-2.089,1.149-3.2,1.672-.64.3-1.294.592-1.966.872-.033.012-.066.03-.1.043l-.431.179c-.818.327-1.665.629-2.525.917-.566.19-1.138.377-1.723.549-1.158.343-2.359.646-3.587.917-.736.163-1.487.308-2.247.445a64.71,64.71,0,0,1-14.848.806q-1.287-.073-2.6-.194c-1.5-.135-3.008-.3-4.557-.535l-3.073,1.088c2.657.447,5.351.748,8.043.936q1.308.09,2.613.144a85.4,85.4,0,0,0,14.757-.677c.734-.1,1.469-.2,2.186-.318.58-.1,1.145-.208,1.716-.317,1.433-.271,2.832-.575,4.183-.923.873-.228,1.728-.467,2.559-.724a41.535,41.535,0,0,0,8.623-3.646A22.823,22.823,0,0,0,759,383.974C765.776,378.815,765.042,372.477,758.386,367.054Z" transform="translate(-676.189 -357.223)" fill="#1c3e70"/>
        <path id="Path_193" data-name="Path 193" d="M697.474,391.1l.385-.079,1.231-.247,2.908-.583,1.431-.288h0l.394-.078,2.593-.523-.6-.423-1.009-.707-1.426-1-2.115-1.481-.324-.227-7.481-5.246-.121-.084-.544-.379-.076-.055-.07-.051-.9-.63.52,3.56.3,2.07h0c-.1-.04-.185-.08-.28-.12-.577-.233-1.15-.471-1.691-.716-12.138-5.47-15.835-13.406-7.832-19.5a20.662,20.662,0,0,1,2.136-1.42,33.285,33.285,0,0,1,6.342-2.755c.6-.8,1.456-1.9,2.479-3.055a44.228,44.228,0,0,0-12.634,4.577,23.2,23.2,0,0,0-2.384,1.579c-9.664,7.37-4.033,17.132,12.279,23.219.632.235,1.285.465,1.949.688v0l.29,1.982.4,2.745,2.3-.461,1.545-.311Z" transform="translate(-673.968 -357.075)" fill="#1c3e70"/>
      </g>
    </g>
  </g>
</svg>
